<svg version="1.1" viewBox="0.0 0.0 308.5721784776903 228.64304461942257" fill="none" stroke="none" stroke-linecap="square" stroke-miterlimit="10" xmlns:xlink="http://www.w3.org/1999/xlink" xmlns="http://www.w3.org/2000/svg"><clipPath id="p.0"><path d="m0 0l308.57217 0l0 228.64305l-308.57217 0l0 -228.64305z" clip-rule="nonzero"/></clipPath><g clip-path="url(#p.0)"><path fill="#000000" fill-opacity="0.0" d="m0 0l308.57217 0l0 228.64305l-308.57217 0z" fill-rule="evenodd"/><path stroke="#9e9e9e" stroke-width="1.0" stroke-linecap="butt" d="m174.2336 96.32284l0 122.58793" fill-rule="nonzero"/><path stroke="#9e9e9e" stroke-width="1.0" stroke-linecap="butt" d="m233.11285 96.32284l0 122.58793" fill-rule="nonzero"/><path stroke="#9e9e9e" stroke-width="1.0" stroke-linecap="butt" d="m291.99213 96.32284l0 122.58793" fill-rule="nonzero"/><path stroke="#9e9e9e" stroke-width="1.0" stroke-linecap="butt" d="m173.73491 96.821526l118.755905 0" fill-rule="nonzero"/><path stroke="#9e9e9e" stroke-width="1.0" stroke-linecap="butt" d="m173.73491 157.61679l118.755905 0" fill-rule="nonzero"/><path stroke="#9e9e9e" stroke-width="1.0" stroke-linecap="butt" d="m173.73491 218.41208l118.755905 0" fill-rule="nonzero"/><path fill="#000000" d="m194.63417 136.54152l0 -22.906242l10.15625 0q3.0625 0 4.65625 0.625q1.59375 0.609375 2.546875 2.171875q0.953125 1.5625 0.953125 3.453125q0 2.4375 -1.578125 4.109375q-1.578125 1.671875 -4.875 2.125q1.203125 0.578125 1.828125 1.140625q1.328125 1.2187424 2.515625 3.0468674l3.984375 6.234375l-3.8125 0l-3.03125 -4.765625q-1.328125 -2.0625 -2.1875 -3.15625q-0.859375 -1.0937424 -1.546875 -1.5312424q-0.671875 -0.4375 -1.375 -0.609375q-0.515625 -0.109375 -1.6875 -0.109375l-3.515625 0l0 10.171867l-3.03125 0zm3.03125 -12.796867l6.515625 0q2.078125 0 3.25 -0.421875q1.171875 -0.4375 1.78125 -1.375q0.609375 -0.953125 0.609375 -2.0625q0 -1.625 -1.1875 -2.671875q-1.171875 -1.046875 -3.71875 -1.046875l-7.25 0l0 7.578125z" fill-rule="nonzero"/><path fill="#000000" d="m263.29468 127.55715l0 -2.6875l9.703125 -0.015625l0 8.499992q-2.234375 1.78125 -4.609375 2.6875q-2.375 0.890625 -4.875 0.890625q-3.375 0 -6.140625 -1.4375q-2.75 -1.453125 -4.15625 -4.1875q-1.40625 -2.734375 -1.40625 -6.1093674q0 -3.34375 1.390625 -6.234375q1.40625 -2.90625 4.03125 -4.3125q2.625 -1.40625 6.046875 -1.40625q2.484375 0 4.484375 0.8125q2.015625 0.796875 3.15625 2.234375q1.140625 1.4375 1.734375 3.75l-2.734375 0.75q-0.515625 -1.75 -1.28125 -2.75q-0.765625 -1.0 -2.1875 -1.59375q-1.421875 -0.609375 -3.15625 -0.609375q-2.078125 0 -3.59375 0.640625q-1.515625 0.625 -2.453125 1.65625q-0.921875 1.03125 -1.4375 2.265625q-0.875 2.125 -0.875 4.609375q0 3.0624924 1.046875 5.1249924q1.0625 2.0625 3.078125 3.0625q2.015625 1.0 4.28125 1.0q1.96875 0 3.84375 -0.75q1.875 -0.765625 2.84375 -1.625l0 -4.2656174l-6.734375 0z" fill-rule="nonzero"/><path fill="#000000" d="m209.61855 174.43054l3.03125 0l0 13.234375q0 3.453125 -0.78125 5.484375q-0.78125 2.03125 -2.828125 3.3125q-2.03125 1.265625 -5.34375 1.265625q-3.21875 0 -5.265625 -1.109375q-2.046875 -1.109375 -2.921875 -3.203125q-0.875 -2.109375 -0.875 -5.75l0 -13.234375l3.03125 0l0 13.21875q0 2.984375 0.546875 4.40625q0.5625 1.40625 1.90625 2.171875q1.359375 0.765625 3.3125 0.765625q3.34375 0 4.765625 -1.515625q1.421875 -1.515625 1.421875 -5.828125l0 -13.21875z" fill-rule="nonzero"/><path fill="#000000" d="m268.4978 174.43054l3.03125 0l0 13.234375q0 3.453125 -0.78125 5.484375q-0.78125 2.03125 -2.828125 3.3125q-2.03125 1.265625 -5.34375 1.265625q-3.21875 0 -5.265625 -1.109375q-2.046875 -1.109375 -2.921875 -3.203125q-0.875 -2.109375 -0.875 -5.75l0 -13.234375l3.03125 0l0 13.21875q0 2.984375 0.546875 4.40625q0.5625 1.40625 1.90625 2.171875q1.359375 0.765625 3.3125 0.765625q3.34375 0 4.765625 -1.515625q1.421875 -1.515625 1.421875 -5.828125l0 -13.21875z" fill-rule="nonzero"/><path fill="#000000" fill-opacity="0.0" d="m136.2586 -89.64931l99.55905 172.47244l-54.456696 31.433075l-99.55905 -172.47244z" fill-rule="evenodd"/><path fill="#000000" d="m171.67921 32.597794l-2.2731323 -3.9378853l-8.038269 4.6397934l-1.4373169 -2.4899368l19.703262 -11.372959l3.3354797 5.7782726q0.76971436 1.3959122 1.1073608 2.8247147q0.33764648 1.4288044 0.13026428 2.7572632q-0.1995697 1.3419933 -1.0123901 2.496729q-0.79148865 1.1604576 -2.2800598 2.01968q-0.9608002 0.5545883 -1.9232635 0.731266q-0.9546356 0.19020844 -1.8854065 0.07798004q-0.9307709 -0.11222839 -1.822052 -0.49983215q-0.89126587 -0.38759995 -1.711792 -0.9964485l-6.0034637 9.03997l-0.17019653 0.080200195l-1.5232239 -2.6387901l5.804199 -8.510017zm-0.21620178 -5.1251736l1.9372406 3.356001q0.4978485 0.8311882 1.1710663 1.434864q0.68673706 0.59586334 1.4806366 0.87729645q0.8017273 0.29496384 1.6658173 0.2291832q0.8776398 -0.073589325 1.7707825 -0.5891228q0.9472656 -0.5467758 1.471283 -1.2641964q0.53756714 -0.72522926 0.6909332 -1.5534401q0.16690063 -0.83602333 -0.03477478 -1.747961q-0.19384766 -0.898407 -0.7036896 -1.8128796l-1.8981781 -3.2883377l-7.551117 4.358593zm12.76886 21.026384l3.179245 5.5076294l-2.4899597 1.4372406l-3.1792603 -5.5076294l-6.103134 3.522808l-1.4451294 -2.5034676l6.1031494 -3.522808l-3.1714478 -5.494095l2.489975 -1.4372406l3.1714325 5.494095l5.751297 -3.3197174l1.4451141 2.5034676l-5.7512817 3.3197174zm21.687393 16.473843l-13.327377 7.728813q-1.395935 0.7696686 -2.8737183 0.9912262q-1.4777985 0.22155762 -2.876587 -0.1076355q-1.3852692 -0.336998 -2.592636 -1.209671q-1.1938171 -0.88048553 -2.0062103 -2.2878342q-0.8280182 -1.4344254 -0.9933777 -2.908554q-0.1653595 -1.4741287 0.24346924 -2.828659q0.42236328 -1.3623428 1.3533478 -2.5311584q0.9445343 -1.1766281 2.3170319 -1.9868927l13.358612 -7.674679l1.3748169 2.3816757l-13.311752 7.7558746q-0.87179565 0.5212517 -1.5353241 1.2470322q-0.65571594 0.7393074 -0.9970093 1.5857811q-0.33346558 0.86000824 -0.29055786 1.8094559q0.050720215 0.9629898 0.6053314 1.9237747q0.5546112 0.96079254 1.3418121 1.4806366q0.8007202 0.51203156 1.7044373 0.6398773q0.9250488 0.13357544 1.8854065 -0.07798004q0.9603729 -0.21154785 1.8556061 -0.69220734l13.366425 -7.661148l1.3982544 2.4222717zm-5.1644287 15.2128525l-1.6457977 -5.8515244l2.7899933 -0.63619995l0.8077698 6.118744l5.501892 -3.6267776l1.3904266 2.4087448l-6.004883 2.9429016l4.8654175 3.7405472l-1.9869537 2.1211166l-4.256027 -4.4350815l-2.384781 5.995056l-2.6290436 -1.1164856l3.240631 -5.7313385l-6.446518 -0.10370636l0.29397583 -2.803688l6.4638977 0.97769165z" fill-rule="nonzero"/><path fill="#000000" fill-opacity="0.0" d="m-24.91601 157.61679l199.14961 0l0 62.897644l-199.14961 0z" fill-rule="evenodd"/><path fill="#000000" d="m48.874226 177.05554l-7.03125 0l0 20.28125l-2.8125 0l0 -20.28125l-7.031248 0l0 -2.46875l16.874998 0l0 2.46875zm9.53125 9.609375l-5.890625 -1.5l0.84375 -2.734375l5.703125 2.359375l-0.390625 -6.578125l2.78125 0l-0.453125 6.671875l5.671879 -2.34375l0.84375 2.78125l-5.968754 1.46875l4.000004 5.0625l-2.2812538 1.71875l-3.34375 -5.671875l-3.3125 5.53125l-2.28125 -1.65625l4.078125 -5.109375zm27.812504 -12.078125l0.03125 15.40625q-0.03125 1.59375 -0.578125 2.984375q-0.546875 1.390625 -1.53125 2.4375q-0.984375 1.03125 -2.34375 1.640625q-1.359375 0.59375 -2.984375 0.59375q-1.65625 0 -3.015625 -0.59375q-1.359375 -0.59375 -2.328125 -1.625q-0.96875 -1.046875 -1.515625 -2.4375q-0.546875 -1.40625 -0.5625 -3.0l0.03125 -15.40625l2.75 0l0.0625 15.40625q0.015625 1.015625 0.3125 1.953125q0.3125 0.9375 0.875 1.65625q0.578125 0.71875 1.421875 1.15625q0.859375 0.4375 1.96875 0.4375q1.109375 0 1.953125 -0.421875q0.84375 -0.4375 1.40625 -1.15625q0.578125 -0.734375 0.875 -1.671875q0.296875 -0.9375 0.328125 -1.953125l0.046875 -15.40625l2.796875 0zm17.484375 28.46875q-1.015625 -0.03125 -1.84375 -0.34375q-0.828125 -0.3125 -1.484375 -0.84375q-0.65625 -0.53125 -1.140625 -1.234375q-0.46875 -0.703125 -0.796875 -1.515625q-0.3125 -0.796875 -0.46875 -1.65625q-0.15625 -0.84375 -0.15625 -1.671875l0 -2.640625q0 -2.25 -1.078125 -3.265625q-1.0625 -1.015625 -3.265625 -1.03125l0 -2.265625q2.203125 0 3.265625 -1.0q1.078125 -1.015625 1.078125 -3.28125l0 -2.65625q0 -0.828125 0.140625 -1.671875q0.140625 -0.859375 0.4375 -1.65625q0.296875 -0.8125 0.75 -1.515625q0.46875 -0.703125 1.125 -1.234375q0.65625 -0.53125 1.5 -0.84375q0.859375 -0.3125 1.9375 -0.34375l0.328125 1.796875q-1.125 0.03125 -1.796875 0.53125q-0.65625 0.5 -1.0 1.28125q-0.328125 0.765625 -0.421875 1.734375q-0.09375 0.96875 -0.09375 1.921875l0 2.65625q-0.015625 1.875 -0.875 3.296875q-0.859375 1.40625 -2.671875 2.140625q1.8125 0.71875 2.671875 2.140625q0.859375 1.40625 0.875 3.265625l0 2.640625q0 0.96875 0.15625 1.921875q0.15625 0.96875 0.53125 1.734375q0.390625 0.78125 1.015625 1.28125q0.640625 0.5 1.609375 0.53125l-0.328125 1.796875zm13.96875 -6.390625q0 0.734375 -0.1875 1.53125q-0.171875 0.8125 -0.53125 1.59375q-0.34375 0.796875 -0.84375 1.515625q-0.5 0.71875 -1.15625 1.28125l-1.796875 -0.984375q0.75 -1.09375 1.0625 -2.328125q0.3125 -1.234375 0.3125 -2.5625l0 -2.796875l3.140625 0l0 2.75zm25.828117 0.671875l-14.90625 0l0 -2.078125l7.453125 -8.28125q1.0 -1.109375 1.671875 -1.96875q0.671875 -0.859375 1.078125 -1.578125q0.40625 -0.734375 0.578125 -1.375q0.171875 -0.65625 0.171875 -1.34375q0 -0.84375 -0.28125 -1.578125q-0.265625 -0.75 -0.796875 -1.296875q-0.515625 -0.546875 -1.265625 -0.859375q-0.734375 -0.328125 -1.671875 -0.328125q-1.140625 0 -1.984375 0.328125q-0.828125 0.328125 -1.390625 0.9375q-0.546875 0.59375 -0.828125 1.453125q-0.265625 0.859375 -0.265625 1.921875l-2.90625 0q0 -1.4375 0.5 -2.703125q0.5 -1.28125 1.4375 -2.234375q0.953125 -0.953125 2.3125 -1.515625q1.375 -0.5625 3.125 -0.5625q1.609375 0 2.890625 0.484375q1.296875 0.46875 2.1875 1.3125q0.890625 0.84375 1.359375 2.0q0.484375 1.15625 0.484375 2.515625q0 1.015625 -0.34375 2.015625q-0.34375 0.984375 -0.9375 1.953125q-0.578125 0.96875 -1.359375 1.921875q-0.765625 0.9375 -1.625 1.875l-6.109375 6.625l11.421875 0l0 2.359375zm7.578125 3.921875q0.953125 -0.03125 1.59375 -0.53125q0.640625 -0.5 1.015625 -1.28125q0.390625 -0.765625 0.546875 -1.734375q0.171875 -0.953125 0.171875 -1.921875l0 -2.640625q0 -1.859375 0.859375 -3.265625q0.859375 -1.421875 2.671875 -2.140625q-1.8125 -0.734375 -2.671875 -2.140625q-0.859375 -1.421875 -0.859375 -3.296875l0 -2.65625q0 -0.953125 -0.109375 -1.921875q-0.09375 -0.96875 -0.4375 -1.734375q-0.328125 -0.78125 -0.984375 -1.28125q-0.65625 -0.5 -1.78125 -0.53125l0.3125 -1.796875q1.078125 0.03125 1.921875 0.34375q0.859375 0.3125 1.515625 0.84375q0.65625 0.53125 1.109375 1.234375q0.46875 0.703125 0.765625 1.515625q0.296875 0.796875 0.4375 1.65625q0.140625 0.84375 0.140625 1.671875l0 2.65625q0 2.265625 1.078125 3.28125q1.078125 1.0 3.265625 1.0l0 2.265625q-2.1875 0.015625 -3.265625 1.03125q-1.078125 1.015625 -1.078125 3.265625l0 2.640625q0 1.25 -0.34375 2.515625q-0.34375 1.28125 -1.078125 2.328125q-0.71875 1.046875 -1.828125 1.71875q-1.109375 0.671875 -2.640625 0.703125l-0.328125 -1.796875z" fill-rule="nonzero"/><path fill="#000000" fill-opacity="0.0" d="m-24.91601 96.821526l199.14961 0l0 62.897636l-199.14961 0z" fill-rule="evenodd"/><path fill="#000000" d="m21.858603 127.26028l-4.546875 0l0 9.281242l-2.875001 0l0 -22.749992l6.671876 0q1.59375 0.03125 3.0 0.453125q1.40625 0.421875 2.453125 1.265625q1.0625 0.84375 1.65625 2.125q0.609375 1.265625 0.609375 2.984375q0 1.109375 -0.328125 2.03125q-0.3125 0.921875 -0.875 1.671875q-0.5625 0.75 -1.34375 1.328125q-0.78125 0.578125 -1.71875 0.984375l4.828125 9.718742l-0.015625 0.1875l-3.046875 0l-4.46875 -9.281242zm-4.546875 -2.375l3.875 0q0.96875 -0.015625 1.828125 -0.296875q0.859375 -0.296875 1.5 -0.84375q0.65625 -0.546875 1.03125 -1.328125q0.375 -0.796875 0.375 -1.828125q0 -1.09375 -0.359375 -1.90625q-0.359375 -0.828125 -1.0 -1.375q-0.640625 -0.5625 -1.53125 -0.84375q-0.875 -0.28125 -1.921875 -0.296875l-3.796875 0l0 8.71875zm21.484373 5.2499924q0.015625 -1.125 0.09375 -1.84375q0.078125 -0.7343674 0.328125 -1.2968674q0.25 -0.578125 0.71875 -1.09375q0.46875 -0.53125 1.25 -1.25q0.53125 -0.546875 1.078125 -1.125q0.5625 -0.578125 1.015625 -1.203125q0.46875 -0.640625 0.765625 -1.34375q0.296875 -0.703125 0.296875 -1.484375q0 -1.703125 -0.984375 -2.59375q-0.984375 -0.90625 -2.8125 -0.90625q-0.734375 0 -1.4375 0.1875q-0.6875 0.171875 -1.234375 0.5625q-0.53125 0.375 -0.859375 0.96875q-0.328125 0.578125 -0.328125 1.390625l-2.890625 0q0.015625 -1.3125 0.546875 -2.359375q0.53125 -1.046875 1.421875 -1.765625q0.90625 -0.734375 2.125 -1.109375q1.234375 -0.390625 2.65625 -0.390625q1.578125 0 2.8125 0.40625q1.25 0.390625 2.109375 1.15625q0.859375 0.765625 1.3125 1.859375q0.453125 1.09375 0.453125 2.5q0 1.125 -0.390625 2.125q-0.390625 0.984375 -1.0 1.875q-0.609375 0.875 -1.375 1.640625q-0.75 0.765625 -1.484375 1.421875q-0.46875 0.453125 -0.734375 0.859375q-0.25 0.40625 -0.375 0.8281174q-0.125 0.421875 -0.15625 0.90625q-0.03125 0.46875 -0.03125 1.078125l-2.890625 0zm-0.328125 4.890625q0 -0.75 0.4375 -1.25q0.453125 -0.5 1.34375 -0.5q0.890625 0 1.34375 0.5q0.46875 0.5 0.46875 1.25q0 0.71875 -0.46875 1.203125q-0.453125 0.484375 -1.34375 0.484375q-0.890625 0 -1.34375 -0.484375q-0.4375 -0.484375 -0.4375 -1.203125zm28.984379 -1.46875q-1.4375 1.6875 -3.296875 2.5q-1.8593788 0.8125 -4.078129 0.796875q-1.40625 -0.015625 -2.59375 -0.421875q-1.171875 -0.421875 -2.109375 -1.140625q-0.9375 -0.734375 -1.640625 -1.71875q-0.703125 -0.984375 -1.1875 -2.125q-0.46875 -1.15625 -0.71875 -2.40625q-0.234375 -1.2656174 -0.25 -2.5468674l0 -2.640625q0.015625 -1.265625 0.21875 -2.515625q0.21875 -1.265625 0.65625 -2.421875q0.4375 -1.15625 1.09375 -2.140625q0.65625 -1.0 1.5625 -1.71875q0.921875 -0.734375 2.078125 -1.15625q1.15625 -0.421875 2.59375 -0.421875q1.59375 0 2.9375 0.5q1.3437538 0.484375 2.3437538 1.40625q1.0 0.90625 1.609375 2.203125q0.609375 1.28125 0.75 2.875l-2.859375 0q-0.171875 -0.984375 -0.53125 -1.8125q-0.3593788 -0.84375 -0.9531288 -1.4375q-0.578125 -0.59375 -1.390625 -0.921875q-0.8125 -0.34375 -1.890625 -0.34375q-1.03125 0 -1.828125 0.359375q-0.796875 0.34375 -1.390625 0.9375q-0.59375 0.59375 -0.984375 1.390625q-0.390625 0.78125 -0.640625 1.65625q-0.25 0.875 -0.359375 1.78125q-0.109375 0.90625 -0.109375 1.75l0 2.671875q0.015625 0.859375 0.140625 1.7812424q0.140625 0.90625 0.421875 1.78125q0.28125 0.875 0.71875 1.65625q0.4375 0.78125 1.046875 1.375q0.625 0.59375 1.4375 0.953125q0.8125 0.34375 1.84375 0.359375q0.59375 0.015625 1.234375 -0.046875q0.65625 -0.0625 1.265625 -0.25q0.609375 -0.1875 1.140625 -0.5q0.5312538 -0.328125 0.8906288 -0.84375l0.03125 -5.1093674l-4.625004 0l0 -2.4375l7.375004 0l0.046875 8.343742zm17.046875 8.703125q-1.015625 -0.03125 -1.84375 -0.34375q-0.828125 -0.3125 -1.484375 -0.84375q-0.65625 -0.53125 -1.140625 -1.234375q-0.46875 -0.703125 -0.796875 -1.515625q-0.3125 -0.796875 -0.46875 -1.65625q-0.15625 -0.84375 -0.15625 -1.671875l0 -2.640625q0 -2.25 -1.078125 -3.265625q-1.0625 -1.015625 -3.265625 -1.03125l0 -2.2656174q2.203125 0 3.265625 -1.0q1.078125 -1.015625 1.078125 -3.28125l0 -2.65625q0 -0.828125 0.140625 -1.671875q0.140625 -0.859375 0.4375 -1.65625q0.296875 -0.8125 0.75 -1.515625q0.46875 -0.703125 1.125 -1.234375q0.65625 -0.53125 1.5 -0.84375q0.859375 -0.3125 1.9375 -0.34375l0.328125 1.796875q-1.125 0.03125 -1.796875 0.53125q-0.65625 0.5 -1.0 1.28125q-0.328125 0.765625 -0.421875 1.734375q-0.09375 0.96875 -0.09375 1.921875l0 2.65625q-0.015625 1.875 -0.875 3.296875q-0.859375 1.40625 -2.671875 2.140625q1.8125 0.71875 2.671875 2.1406174q0.859375 1.40625 0.875 3.265625l0 2.640625q0 0.96875 0.15625 1.921875q0.15625 0.96875 0.53125 1.734375q0.390625 0.78125 1.015625 1.28125q0.640625 0.5 1.609375 0.53125l-0.328125 1.796875zm16.015625 -5.71875l-2.890625 0l0 -19.062492l-5.953125 2.265625l0 -2.640625l8.609375 -3.3125l0.234375 0l0 22.749992zm17.15625 -0.671875q0 0.734375 -0.1875 1.53125q-0.171875 0.8125 -0.53125 1.59375q-0.34375 0.796875 -0.84375 1.515625q-0.5 0.71875 -1.15625 1.28125l-1.796875 -0.984375q0.75 -1.09375 1.0625 -2.328125q0.3125 -1.234375 0.3125 -2.5625l0 -2.796875l3.140625 0l0 2.75zm25.828117 0.671875l-14.90625 0l0 -2.078125l7.453125 -8.281242q1.0 -1.109375 1.671875 -1.96875q0.671875 -0.859375 1.078125 -1.578125q0.40625 -0.734375 0.578125 -1.375q0.171875 -0.65625 0.171875 -1.34375q0 -0.84375 -0.28125 -1.578125q-0.265625 -0.75 -0.796875 -1.296875q-0.515625 -0.546875 -1.265625 -0.859375q-0.734375 -0.328125 -1.671875 -0.328125q-1.140625 0 -1.984375 0.328125q-0.828125 0.328125 -1.390625 0.9375q-0.546875 0.59375 -0.828125 1.453125q-0.265625 0.859375 -0.265625 1.921875l-2.90625 0q0 -1.4375 0.5 -2.703125q0.5 -1.28125 1.4375 -2.234375q0.953125 -0.953125 2.3125 -1.515625q1.375 -0.5625 3.125 -0.5625q1.609375 0 2.890625 0.484375q1.296875 0.46875 2.1875 1.3125q0.890625 0.84375 1.359375 2.0q0.484375 1.15625 0.484375 2.515625q0 1.015625 -0.34375 2.015625q-0.34375 0.984375 -0.9375 1.953125q-0.578125 0.96875 -1.359375 1.921875q-0.765625 0.9375 -1.625 1.875l-6.109375 6.6249924l11.421875 0l0 2.359375zm7.578125 3.921875q0.953125 -0.03125 1.59375 -0.53125q0.640625 -0.5 1.015625 -1.28125q0.390625 -0.765625 0.546875 -1.734375q0.171875 -0.953125 0.171875 -1.921875l0 -2.640625q0 -1.859375 0.859375 -3.265625q0.859375 -1.4218674 2.671875 -2.1406174q-1.8125 -0.734375 -2.671875 -2.140625q-0.859375 -1.421875 -0.859375 -3.296875l0 -2.65625q0 -0.953125 -0.109375 -1.921875q-0.09375 -0.96875 -0.4375 -1.734375q-0.328125 -0.78125 -0.984375 -1.28125q-0.65625 -0.5 -1.78125 -0.53125l0.3125 -1.796875q1.078125 0.03125 1.921875 0.34375q0.859375 0.3125 1.515625 0.84375q0.65625 0.53125 1.109375 1.234375q0.46875 0.703125 0.765625 1.515625q0.296875 0.796875 0.4375 1.65625q0.140625 0.84375 0.140625 1.671875l0 2.65625q0 2.265625 1.078125 3.28125q1.078125 1.0 3.265625 1.0l0 2.2656174q-2.1875 0.015625 -3.265625 1.03125q-1.078125 1.015625 -1.078125 3.265625l0 2.640625q0 1.25 -0.34375 2.515625q-0.34375 1.28125 -1.078125 2.328125q-0.71875 1.046875 -1.828125 1.71875q-1.109375 0.671875 -2.640625 0.703125l-0.328125 -1.796875z" fill-rule="nonzero"/><path fill="#000000" fill-opacity="0.0" d="m202.04863 -92.39996l99.55907 172.47244l-54.45671 31.433075l-99.55905 -172.47244z" fill-rule="evenodd"/><path fill="#000000" d="m220.20476 14.753294q0.40597534 -0.23433208 0.828125 -0.3156309q0.42996216 -0.06776619 0.8276825 0.027403831q0.41125488 0.087358475 0.7710266 0.36680794q0.35975647 0.2794485 0.64097595 0.7666092q0.28120422 0.48716164 0.34326172 0.9384556q0.06985474 0.46482468 -0.060180664 0.86462784q-0.10870361 0.4055233 -0.39024353 0.730402q-0.27372742 0.33841133 -0.67970276 0.57274437q-0.3924408 0.22652245 -0.82240295 0.29428673q-0.4086151 0.073488235 -0.81414795 -0.03521347q-0.39772034 -0.095170975 -0.75177 -0.39596176q-0.35975647 -0.27944946 -0.64097595 -0.7666111q-0.28120422 -0.48716164 -0.34326172 -0.9384537q-0.07557678 -0.44348145 0.040924072 -0.835474q0.11651611 -0.39199162 0.37670898 -0.7225914q0.28153992 -0.3248787 0.6739807 -0.55140114zm30.697052 16.360958l-3.515152 -6.0895157l-17.565125 10.138807l-1.4060516 -2.4358063l17.565125 -10.138807l-3.515152 -6.0895157l2.1381226 -1.2341528l8.436371 14.614837l-2.1381378 1.2341537zm-7.454941 14.839094q0.9821472 -0.5488663 1.6437073 -0.84051514q0.67507935 -0.29946136 1.2872314 -0.36414337q0.62568665 -0.07249451 1.3065948 0.07570648q0.69444275 0.14038849 1.7075195 0.4576912q0.7392273 0.18671036 1.5133209 0.37132645q0.7819214 0.19815063 1.5497437 0.27814484q0.7891693 0.08571243 1.5465546 -0.008674622q0.75737 -0.094387054 1.4340057 -0.4849434q1.4750366 -0.8514099 1.7542725 -2.1491737q0.29275513 -1.3055763 -0.6211853 -2.8888512q-0.36715698 -0.63601685 -0.8810425 -1.1512337q-0.49256897 -0.5094986 -1.1042786 -0.7878494q-0.59036255 -0.27262878 -1.2686462 -0.25998306q-0.6647339 0.0048332214 -1.3684235 0.41100693l-1.4451141 -2.5034676q1.1445312 -0.6425972 2.316803 -0.7058449q1.1722565 -0.06324768 2.2400055 0.3487816q1.0890961 0.4177475 2.0231476 1.2857971q0.9554138 0.87377167 1.6662598 2.1052055q0.78897095 1.3667603 1.0542297 2.638897q0.28659058 1.2778587 0.053131104 2.4048767q-0.23345947 1.127018 -0.9541931 2.0662308q-0.72073364 0.939209 -1.9386597 1.6422081q-0.9743347 0.5624008 -2.0357056 0.72400284q-1.047821 0.15379333 -2.123825 0.07126999q-1.0624695 -0.090335846 -2.108307 -0.37067413q-1.0380402 -0.26680374 -1.9735413 -0.5747528q-0.6267853 -0.17944717 -1.1114349 -0.20640564q-0.4768219 -0.013427734 -0.9046936 0.089214325q-0.42785645 0.10264206 -0.86299133 0.3177185q-0.42160034 0.20727158 -0.9493561 0.51190186l-1.4451294 -2.5034676zm-4.3996887 2.160698q0.6495514 -0.37493515 1.3013153 -0.24598694q0.65956116 0.14248276 1.1048126 0.9138222q0.44526672 0.7713356 0.23875427 1.4137268q-0.19869995 0.65592194 -0.84825134 1.0308571q-0.62249756 0.35931015 -1.2763519 0.19548798q-0.6460266 -0.15029144 -1.0912781 -0.92163086q-0.44525146 -0.7713394 -0.25228882 -1.4059181q0.2007904 -0.621048 0.82328796 -0.9803581zm32.66211 14.1081505l-13.327393 7.7288094q-1.3959045 0.7696686 -2.873703 0.9912262q-1.4777985 0.22155762 -2.876587 -0.1076355q-1.3852692 -0.336998 -2.5926208 -1.209671q-1.1938324 -0.88048553 -2.0062256 -2.2878342q-0.8280182 -1.4344254 -0.9933777 -2.908554q-0.1653595 -1.4741249 0.24346924 -2.828659q0.42236328 -1.3623428 1.353363 -2.5311584q0.94451904 -1.1766281 2.3170166 -1.9868927l13.358627 -7.674679l1.3748169 2.3816757l-13.311768 7.7558746q-0.87179565 0.5212517 -1.5353241 1.2470322q-0.65571594 0.7393112 -0.996994 1.5857811q-0.33348083 0.8600044 -0.29057312 1.8094559q0.050720215 0.9629898 0.6053467 1.9237747q0.5546112 0.96079254 1.3417969 1.4806366q0.8007355 0.51203156 1.7044373 0.6398773q0.9250488 0.13357544 1.8854065 -0.07798004q0.9603729 -0.21154785 1.8556061 -0.69220734l13.366425 -7.661148l1.3982544 2.4222755zm-9.06189 16.993443q0.9821472 -0.5488663 1.6437073 -0.84051514q0.67507935 -0.29946136 1.2872314 -0.364151q0.6256714 -0.07249451 1.3066101 0.07570648q0.6944275 0.14039612 1.707489 0.457695q0.7392273 0.18670654 1.5133362 0.37133026q0.7819214 0.19815063 1.5497437 0.2781372q0.7891846 0.08571625 1.5465393 -0.008674622q0.75738525 -0.09438324 1.434021 -0.48493958q1.4750366 -0.8514099 1.754242 -2.14917q0.29278564 -1.3055801 -0.6211548 -2.888855q-0.36715698 -0.63601685 -0.8810425 -1.1512299q-0.4925537 -0.5094986 -1.1042786 -0.7878494q-0.59036255 -0.2726364 -1.2686462 -0.25998688q-0.6647339 0.0048294067 -1.3684387 0.41101074l-1.4450989 -2.5034714q1.1445312 -0.642601 2.316803 -0.7058487q1.1722412 -0.06324005 2.2399902 0.3487854q1.0891113 0.4177475 2.0231628 1.2857971q0.9554138 0.87377167 1.6662598 2.1052094q0.78897095 1.3667526 1.0542297 2.6388931q0.28659058 1.2778549 0.053131104 2.4048767q-0.23345947 1.1270142 -0.9541931 2.0662308q-0.72073364 0.939209 -1.9386597 1.6422119q-0.9743347 0.5624008 -2.0357056 0.723999q-1.047821 0.15379333 -2.1238403 0.071266174q-1.062439 -0.09033203 -2.108307 -0.3706665q-1.0380249 -0.26680756 -1.9735413 -0.57476044q-0.62677 -0.17944336 -1.1114197 -0.20640564q-0.47683716 -0.013427734 -0.9046936 0.08921814q-0.42785645 0.102638245 -0.8630066 0.3177185q-0.42156982 0.20726776 -0.9493408 0.51190186l-1.4451294 -2.5034637zm-4.3996887 2.1606903q0.64953613 -0.37493134 1.3013 -0.24597931q0.6595764 0.14247894 1.1048279 0.91381836q0.44525146 0.7713394 0.23873901 1.4137268q-0.19866943 0.65592194 -0.8482361 1.0308533q-0.62249756 0.35931396 -1.2763367 0.19548798q-0.6460571 -0.15029144 -1.0913086 -0.92163086q-0.44525146 -0.7713318 -0.2522583 -1.4059143q0.20077515 -0.621048 0.8232727 -0.98036194z" fill-rule="nonzero"/></g></svg>