<svg version="1.1" viewBox="0.0 0.0 487.54330708661416 462.8582677165354" fill="none" stroke="none" stroke-linecap="square" stroke-miterlimit="10" xmlns:xlink="http://www.w3.org/1999/xlink" xmlns="http://www.w3.org/2000/svg"><clipPath id="p.0"><path d="m0 0l487.5433 0l0 462.85828l-487.5433 0l0 -462.85828z" clip-rule="nonzero"/></clipPath><g clip-path="url(#p.0)"><path fill="#000000" fill-opacity="0.0" d="m0 0l487.5433 0l0 462.85828l-487.5433 0z" fill-rule="evenodd"/><path fill="#000000" fill-opacity="0.0" d="m202.73857 13.415124l144.15749 249.76376l-54.456696 31.433075l-144.15749 -249.76378z" fill-rule="evenodd"/><path fill="#000000" d="m200.48666 41.710842l-1.726181 -2.9907188l-22.626251 13.060158l1.7261658 2.9907188l-2.0569305 1.1872902l-3.093048 -5.35894l26.740128 -15.434731l3.093048 5.3589363l-2.0569305 1.1872864zm-4.119995 21.55582l-2.2729187 -3.9380074l-8.038284 4.6397934l-1.4371796 -2.4900131l19.703262 -11.372959l3.3351746 5.77845q0.76963806 1.3959541 1.1072235 2.8247948q0.33758545 1.4288406 0.13015747 2.757328q-0.19963074 1.342022 -1.0124817 2.4967728q-0.7915039 1.1604767 -2.280075 2.019699q-0.9608154 0.5545883 -1.9232483 0.7312546q-0.9546356 0.1902008 -1.885376 0.07795715q-0.93074036 -0.11224365 -1.8219757 -0.4998703q-0.89123535 -0.38761902 -1.711731 -0.9964905l-6.0036774 9.0401l-0.17019653 0.080200195l-1.5230865 -2.6388702l5.804413 -8.510139zm-0.21598816 -5.1252937l1.9370575 3.356102q0.49780273 0.8312149 1.1709747 1.4349136q0.68670654 0.5958824 1.4805756 0.8773346q0.8016968 0.29498672 1.6657715 0.22921371q0.87760925 -0.073581696 1.770752 -0.58911514q0.9472656 -0.5467758 1.4713135 -1.2642059q0.53756714 -0.7252388 0.69096375 -1.5534668q0.16693115 -0.8360405 -0.034698486 -1.7480011q-0.19381714 -0.8984299 -0.703598 -1.8129311l-1.8980103 -3.288437l-7.5511017 4.358593zm13.040375 25.812923l-4.733307 -8.200806l-8.70137 5.022537l-1.4606018 -2.5306091l19.703262 -11.372955l6.982788 12.098206l-2.1381378 1.2341537l-5.522171 -9.567596l-6.7391663 3.889923l4.7332916 8.200798l-2.124588 1.2263489zm4.5137177 21.948578q-2.1800842 -0.40140533 -3.8132477 -1.6056137q-1.6331635 -1.2042084 -2.7287598 -3.1336594q-0.6894226 -1.2257538 -0.9311981 -2.4573288q-0.22042847 -1.2258453 -0.0665741 -2.3971176q0.16737366 -1.1790848 0.6684418 -2.2801514q0.50105286 -1.1010742 1.2467957 -2.0907898q0.7670746 -0.9840088 1.7247009 -1.8254166q0.9789734 -0.83568573 2.0808258 -1.4897308l2.2869873 -1.320076q1.1039276 -0.6191635 2.2880707 -1.0681305q1.2054749 -0.4432373 2.425583 -0.64234924q1.2200928 -0.19910431 2.4006958 -0.12283325q1.1941223 0.06846619 2.269638 0.49404907q1.0968628 0.43130493 2.0402222 1.2218246q0.94337463 0.7905197 1.6619568 2.0355225q0.79670715 1.380333 1.0353851 2.794098q0.25221252 1.4059525 -0.046310425 2.7329025q-0.28500366 1.31913 -1.1035767 2.495224q-0.80503845 1.1682892 -2.1150513 2.0868149l-1.4293671 -2.4764786q0.7666321 -0.6409607 1.3041992 -1.3662033q0.5511017 -0.7330475 0.7685394 -1.5441132q0.22523499 -0.7975311 0.103256226 -1.6652603q-0.108444214 -0.8755417 -0.64738464 -1.8092957q-0.5155029 -0.89315796 -1.2250977 -1.4036713q-0.6960602 -0.5183182 -1.5071106 -0.73574066q-0.81103516 -0.21742249 -1.6964569 -0.15737152q-0.8718872 0.052238464 -1.7546844 0.27313995q-0.882782 0.22089386 -1.7223511 0.5792084q-0.83955383 0.35832214 -1.5702972 0.78012085l-2.3140564 1.3356934q-0.7364807 0.44314575 -1.4723969 1.0122604q-0.71458435 0.57483673 -1.3318176 1.2558517q-0.617218 0.6810074 -1.0751495 1.4504776q-0.45791626 0.7694702 -0.66752625 1.5940628q-0.20181274 0.83812714 -0.106903076 1.7214813q0.108444214 0.8755493 0.61042786 1.7765121q0.28326416 0.5220566 0.65763855 1.0456467q0.3821869 0.53713226 0.8491821 0.9711685q0.4670105 0.43404388 1.0032196 0.7379303q0.5497589 0.29608154 1.1759644 0.3495636l4.440735 -2.5271606l-2.311966 -4.0056763l2.1110535 -1.2185287l3.686676 6.3874207l-7.2029114 4.2117233zm23.979263 -4.495819l3.1008606 5.372467l-26.740128 15.434731l-3.1008606 -5.372467l2.0569305 -1.1872864l1.7339783 3.0042496l22.626266 -13.060158l-1.7339783 -3.0042496l2.0569305 -1.1872864zm-5.2958527 24.363396q1.9351349 -1.1169891 3.8120575 -1.8034668q1.8847351 -0.67295074 3.6295166 -0.9944992q1.758316 -0.32935333 3.3454285 -0.36144257q1.5949249 -0.018554688 2.9504547 0.17324829q1.363327 0.2053299 2.456009 0.5668793q1.0926666 0.361557 1.8621216 0.8194809l-1.346344 1.4807281q-1.120285 -0.47190857 -2.7006836 -0.6782303q-1.572586 -0.1927948 -3.5250702 0.050186157q-1.9311523 0.24871063 -4.21669 1.0086746q-2.2641907 0.76568604 -4.794754 2.2263565l-0.18945312 0.10935974q-2.5305634 1.4606781 -4.3396454 3.0461273q-1.8012695 1.598999 -2.9961243 3.1546478q-1.1870422 1.5691833 -1.8202515 3.0351868q-0.638916 1.4873505 -0.83128357 2.7169342l-1.833786 0.35487366q-0.011627197 -0.89533997 0.21406555 -2.0359192q0.2199707 -1.1192169 0.73765564 -2.4102936q0.51194763 -1.2697296 1.3258057 -2.6415558q0.808136 -1.3504791 1.9593048 -2.7005005q1.1725006 -1.3443146 2.697937 -2.6397705q1.5332642 -1.2819061 3.468399 -2.3988953l0.1353302 -0.07810974zm25.694763 15.730316l-1.7261658 -2.9907227l-22.626282 13.060165l1.726181 2.9907227l-2.0569458 1.1872864l-3.093048 -5.3589325l26.740128 -15.434738l3.093048 5.3589325l-2.0569153 1.1872864zm4.225403 9.071274l1.3044128 2.2599487l-16.645905 20.577225l-1.3043823 -2.259964l16.645874 -20.57721zm9.599396 16.631653l1.3043823 2.2599487l-16.645874 20.577225l-1.3043976 -2.259964l16.64589 -20.57721zm-10.697479 26.976135l19.703247 -11.372971l2.6322021 4.5605164q1.1601562 2.072586 1.4130249 4.073532q0.27420044 2.006668 -0.28970337 3.8115234q-0.542572 1.8105927 -1.8847351 3.361084q-1.3208313 1.5561981 -3.3428955 2.741394l-1.4479675 0.8357849q-2.0376587 1.1581268 -4.0593567 1.5312653q-2.0003662 0.37886047 -3.8530273 -0.04916382q-1.8313599 -0.42230225 -3.4452515 -1.6556549q-1.5925598 -1.2276459 -2.793335 -3.2768097l-2.6322021 -4.560501zm19.114716 -7.6415405l-15.602905 9.006195l1.1637878 2.0163727q0.9352112 1.5890503 2.1482239 2.4404144q1.2265625 0.84355164 2.6112366 1.0546112q1.392456 0.22457886 2.8889465 -0.15209961q1.5042725 -0.36312866 3.0141907 -1.216629l1.4750366 -0.8514099q1.4942932 -0.88056946 2.547638 -1.9937286q1.0668945 -1.1209717 1.5632324 -2.4177551q0.5098572 -1.3046112 0.37945557 -2.7808685q-0.13043213 -1.4762573 -1.0250244 -3.0887299l-1.1638184 -2.0163727zm14.955322 14.658691l3.1008606 5.372467l-26.740112 15.434738l-3.1008606 -5.3724823l2.0569153 -1.1872864l1.7339783 3.0042572l22.626282 -13.06015l-1.7339783 -3.0042572l2.0569153 -1.1872864zm-1.5882874 31.099579q-1.9351501 1.1169891 -3.8198853 1.7899323q-1.8769226 0.68647766 -3.6352234 1.0158386q-1.7447815 0.32154846 -3.3261719 0.33229065q-1.5871277 0.032089233 -2.95047 -0.17324829q-1.3690491 -0.18399048 -2.4559937 -0.5668793q-1.0926819 -0.361557 -1.8621216 -0.81947327l1.2245483 -1.4104309q1.1067505 0.4797058 2.7063904 0.65689087q1.5939331 0.19850159 3.5521545 -0.065826416q1.9660034 -0.25079346 4.257263 -1.0321045q2.2990723 -0.7677765 4.829651 -2.2284393l0.18945312 -0.10935974q2.530548 -1.4606781 4.337555 -3.081009q1.8205261 -1.6281433 3.0054626 -3.2322083q1.2062988 -1.5983429 1.839508 -3.0643463q0.6410217 -1.4524689 0.81829834 -2.5831451l1.8338013 -0.35487366q0.011627197 0.89533997 -0.22189331 2.0223846q-0.22567749 1.140564 -0.7376404 2.4102936q-0.5041504 1.2832642 -1.3258057 2.6415558q-0.8138733 1.3718262 -1.9785461 2.72966q-1.1511841 1.3500366 -2.6844177 2.6319427q-1.5254517 1.2954559 -3.4606018 2.412445l-0.13531494 0.07810974zm16.61325 1.4337463l1.3043823 2.259964l-16.645905 20.57721l-1.3043823 -2.259964l16.645905 -20.57721zm-5.862671 35.35286l-1.4449768 -2.50354l16.509613 -9.529541l-4.9381104 -4.023346l2.2869873 -1.3200684l7.1726074 5.800537l0.11715698 0.20300293l-19.703278 11.372955z" fill-rule="nonzero"/><path fill="#000000" fill-opacity="0.0" d="m11.551181 337.96063l273.7638 0l0 62.897644l-273.7638 0z" fill-rule="evenodd"/><path fill="#000000" d="m58.72121 354.05563l-3.453125 0l0 26.125l3.453125 0l0 2.375l-6.1875 0l0 -30.875l6.1875 0l0 2.375zm12.453121 10.859375l2.0625 0q1.09375 0 1.921875 -0.296875q0.84375 -0.296875 1.40625 -0.8125q0.578125 -0.515625 0.875 -1.234375q0.296875 -0.71875 0.296875 -1.578125q0 -1.984375 -1.015625 -2.984375q-1.015625 -1.015625 -2.96875 -1.015625q-0.921875 0 -1.6875 0.28125q-0.75 0.265625 -1.296875 0.78125q-0.53125 0.515625 -0.828125 1.234375q-0.296875 0.71875 -0.296875 1.609375l-2.90625 0q0 -1.296875 0.5 -2.4375q0.515625 -1.15625 1.4375 -2.0q0.921875 -0.859375 2.203125 -1.34375q1.296875 -0.5 2.875 -0.5q1.53125 0 2.796875 0.421875q1.265625 0.40625 2.171875 1.21875q0.90625 0.8125 1.40625 2.015625q0.5 1.203125 0.5 2.78125q0 0.65625 -0.203125 1.359375q-0.203125 0.703125 -0.625 1.375q-0.421875 0.65625 -1.09375 1.25q-0.65625 0.578125 -1.578125 0.96875q1.109375 0.359375 1.84375 0.9375q0.75 0.578125 1.1875 1.296875q0.453125 0.71875 0.625 1.515625q0.1875 0.796875 0.1875 1.578125q0 1.59375 -0.546875 2.828125q-0.546875 1.234375 -1.515625 2.09375q-0.96875 0.84375 -2.296875 1.296875q-1.3125 0.4375 -2.84375 0.4375q-1.5 0 -2.828125 -0.421875q-1.3125 -0.421875 -2.28125 -1.234375q-0.96875 -0.8125 -1.546875 -1.984375q-0.5625 -1.171875 -0.5625 -2.671875l2.890625 0q0 0.890625 0.296875 1.625q0.3125 0.734375 0.875 1.25q0.5625 0.515625 1.359375 0.796875q0.8125 0.28125 1.796875 0.28125q0.984375 0 1.78125 -0.25q0.796875 -0.265625 1.359375 -0.796875q0.5625 -0.53125 0.859375 -1.3125q0.3125 -0.796875 0.3125 -1.875q0 -1.0625 -0.359375 -1.828125q-0.34375 -0.78125 -0.984375 -1.296875q-0.625 -0.515625 -1.53125 -0.765625q-0.890625 -0.25 -1.96875 -0.25l-2.0625 0l0 -2.34375zm27.546875 5.125l3.171875 0l0 2.359375l-3.171875 0l0 5.28125l-2.890625 0l0 -5.28125l-10.375 0l0 -1.703125l10.1875 -15.765625l3.078125 0l0 15.109375zm-10.0625 0l7.171875 0l0 -11.265625l-0.46875 0.875l-6.703125 10.390625zm28.40625 1.75l-7.59375 0l-1.828125 5.890625l-2.890625 0l7.34375 -22.75l2.421875 0l7.21875 22.75l-2.875 0l-1.796875 -5.890625zm-6.8125 -2.515625l6.046875 0l-3.0 -9.875l-3.046875 9.875zm15.125 8.40625l0 -22.75l6.765625 0q1.40625 0.015625 2.75 0.375q1.34375 0.34375 2.390625 1.078125q1.046875 0.734375 1.671875 1.875q0.625 1.140625 0.609375 2.734375q-0.015625 0.890625 -0.296875 1.625q-0.265625 0.734375 -0.75 1.328125q-0.46875 0.578125 -1.109375 1.015625q-0.640625 0.4375 -1.359375 0.75q0.90625 0.265625 1.65625 0.765625q0.765625 0.484375 1.3125 1.1875q0.546875 0.6875 0.84375 1.5625q0.3125 0.875 0.3125 1.890625q0.015625 1.59375 -0.609375 2.8125q-0.625 1.21875 -1.671875 2.046875q-1.046875 0.8125 -2.421875 1.25q-1.359375 0.4375 -2.8125 0.453125l-7.28125 0zm2.90625 -10.640625l0 8.1875l4.453125 0q0.90625 -0.015625 1.71875 -0.296875q0.8125 -0.296875 1.4375 -0.8125q0.625 -0.515625 0.984375 -1.265625q0.375 -0.75 0.375 -1.703125q0.015625 -0.96875 -0.328125 -1.71875q-0.328125 -0.75 -0.921875 -1.265625q-0.59375 -0.53125 -1.390625 -0.8125q-0.796875 -0.28125 -1.71875 -0.3125l-4.609375 0zm0 -2.40625l4.03125 0q0.8125 -0.015625 1.59375 -0.25q0.78125 -0.25 1.390625 -0.703125q0.609375 -0.46875 0.984375 -1.140625q0.375 -0.671875 0.375 -1.5625q0 -0.953125 -0.375 -1.625q-0.359375 -0.671875 -0.984375 -1.09375q-0.609375 -0.4375 -1.421875 -0.640625q-0.796875 -0.203125 -1.640625 -0.21875l-3.953125 0l0 7.234375zm31.0625 6.203125q-0.203125 1.578125 -0.8125 2.90625q-0.609375 1.3125 -1.59375 2.265625q-0.96875 0.9375 -2.3125 1.46875q-1.328125 0.515625 -2.96875 0.515625q-1.40625 0 -2.5625 -0.390625q-1.140625 -0.40625 -2.046875 -1.109375q-0.890625 -0.703125 -1.546875 -1.65625q-0.640625 -0.953125 -1.078125 -2.078125q-0.421875 -1.125 -0.640625 -2.359375q-0.203125 -1.234375 -0.21875 -2.5l0 -3.171875q0.015625 -1.265625 0.21875 -2.5q0.21875 -1.234375 0.640625 -2.359375q0.4375 -1.125 1.078125 -2.078125q0.65625 -0.96875 1.546875 -1.671875q0.90625 -0.703125 2.046875 -1.09375q1.140625 -0.40625 2.5625 -0.40625q1.703125 0 3.046875 0.53125q1.34375 0.515625 2.3125 1.484375q0.96875 0.953125 1.546875 2.296875q0.59375 1.34375 0.78125 2.96875l-2.890625 0q-0.140625 -1.03125 -0.484375 -1.921875q-0.34375 -0.890625 -0.921875 -1.5625q-0.578125 -0.671875 -1.421875 -1.046875q-0.828125 -0.390625 -1.96875 -0.390625q-1.03125 0 -1.828125 0.34375q-0.78125 0.328125 -1.359375 0.90625q-0.5625 0.578125 -0.953125 1.34375q-0.375 0.765625 -0.609375 1.625q-0.234375 0.859375 -0.34375 1.765625q-0.09375 0.890625 -0.09375 1.734375l0 3.203125q0 0.84375 0.09375 1.75q0.109375 0.890625 0.34375 1.765625q0.234375 0.859375 0.609375 1.625q0.375 0.765625 0.953125 1.359375q0.578125 0.578125 1.359375 0.921875q0.78125 0.328125 1.828125 0.328125q1.140625 0 1.96875 -0.359375q0.84375 -0.359375 1.421875 -1.0q0.578125 -0.65625 0.921875 -1.53125q0.34375 -0.890625 0.484375 -1.921875l2.890625 0zm4.171875 6.84375l0 -22.75l5.265625 0q2.375 0.03125 4.234375 0.8125q1.875 0.765625 3.15625 2.15625q1.296875 1.375 1.96875 3.3125q0.6875 1.921875 0.703125 4.265625l0 1.671875q-0.015625 2.34375 -0.703125 4.28125q-0.671875 1.921875 -1.96875 3.3125q-1.28125 1.375 -3.15625 2.15625q-1.859375 0.765625 -4.234375 0.78125l-5.265625 0zm2.9375 -20.375l0 18.015625l2.328125 0q1.84375 -0.015625 3.1875 -0.640625q1.34375 -0.640625 2.21875 -1.734375q0.890625 -1.09375 1.3125 -2.578125q0.4375 -1.484375 0.453125 -3.21875l0 -1.703125q-0.015625 -1.734375 -0.453125 -3.203125q-0.4375 -1.484375 -1.3125 -2.5625q-0.875 -1.09375 -2.21875 -1.71875q-1.34375 -0.625 -3.1875 -0.65625l-2.328125 0zm20.171875 -5.625l6.203125 0l0 30.875l-6.203125 0l0 -2.375l3.46875 0l0 -26.125l-3.46875 0l0 -2.375zm21.265625 15.328125l-5.890625 -1.5l0.84375 -2.734375l5.703125 2.359375l-0.390625 -6.578125l2.78125 0l-0.453125 6.671875l5.671875 -2.34375l0.84375 2.78125l-5.96875 1.46875l4.0 5.0625l-2.28125 1.71875l-3.34375 -5.671875l-3.3125 5.53125l-2.28125 -1.65625l4.078125 -5.109375zm14.421875 -12.078125l2.609375 0l9.5 24.703125l-2.609375 0l-9.5 -24.703125zm26.6875 10.546875l6.359375 0l0 2.875l-6.359375 0l0 7.046875l-2.890625 0l0 -7.046875l-6.34375 0l0 -2.875l6.34375 0l0 -6.640625l2.890625 0l0 6.640625zm19.20314 0l6.359375 0l0 2.875l-6.359375 0l0 7.046875l-2.890625 0l0 -7.046875l-6.34375 0l0 -2.875l6.34375 0l0 -6.640625l2.890625 0l0 6.640625z" fill-rule="nonzero"/><path fill="#000000" fill-opacity="0.0" d="m52.984253 277.16534l232.34647 0l0 62.897644l-232.34647 0z" fill-rule="evenodd"/><path fill="#000000" d="m128.28383 307.65097q0 -2.234375 0.34375 -4.203125q0.359375 -1.96875 0.953125 -3.640625q0.59375 -1.6875 1.359375 -3.078125q0.78125 -1.390625 1.625 -2.46875q0.859375 -1.078125 1.71875 -1.84375q0.859375 -0.765625 1.640625 -1.203125l0.609375 1.90625q-0.96875 0.734375 -1.9375 2.0q-0.953125 1.265625 -1.71875 3.078125q-0.75 1.796875 -1.234375 4.15625q-0.46875 2.34375 -0.46875 5.265625l0 0.21875q0 2.921875 0.46875 5.28125q0.484375 2.359375 1.234375 4.171875q0.765625 1.8125 1.71875 3.09375q0.96875 1.296875 1.9375 2.078125l-0.609375 1.765625q-0.78125 -0.4375 -1.65625 -1.203125q-0.859375 -0.75 -1.71875 -1.84375q-0.84375 -1.078125 -1.625 -2.46875q-0.765625 -1.375 -1.359375 -3.046875q-0.578125 -1.6875 -0.9375 -3.65625q-0.34375 -1.96875 -0.34375 -4.203125l0 -0.15625zm17.234375 -13.515625l2.609375 0l9.5 24.703125l-2.609375 0l-9.5 -24.703125zm18.015625 22.75l0 -22.75l5.265625 0q2.375 0.03125 4.234375 0.8125q1.875 0.765625 3.15625 2.15625q1.296875 1.375 1.96875 3.3125q0.6875 1.921875 0.703125 4.265625l0 1.671875q-0.015625 2.34375 -0.703125 4.28125q-0.671875 1.921875 -1.96875 3.3125q-1.28125 1.375 -3.15625 2.15625q-1.859375 0.765625 -4.234375 0.78125l-5.265625 0zm2.9375 -20.375l0 18.015625l2.328125 0q1.84375 -0.015625 3.1875 -0.640625q1.34375 -0.640625 2.21875 -1.734375q0.890625 -1.09375 1.3125 -2.578125q0.4375 -1.484375 0.453125 -3.21875l0 -1.703125q-0.015625 -1.734375 -0.453125 -3.203125q-0.4375 -1.484375 -1.3125 -2.5625q-0.875 -1.09375 -2.21875 -1.71875q-1.34375 -0.625 -3.1875 -0.65625l-2.328125 0zm27.109375 11.296875q0 2.234375 -0.359375 4.203125q-0.34375 1.96875 -0.9375 3.65625q-0.59375 1.671875 -1.375 3.046875q-0.765625 1.390625 -1.625 2.46875q-0.84375 1.09375 -1.71875 1.84375q-0.859375 0.765625 -1.640625 1.203125l-0.609375 -1.765625q0.96875 -0.71875 1.921875 -2.015625q0.96875 -1.28125 1.71875 -3.109375q0.765625 -1.828125 1.234375 -4.203125q0.484375 -2.375 0.484375 -5.296875l0 -0.21875q0 -2.921875 -0.5 -5.296875q-0.5 -2.390625 -1.296875 -4.21875q-0.78125 -1.84375 -1.734375 -3.125q-0.9375 -1.28125 -1.828125 -2.0l0.609375 -1.765625q0.78125 0.4375 1.640625 1.203125q0.875 0.765625 1.71875 1.84375q0.859375 1.078125 1.625 2.46875q0.78125 1.390625 1.375 3.078125q0.59375 1.671875 0.9375 3.640625q0.359375 1.96875 0.359375 4.203125l0 0.15625zm9.546875 -13.671875l2.609375 0l9.5 24.703125l-2.609375 0l-9.5 -24.703125zm27.6875 22.75l-2.890625 0l0 -19.0625l-5.953125 2.265625l0 -2.640625l8.609375 -3.3125l0.234375 0l0 22.75zm10.71875 -22.75l2.609375 0l9.5 24.703125l-2.609375 0l-9.5 -24.703125zm18.01561 22.75l0 -22.75l5.265625 0q2.375 0.03125 4.234375 0.8125q1.875 0.765625 3.15625 2.15625q1.296875 1.375 1.96875 3.3125q0.6875 1.921875 0.703125 4.265625l0 1.671875q-0.015625 2.34375 -0.703125 4.28125q-0.671875 1.921875 -1.96875 3.3125q-1.28125 1.375 -3.15625 2.15625q-1.859375 0.765625 -4.234375 0.78125l-5.265625 0zm2.9375 -20.375l0 18.015625l2.328125 0q1.84375 -0.015625 3.1875 -0.640625q1.34375 -0.640625 2.21875 -1.734375q0.890625 -1.09375 1.3125 -2.578125q0.4375 -1.484375 0.453125 -3.21875l0 -1.703125q-0.015625 -1.734375 -0.453125 -3.203125q-0.4375 -1.484375 -1.3125 -2.5625q-0.875 -1.09375 -2.21875 -1.71875q-1.34375 -0.625 -3.1875 -0.65625l-2.328125 0z" fill-rule="nonzero"/><path fill="#000000" fill-opacity="0.0" d="m255.8214 -19.34642l156.88188 271.77954l-54.456696 31.433075l-156.88188 -271.77954z" fill-rule="evenodd"/><path fill="#000000" d="m275.88303 47.602627l-1.7263184 -2.990635l-22.626266 13.060158l1.7263031 2.990635l-2.0569305 1.1872902l-3.0933075 -5.3587914l26.740143 -15.434731l3.0932922 5.3587875l-2.0569153 1.1872864zm3.7805786 8.299686l6.8740234 11.908424l-2.1787415 1.2575836l-2.7261658 -4.7227707l-15.3593445 8.865601l2.7261658 4.7227707l-2.1651917 1.2497711l-6.873993 -11.908417l2.1651917 -1.2497787l2.6636658 4.614517l15.3593445 -8.865601l-2.6636658 -4.6145134l2.178711 -1.2575874zm1.7002869 29.886925l-2.2731018 -3.9378967l-8.038269 4.6397934l-1.4373169 -2.4899445l19.703278 -11.372955l3.3354492 5.77829q0.76968384 1.3959122 1.1073303 2.8247223q0.33764648 1.4288025 0.13027954 2.7572632q-0.19958496 1.3420029 -1.0124207 2.4967346q-0.7914734 1.1604614 -2.2800598 2.0196838q-0.9608154 0.5545883 -1.9232483 0.7312622q-0.9546509 0.19020844 -1.8854065 0.07798004q-0.93078613 -0.11222839 -1.822052 -0.49983215q-0.89126587 -0.38760376 -1.711792 -0.99645233l-6.003479 9.039978l-0.17019653 0.080200195l-1.5232239 -2.638794l5.8042297 -8.510033zm-0.21618652 -5.125183l1.9372253 3.3560104q0.49783325 0.831192 1.171051 1.4348679q0.68673706 0.59586334 1.4806519 0.87729645q0.8017273 0.29496765 1.665802 0.22918701q0.8776245 -0.07358551 1.7707825 -0.58911896q0.9472656 -0.5467758 1.471283 -1.2641983q0.53756714 -0.72522736 0.6909485 -1.5534439q0.16690063 -0.8360214 -0.03475952 -1.747963q-0.19387817 -0.898407 -0.70370483 -1.8128815l-1.8981628 -3.288353l-7.551117 4.358597zm-2.1354065 19.616486l19.703247 -11.372955l2.6324463 4.560379q1.1602478 2.0725327 1.4131775 4.073433q0.274292 2.0066147 -0.2895813 3.8114548q-0.542511 1.8105545 -1.8846436 3.361023q-1.3207703 1.5561829 -3.3428345 2.7413788l-1.4479675 0.83579254q-2.0376892 1.1581345 -4.0594177 1.5312881q-2.0003662 0.37887573 -3.853119 -0.049118042q-1.8313904 -0.42227173 -3.4453735 -1.6555939q-1.5926514 -1.2276001 -2.7934875 -3.2766953l-2.6324463 -4.5603867zm19.114868 -7.6416016l-15.602936 9.006203l1.1639099 2.0163116q0.9352722 1.5889969 2.148346 2.4403305q1.226593 0.8435211 2.6113281 1.0545578q1.3925171 0.2245636 2.8890076 -0.1521225q1.504303 -0.36315155 3.0142212 -1.2166519l1.4750366 -0.8514099q1.4942627 -0.8805618 2.5476074 -1.9937057q1.066864 -1.120964 1.5631714 -2.4177399q0.50982666 -1.3045807 0.379364 -2.7807999q-0.13049316 -1.4762268 -1.025177 -3.0886612l-1.1638794 -2.0163116zm14.956177 14.658203l3.1011047 5.372322l-26.740143 15.434723l-3.1011047 -5.3723145l2.0569153 -1.1872864l1.7341309 3.0041656l22.626282 -13.060158l-1.7341309 -3.0041656l2.0569458 -1.1872864zm10.800568 23.461449l-1.7263184 -2.9906387l-22.626251 13.060158l1.7263184 2.990631l-2.0569458 1.1872864l-3.0932922 -5.35878l26.740143 -15.434738l3.0932922 5.358795l-2.0569458 1.1872864zm-11.23584 27.792023l-1.4450989 -2.503479l16.509613 -9.529541l-4.9383545 -4.0231934l2.2869873 -1.3200836l7.172943 5.800354l0.1171875 0.20297241l-19.703278 11.372971zm17.656647 5.053116l1.0310974 1.7862701q0.54678345 0.94725037 1.217926 1.5160522q0.67892456 0.5823364 1.4067078 0.81173706q0.7355957 0.24291992 1.5065002 0.14073181q0.77090454 -0.10220337 1.5151978 -0.5318146q1.7185974 -0.9920044 2.0769348 -2.371521q0.3718872 -1.3873138 -0.6045227 -3.0788574q-0.46087646 -0.7984009 -1.0872192 -1.3208771q-0.605011 -0.5167694 -1.3249817 -0.7326355q-0.7121582 -0.20233154 -1.4830627 -0.100128174q-0.77090454 0.10218811 -1.5422668 0.5474243l-1.4529114 -2.5169983q1.1231995 -0.6483307 2.361023 -0.7855072q1.2591858 -0.13145447 2.4508057 0.2451477q1.2051697 0.36880493 2.2651978 1.2362976q1.0813904 0.87323 1.8703308 2.2399902q0.76553345 1.3261719 1.0328674 2.6331787q0.2808838 1.2992096 0.03024292 2.490265q-0.25061035 1.19104 -1.0426636 2.2255402q-0.7920227 1.0344849 -2.1588135 1.82341q-0.5683594 0.32806396 -1.2788696 0.5036316q-0.71051025 0.17558289 -1.5032959 0.14608765q-0.7792969 -0.03730774 -1.6293945 -0.32237244q-0.8287964 -0.27934265 -1.6279602 -0.8824768q0.24334717 1.1404572 0.10977173 2.0654907q-0.12573242 0.93855286 -0.5295105 1.6767731q-0.39596558 0.7517395 -1.0002136 1.2989655q-0.596405 0.56074524 -1.2730408 0.9513092q-1.38031 0.7967377 -2.7227478 0.9401703q-1.3424683 0.14344788 -2.5710754 -0.26594543q-1.2150574 -0.41719055 -2.2714539 -1.3409119q-1.0350647 -0.9180145 -1.8005676 -2.2441711q-0.74990845 -1.2991028 -1.0484924 -2.6602478q-0.29077148 -1.3476105 -0.07141113 -2.5927887q0.21939087 -1.2451782 0.9453125 -2.3317108q0.7337036 -1.072998 2.032837 -1.8228607l1.4450989 2.503479q-0.7713623 0.44522095 -1.2589417 1.069458q-0.47982788 0.6377716 -0.6451721 1.3827057q-0.16537476 0.7449188 -0.010559082 1.5756683q0.16259766 0.84428406 0.6547241 1.6968231q0.49209595 0.8525238 1.1069946 1.4176941q0.6284485 0.5573578 1.369751 0.7789459q0.741333 0.22158813 1.5663452 0.088150024q0.846405 -0.12773132 1.7801208 -0.666687q0.92022705 -0.53115845 1.403656 -1.2251434q0.50476074 -0.68826294 0.631073 -1.5008545q0.13412476 -0.799057 -0.10241699 -1.7089081q-0.22872925 -0.8963165 -0.7677307 -1.8300476l-1.0310974 -1.7862701l2.0298767 -1.1716614zm9.332794 26.41948l1.5857239 2.747055l-2.043396 1.1794739l-1.5857239 -2.747055l-4.5739746 2.640152l-1.4450989 -2.503479l4.5739746 -2.640152l-5.1867676 -8.985443l1.4750671 -0.8514099l18.747253 0.94166565l1.5388489 2.665863l-13.085907 7.5533295zm-5.0305176 -8.714798l3.5854187 6.211319l9.756897 -5.6318054l-0.992157 0.031463623l-12.350159 -0.6109772zm27.652771 20.932571l-23.006134 2.4006195l-1.5154114 -2.6252594l22.205627 -1.9746552l-6.155365 -10.663452l2.1922607 -1.2653961l7.6864014 13.315781l-1.4073792 0.8123627zm-12.123993 16.126923q0.7733154 1.3396912 1.5892334 2.2218323q0.82943726 0.87431335 1.6921082 1.3686371q0.8704529 0.5078583 1.741394 0.67266846q0.88442993 0.15701294 1.7677917 0.062072754q0.9046936 -0.08920288 1.7754822 -0.3934021q0.8843384 -0.31199646 1.7332764 -0.747879q-0.5934448 -0.09043884 -1.2009888 -0.29904175q-0.59399414 -0.2164154 -1.169281 -0.58795166q-0.57528687 -0.37153625 -1.1126404 -0.9273529q-0.5159912 -0.5500946 -0.9534302 -1.3079071q-0.8436279 -1.4614868 -0.8923645 -2.8585968q-0.027374268 -1.3914032 0.5079651 -2.620514q0.5353699 -1.2291107 1.5252075 -2.2334442q0.98986816 -1.0043488 2.180725 -1.6917267q1.3938293 -0.8045349 2.8440247 -1.1364441q1.4714966 -0.32618713 2.829132 -0.09953308q1.3789978 0.2323761 2.5764465 1.0566406q1.218811 0.8299866 2.093689 2.3456116q0.65615845 1.1367188 0.8547363 2.230835q0.21990967 1.0998535 0.049926758 2.1180725q-0.1486206 1.0239258 -0.6309509 1.9698639q-0.46881104 0.93811035 -1.1822815 1.7648926q-0.6921387 0.832489 -1.5805359 1.543747q-0.87490845 0.70344543 -1.8492432 1.2658386l-0.9066467 0.52334595q-1.2585449 0.7264404 -2.6550293 1.3701324q-1.3829346 0.6358795 -2.8252869 0.98132324q-1.4345703 0.358963 -2.9056396 0.3421173q-1.45755 -0.024658203 -2.8709717 -0.5979767q-1.4134216 -0.5733185 -2.7463074 -1.7884827q-1.3328857 -1.2151642 -2.5123901 -3.258545l-0.1484375 -0.2571106l2.2328796 -1.2888336l0.14840698 0.2571106zm8.167755 -0.7274475q0.36712646 0.63601685 0.91381836 1.1142731q0.5680542 0.48397827 1.2359619 0.7659607q0.68927 0.28770447 1.4300537 0.38331604q0.76208496 0.10133362 1.5309143 -0.035736084l0.8119507 -0.46865845q1.3126526 -0.7576752 2.161438 -1.6625671q0.8566284 -0.8913574 1.2556763 -1.8252869q0.42037964 -0.92822266 0.40090942 -1.8370819q-0.011657715 -0.8953247 -0.45690918 -1.6666565q-0.50772095 -0.87960815 -1.2501526 -1.3531342q-0.7424011 -0.473526 -1.6383057 -0.58784485q-0.87454224 -0.1085968 -1.8676758 0.1399231q-0.97961426 0.2407074 -1.9539795 0.8031006q-0.86605835 0.49990845 -1.5801086 1.2007141q-0.70047 0.69299316 -1.1000671 1.5009613q-0.39178467 0.8215027 -0.41500854 1.7189178q-0.0018615723 0.9031372 0.5214844 1.8097992zm21.98108 6.0750275l3.1011047 5.3723145l-26.740143 15.434738l-3.1011047 -5.3723297l2.0569458 -1.1872864l1.7341309 3.004181l22.626251 -13.060165l-1.7341309 -3.0041656l2.0569458 -1.1872864zm-14.7378845 26.47583l19.703247 -11.372955l3.3823242 5.859482q0.68951416 1.225708 1.0500488 2.5691528q0.37405396 1.3356171 0.26138306 2.6094055q-0.1126709 1.2737885 -0.78808594 2.3852844q-0.67541504 1.111496 -2.0635376 1.8946991q-0.7791443 0.43170166 -1.5557861 0.5552368q-0.7687988 0.13708496 -1.5252075 0.014404297q-0.73501587 -0.11695862 -1.4342041 -0.45307922q-0.69918823 -0.33610535 -1.3291626 -0.80236816q0.22302246 0.9176636 0.16491699 1.8171692q-0.036743164 0.90522766 -0.37231445 1.7303619q-0.32202148 0.81729126 -0.931427 1.5118408q-0.601593 0.70806885 -1.4812012 1.2157898q-1.3724976 0.8102722 -2.7404785 0.87823486q-1.367981 0.06796265 -2.608551 -0.42471313q-1.2270508 -0.50045776 -2.2933655 -1.4725952q-1.0585022 -0.95861816 -1.7984924 -2.2092896l-3.6401062 -6.306061zm10.668518 -2.802353l-7.0910034 4.0930176l2.2262268 3.8567047q0.46661377 0.7770691 1.116394 1.3401489q0.66329956 0.55526733 1.4223328 0.83877563q0.7590027 0.28353882 1.5882263 0.21984863q0.83703613 -0.0501709 1.6625061 -0.52664185q0.8468323 -0.47076416 1.3245544 -1.1434021q0.48550415 -0.6591034 0.6352539 -1.4310913q0.16326904 -0.7798157 0.008483887 -1.6105499q-0.15481567 -0.8307495 -0.58862305 -1.6447754l-2.3043518 -3.992035zm2.0839844 -1.2029114l2.0153503 3.491333q0.41973877 0.6958771 1.0132751 1.2553253q0.6070862 0.55163574 1.3041687 0.85287476q0.7106323 0.2934265 1.4799805 0.28231812q0.76937866 -0.011108398 1.540741 -0.45632935q0.82547 -0.4764862 1.2198792 -1.1371307q0.4022522 -0.64712524 0.45516968 -1.3993073q0.074279785 -0.7464752 -0.15600586 -1.5516968q-0.22244263 -0.7917023 -0.6307373 -1.5302582l-1.9762878 -3.4236603l-6.2655334 3.6165314z" fill-rule="nonzero"/><path stroke="#9e9e9e" stroke-width="1.0" stroke-linecap="butt" d="m296.08136 276.66666l0 174.37534" fill-rule="nonzero"/><path stroke="#9e9e9e" stroke-width="1.0" stroke-linecap="butt" d="m355.89764 276.66666l0 174.37534" fill-rule="nonzero"/><path stroke="#9e9e9e" stroke-width="1.0" stroke-linecap="butt" d="m415.7139 276.66666l0 174.37534" fill-rule="nonzero"/><path stroke="#9e9e9e" stroke-width="1.0" stroke-linecap="butt" d="m475.53018 276.66666l0 174.37534" fill-rule="nonzero"/><path stroke="#9e9e9e" stroke-width="1.0" stroke-linecap="butt" d="m295.58267 277.16534l180.4462 0" fill-rule="nonzero"/><path stroke="#9e9e9e" stroke-width="1.0" stroke-linecap="butt" d="m295.58267 334.958l180.4462 0" fill-rule="nonzero"/><path stroke="#9e9e9e" stroke-width="1.0" stroke-linecap="butt" d="m295.58267 392.75067l180.4462 0" fill-rule="nonzero"/><path stroke="#9e9e9e" stroke-width="1.0" stroke-linecap="butt" d="m295.58267 450.5433l180.4462 0" fill-rule="nonzero"/><path fill="#000000" d="m316.95044 316.88535l0 -22.90625l10.15625 0q3.0625 0 4.65625 0.625q1.59375 0.609375 2.546875 2.171875q0.953125 1.5625 0.953125 3.453125q0 2.4375 -1.578125 4.109375q-1.578125 1.671875 -4.875 2.125q1.203125 0.578125 1.828125 1.140625q1.328125 1.21875 2.515625 3.046875l3.984375 6.234375l-3.8125 0l-3.03125 -4.765625q-1.328125 -2.0625 -2.1875 -3.15625q-0.859375 -1.09375 -1.546875 -1.53125q-0.671875 -0.4375 -1.375 -0.609375q-0.515625 -0.109375 -1.6875 -0.109375l-3.515625 0l0 10.171875l-3.03125 0zm3.03125 -12.796875l6.515625 0q2.078125 0 3.25 -0.421875q1.171875 -0.4375 1.78125 -1.375q0.609375 -0.953125 0.609375 -2.0625q0 -1.625 -1.1875 -2.671875q-1.171875 -1.046875 -3.71875 -1.046875l-7.25 0l0 7.578125z" fill-rule="nonzero"/><path fill="#000000" d="m376.76672 316.88535l0 -22.90625l10.15625 0q3.0625 0 4.65625 0.625q1.59375 0.609375 2.546875 2.171875q0.953125 1.5625 0.953125 3.453125q0 2.4375 -1.578125 4.109375q-1.578125 1.671875 -4.875 2.125q1.203125 0.578125 1.828125 1.140625q1.328125 1.21875 2.515625 3.046875l3.984375 6.234375l-3.8125 0l-3.03125 -4.765625q-1.328125 -2.0625 -2.1875 -3.15625q-0.859375 -1.09375 -1.546875 -1.53125q-0.671875 -0.4375 -1.375 -0.609375q-0.515625 -0.109375 -1.6875 -0.109375l-3.515625 0l0 10.171875l-3.03125 0zm3.03125 -12.796875l6.515625 0q2.078125 0 3.25 -0.421875q1.171875 -0.4375 1.78125 -1.375q0.609375 -0.953125 0.609375 -2.0625q0 -1.625 -1.1875 -2.671875q-1.171875 -1.046875 -3.71875 -1.046875l-7.25 0l0 7.578125z" fill-rule="nonzero"/><path fill="#000000" d="m451.56735 293.9791l3.03125 0l0 13.234375q0 3.453125 -0.78125 5.484375q-0.78125 2.03125 -2.828125 3.3125q-2.03125 1.265625 -5.34375 1.265625q-3.21875 0 -5.265625 -1.109375q-2.046875 -1.109375 -2.921875 -3.203125q-0.875 -2.109375 -0.875 -5.75l0 -13.234375l3.03125 0l0 13.21875q0 2.984375 0.546875 4.40625q0.5625 1.40625 1.90625 2.171875q1.359375 0.765625 3.3125 0.765625q3.34375 0 4.765625 -1.515625q1.421875 -1.515625 1.421875 -5.828125l0 -13.21875z" fill-rule="nonzero"/><path fill="#000000" d="m316.90356 374.678l0 -22.90625l7.890625 0q2.671875 0 4.078125 0.328125q1.96875 0.453125 3.359375 1.640625q1.8125 1.53125 2.703125 3.921875q0.90625 2.375 0.90625 5.4375q0 2.609375 -0.609375 4.625q-0.609375 2.015625 -1.5625 3.34375q-0.953125 1.3125 -2.09375 2.078125q-1.125 0.75 -2.734375 1.140625q-1.59375 0.390625 -3.671875 0.390625l-8.265625 0zm3.03125 -2.703125l4.890625 0q2.265625 0 3.546875 -0.421875q1.296875 -0.421875 2.0625 -1.1875q1.078125 -1.078125 1.671875 -2.890625q0.609375 -1.828125 0.609375 -4.421875q0 -3.59375 -1.1875 -5.515625q-1.171875 -1.9375 -2.859375 -2.59375q-1.21875 -0.46875 -3.921875 -0.46875l-4.8125 0l0 17.5z" fill-rule="nonzero"/><path fill="#000000" d="m387.2511 374.678l0 -5.484375l-9.9375 0l0 -2.578125l10.453125 -14.84375l2.296875 0l0 14.84375l3.09375 0l0 2.578125l-3.09375 0l0 5.484375l-2.8125 0zm0 -8.0625l0 -10.328125l-7.171875 10.328125l7.171875 0z" fill-rule="nonzero"/><path fill="#000000" d="m444.2939 370.97488l0 -6.28125l-6.234375 0l0 -2.625l6.234375 0l0 -6.234375l2.65625 0l0 6.234375l6.234375 0l0 2.625l-6.234375 0l0 6.28125l-2.65625 0z" fill-rule="nonzero"/><path fill="#000000" d="m316.90356 432.47067l0 -22.90625l7.890625 0q2.671875 0 4.078125 0.328125q1.96875 0.453125 3.359375 1.640625q1.8125 1.53125 2.703125 3.921875q0.90625 2.375 0.90625 5.4375q0 2.609375 -0.609375 4.625q-0.609375 2.015625 -1.5625 3.34375q-0.953125 1.3125 -2.09375 2.078125q-1.125 0.75 -2.734375 1.140625q-1.59375 0.390625 -3.671875 0.390625l-8.265625 0zm3.03125 -2.703125l4.890625 0q2.265625 0 3.546875 -0.421875q1.296875 -0.421875 2.0625 -1.1875q1.078125 -1.078125 1.671875 -2.890625q0.609375 -1.828125 0.609375 -4.421875q0 -3.59375 -1.1875 -5.515625q-1.171875 -1.9375 -2.859375 -2.59375q-1.21875 -0.46875 -3.921875 -0.46875l-4.8125 0l0 17.5z" fill-rule="nonzero"/><path fill="#000000" d="m377.47766 432.47067l0 -22.90625l8.59375 0q2.625 0 4.203125 0.703125q1.59375 0.6875 2.484375 2.140625q0.90625 1.4375 0.90625 3.015625q0 1.46875 -0.796875 2.765625q-0.796875 1.296875 -2.40625 2.09375q2.078125 0.609375 3.1875 2.078125q1.125 1.46875 1.125 3.46875q0 1.609375 -0.6875 3.0q-0.671875 1.375 -1.671875 2.125q-1.0 0.75 -2.515625 1.140625q-1.5 0.375 -3.6875 0.375l-8.734375 0zm3.03125 -13.28125l4.953125 0q2.015625 0 2.890625 -0.265625q1.15625 -0.34375 1.734375 -1.140625q0.59375 -0.796875 0.59375 -2.0q0 -1.140625 -0.546875 -2.0q-0.546875 -0.875 -1.5625 -1.1875q-1.015625 -0.328125 -3.484375 -0.328125l-4.578125 0l0 6.921875zm0 10.578125l5.703125 0q1.46875 0 2.0625 -0.109375q1.046875 -0.1875 1.75 -0.625q0.703125 -0.4375 1.15625 -1.265625q0.453125 -0.84375 0.453125 -1.9375q0 -1.28125 -0.65625 -2.21875q-0.65625 -0.953125 -1.828125 -1.328125q-1.15625 -0.390625 -3.34375 -0.390625l-5.296875 0l0 7.875z" fill-rule="nonzero"/><path fill="#000000" d="m444.2939 428.76755l0 -6.28125l-6.234375 0l0 -2.625l6.234375 0l0 -6.234375l2.65625 0l0 6.234375l6.234375 0l0 2.625l-6.234375 0l0 6.28125l-2.65625 0z" fill-rule="nonzero"/><path fill="#000000" fill-opacity="0.0" d="m323.28864 -27.196783l161.44882 279.62204l-54.456696 31.433075l-161.44882 -279.62204z" fill-rule="evenodd"/><path fill="#000000" d="m312.59412 15.249511q1.9351501 -1.1169872 3.8121033 -1.8034935q1.8847961 -0.6729746 3.6296387 -0.9945669q1.7583923 -0.32940388 3.3456116 -0.36154938q1.5950317 -0.018615723 2.9506836 0.17311764q1.3634338 0.20526409 2.4562378 0.5667505q1.0927734 0.36148643 1.8623352 0.8193493l-1.3462524 1.4806805q-1.1204224 -0.47182846 -2.7009583 -0.6780796q-1.5726929 -0.19272041 -3.525299 0.050325394q-1.9312439 0.2487669 -4.216858 1.0087671q-2.2642517 0.7657213 -4.7948 2.2263975l-0.18945312 0.10935402q-2.5305786 1.4606762 -4.3395996 3.0460968q-1.8012085 1.5989513 -2.9959412 3.1545486q-1.1869507 1.569128 -1.8200073 3.035057q-0.63882446 1.4872723 -0.8310547 2.7167778l-1.8338623 0.35492706q-0.01171875 -0.89528275 0.21383667 -2.0357895q0.21987915 -1.1191635 0.73742676 -2.4101696q0.5118408 -1.2696648 1.325592 -2.641426q0.80804443 -1.3504181 1.9591064 -2.7004013q1.1724548 -1.3442631 2.6978455 -2.6396847q1.5332031 -1.2818909 3.4683533 -2.398878l0.13531494 -0.078110695zm27.018707 19.765057l-13.327362 7.7288094q-1.395935 0.7696686 -2.8737793 0.9912567q-1.4778442 0.22158432 -2.8767395 -0.107551575q-1.3853455 -0.3369522 -2.592804 -1.2095566q-1.1939697 -0.88041306 -2.0065002 -2.2876854q-0.8281555 -1.4343338 -0.99365234 -2.9083939q-0.16546631 -1.4740562 0.24328613 -2.8285408q0.42227173 -1.3622932 1.3532104 -2.531084q0.944458 -1.1765995 2.3169556 -1.9868622l13.358643 -7.6746826l1.375061 2.3815384l-13.311768 7.755869q-0.87179565 0.5212517 -1.5352783 1.2470169q-0.6557007 0.73929596 -0.9969177 1.5857391q-0.33343506 0.8599739 -0.2904358 1.8093834q0.05078125 0.9629402 0.60549927 1.9236755q0.554718 0.9607315 1.34198 1.4805298q0.80078125 0.5119896 1.7045593 0.63981247q0.92507935 0.1335411 1.8854675 -0.07802582q0.9604187 -0.21157074 1.8556519 -0.6922264l13.366425 -7.661152l1.3984985 2.4221306zm-18.604523 25.71289l-1.1641235 -2.0161858l25.089172 -14.481781l1.1641235 2.0161896l-25.089172 14.481777zm21.358612 1.743618l10.394897 -4.6830597l5.8361816 10.108002l-2.435852 1.4059982l-4.6173706 -7.997097l-5.570923 2.4759178q0.6742554 0.3865738 1.4001465 1.0500488q0.7258911 0.66348267 1.3431091 1.7324677q0.789093 1.3666763 0.9404907 2.72258q0.15136719 1.3559036 -0.27719116 2.6135788q-0.41500854 1.2498627 -1.3985596 2.3588028q-0.9835205 1.1089401 -2.472107 1.9681625q-1.4073792 0.81235504 -2.8305054 1.1286621q-1.4231567 0.31630707 -2.748108 0.052734375q-1.3035889 -0.25785065 -2.4761963 -1.1325455q-1.1590576 -0.8825073 -2.0653381 -2.452156q-0.695343 -1.2042999 -0.97424316 -2.4685593q-0.27890015 -1.264267 -0.08670044 -2.4937668q0.20004272 -1.2159805 0.9160156 -2.3508759q0.7237549 -1.121376 2.0124207 -2.0456085l1.3750305 2.3815384q-1.5451965 1.1986084 -1.8331299 2.6998444q-0.28009033 1.5147705 0.6340027 3.0979538q0.515625 0.89307404 1.2253418 1.4035263q0.7232361 0.5026398 1.5707703 0.62683105q0.86886597 0.12991333 1.827179 -0.11653137q0.966095 -0.23291016 1.9810181 -0.81874084q0.92022705 -0.53115845 1.5623779 -1.2626419q0.6499634 -0.7179489 0.94277954 -1.5544968q0.30636597 -0.8443527 0.22277832 -1.7703247q-0.08358765 -0.9259796 -0.63046265 -1.8731766q-0.35940552 -0.6224518 -0.7197571 -1.0278397q-0.33901978 -0.39967346 -0.7123718 -0.67128754q-0.37332153 -0.2716217 -0.79089355 -0.4635849q-0.409729 -0.17843628 -0.902771 -0.34487915l-0.6420593 -2.2994766zm12.343628 26.034676q-1.9351501 1.1169891 -3.8199158 1.7899628q-1.8769836 0.6865082 -3.635376 1.0159073q-1.7448425 0.32159424 -3.326355 0.33239746q-1.5872192 0.03215027 -2.950653 -0.17311859q-1.3691711 -0.18392181 -2.4562378 -0.5667496q-1.092804 -0.36148834 -1.8623657 -0.8193512l1.2244873 -1.4103775q1.1068726 0.47963715 2.706665 0.6567383q1.5940552 0.19844055 3.5523682 -0.06594849q1.9661255 -0.2508545 4.2574463 -1.0322037q2.2991333 -0.767807 4.8296814 -2.228485l0.18945312 -0.10935211q2.5305786 -1.4606781 4.337494 -3.0809708q1.8204651 -1.6281052 3.00531 -3.232109q1.2061768 -1.5982819 1.8392639 -3.064209q0.64089966 -1.4524002 0.8180542 -2.5830078l1.8338623 -0.35492706q0.011749268 0.89528656 -0.22164917 2.0222626q-0.22555542 1.1405029 -0.73742676 2.4101715q-0.5040283 1.2831955 -1.325592 2.641426q-0.8137512 1.3717575 -1.978363 2.7295532q-1.1510925 1.3499832 -2.6842957 2.631874q-1.5253906 1.2954178 -3.4605408 2.412407l-0.13531494 0.07810974zm5.8933716 9.894577q1.9351501 -1.1169891 3.8121338 -1.8034973q1.8847656 -0.67297363 3.6296387 -0.9945679q1.7583923 -0.3293991 3.3456116 -0.36154938q1.5950317 -0.018615723 2.950653 0.17311859q1.3634338 0.20526886 2.4562378 0.5667496q1.092804 0.36148834 1.8623352 0.8193512l-1.3462524 1.4806824q-1.1204224 -0.47183228 -2.7009277 -0.6780777q-1.5727234 -0.19272614 -3.525299 0.050323486q-1.9312744 0.24876404 -4.216858 1.0087662q-2.2642517 0.7657242 -4.7948303 2.2263947l-0.18945312 0.10935974q-2.5305786 1.4606705 -4.339569 3.0460968q-1.8012085 1.5989456 -2.9959717 3.1545486q-1.1869202 1.5691223 -1.8200073 3.035057q-0.63879395 1.4872665 -0.83102417 2.716774l-1.8338623 0.35492706q-0.011749268 -0.89527893 0.21383667 -2.0357895q0.21984863 -1.1191635 0.73742676 -2.4101715q0.5118408 -1.269661 1.325592 -2.641426q0.8080139 -1.3504181 1.9591064 -2.7004013q1.1724243 -1.3442612 2.697815 -2.639679q1.5332031 -1.2818909 3.4683533 -2.39888l0.13531494 -0.07810974zm25.698334 15.7282715l-1.726654 -2.9904556l-22.626251 13.060158l1.7266235 2.9904556l-2.0569153 1.1872787l-3.093872 -5.358452l26.740112 -15.434731l3.093872 5.358452l-2.0569153 1.187294zm4.2267456 9.070488l1.3047485 2.259758l-16.644623 20.576477l-1.304718 -2.2597656l16.644592 -20.57647zm-1.0453796 34.71917q0.44656372 -0.25776672 0.6968384 -0.6367645q0.26382446 -0.3868103 0.31933594 -0.97813416q0.055511475 -0.59132385 -0.09933472 -1.4220276q-0.14135742 -0.838501 -0.532135 -1.9840698q-0.46948242 -1.4068298 -0.7056885 -2.6596527q-0.22839355 -1.2392883 -0.15740967 -2.2725372q0.09234619 -1.0275116 0.5345764 -1.8240204q0.45578003 -0.80430603 1.3624573 -1.327652q0.89312744 -0.51553345 1.9066772 -0.5412903q1.0270996 -0.033569336 2.0465088 0.38832092q1.0194092 0.42189026 1.9592896 1.2685242q0.9477234 0.8601837 1.6743164 2.1186066q0.7812805 1.3531494 1.0544739 2.6387482q0.27316284 1.285614 0.0881958 2.4026794q-0.18496704 1.1170654 -0.7896118 2.007309q-0.5832825 0.8959503 -1.5440674 1.450531l-1.4453735 -2.5033112q0.4736328 -0.27339172 0.77957153 -0.77471924q0.319458 -0.5091553 0.42129517 -1.1452484q0.10183716 -0.63609314 -0.041015625 -1.3835144q-0.1350708 -0.733902 -0.5804138 -1.505188q-0.4609375 -0.7983551 -0.98843384 -1.3057251q-0.51968384 -0.49383545 -1.0517883 -0.7279358q-0.524292 -0.22058105 -1.0339355 -0.19702148q-0.50961304 0.023544312 -0.9291382 0.26568604q-0.43301392 0.24995422 -0.6775818 0.60762024q-0.24456787 0.35765076 -0.28863525 0.9062805q-0.036254883 0.5621643 0.1300354 1.3501892q0.1741333 0.8015442 0.5649109 1.947113q0.49710083 1.5171814 0.7354126 2.8048706q0.25183105 1.2798767 0.14596558 2.315216q-0.09234619 1.0275269 -0.5637512 1.8047638q-0.463562 0.79078674 -1.3702393 1.3141327q-0.9743347 0.5623932 -2.0305786 0.57670593q-1.0484314 0.02784729 -2.0699463 -0.4289093q-1.0214844 -0.4567566 -1.9655762 -1.3731537q-0.9440918 -0.91638184 -1.6941223 -2.2154083q-0.8594055 -1.4884644 -1.1388855 -2.8786926q-0.26593018 -1.3980408 -0.08514404 -2.5848541q0.20214844 -1.1811066 0.8182068 -2.1140137q0.62390137 -0.9193878 1.5576172 -1.4583588l1.4453735 2.5033264q-0.7400818 0.49935913 -1.0647278 1.1558075q-0.31680298 0.6699829 -0.33688354 1.3851776q-0.012268066 0.728714 0.22741699 1.4563446q0.23968506 0.72761536 0.6069031 1.3636017q0.914093 1.5831757 2.0272522 2.1674347q1.1131592 0.58425903 2.081787 0.04321289zm20.249329 -1.458847l1.304718 2.2597656l-16.644592 20.576462l-1.3047485 -2.2597504l16.644623 -20.576477zm0.38668823 34.66832q0.90667725 -0.52334595 1.2869568 -1.302124q0.38812256 -0.7652588 0.4326172 -1.6569061q0.058013916 -0.8994751 -0.110961914 -1.8483276q-0.16113281 -0.935318 -0.3451538 -1.7852783q-0.26330566 -1.2371979 -0.41467285 -2.5931091q-0.1435852 -1.3423767 0.030914307 -2.6338196q0.18234253 -1.2779083 0.78793335 -2.3851929q0.6269531 -1.1015625 1.8989868 -1.8358154q1.2720642 -0.7342377 2.5937805 -0.7574768q1.3295593 -0.009689331 2.5431519 0.49855042q1.213623 0.50823975 2.2295532 1.4553223q1.02948 0.93927 1.7013855 2.1029816q0.742218 1.285492 0.9967041 2.7262115q0.26800537 1.4329071 0.027923584 2.7982788q-0.24005127 1.365387 -1.0158691 2.5528717q-0.77578735 1.1874847 -2.1134338 1.9956512l-1.484436 -2.5709686q0.79003906 -0.60035706 1.3005066 -1.3099365q0.5239868 -0.7174072 0.7278137 -1.5206146q0.2038269 -0.8032074 0.060394287 -1.67659q-0.12210083 -0.8676758 -0.63775635 -1.7607422q-0.4140625 -0.71717834 -1.0155029 -1.2901154q-0.5936279 -0.55940247 -1.3121338 -0.866333q-0.71066284 -0.293396 -1.4935913 -0.27445984q-0.77511597 0.032470703 -1.5599976 0.4855194q-0.8447571 0.5056305 -1.1979675 1.2687836q-0.33969116 0.75535583 -0.378479 1.6256714q-0.030944824 0.88383484 0.1281128 1.7842865q0.16687012 0.9139862 0.3467102 1.6941986q0.1918335 0.8634796 0.32382202 1.7795563q0.14553833 0.90826416 0.16506958 1.8170776q0.01953125 0.9088135 -0.110321045 1.7775879q-0.12988281 0.8687744 -0.48101807 1.6668091q-0.33761597 0.7902374 -0.9277344 1.4555969q-0.5687561 0.67108154 -1.4483643 1.1788025q-1.3262024 0.7654877 -2.657837 0.7403259q-1.323822 -0.011642456 -2.5259705 -0.5625763q-1.1886597 -0.5587311 -2.2066956 -1.5406952q-1.0044861 -0.9897766 -1.6842041 -2.1670074q-0.757843 -1.3125458 -1.0784607 -2.805313q-0.32061768 -1.4927521 -0.1409607 -2.9315033q0.20101929 -1.4330292 0.93777466 -2.6881714q0.75027466 -1.26297 2.1341858 -2.1159058l1.4766235 2.557434q-0.84988403 0.65293884 -1.3483276 1.445816q-0.48492432 0.78504944 -0.6418762 1.6694489q-0.1434021 0.8765869 0.044799805 1.7962799q0.20956421 0.9254303 0.7408447 1.8455658q0.421875 0.73069763 1.0040894 1.3327942q0.6035156 0.6078186 1.3027649 0.94389343q0.71276855 0.32826233 1.4978027 0.34420776q0.79855347 0.008132935 1.6105042 -0.46054077zm22.991394 -0.67822266l3.101715 5.371994l-26.740143 15.434723l-3.1016846 -5.3719788l2.0569153 -1.1872864l1.7344666 3.0039825l22.626251 -13.060165l-1.734436 -3.0039825l2.0569153 -1.1872864zm-1.5847778 31.09755q-1.9351501 1.1169891 -3.8199158 1.7899628q-1.8769836 0.6865082 -3.635376 1.0159149q-1.744873 0.32159424 -3.326355 0.33239746q-1.5872192 0.03213501 -2.950653 -0.17312622q-1.3691711 -0.18391418 -2.4562683 -0.56674194q-1.0927734 -0.36149597 -1.8623352 -0.8193512l1.2244568 -1.4103851q1.1069031 0.47964478 2.706665 0.6567383q1.5940857 0.19844055 3.5523987 -0.06594849q1.9661255 -0.2508545 4.257416 -1.032196q2.2991333 -0.76782227 4.829712 -2.228485l0.18945312 -0.10935974q2.5305786 -1.4606781 4.337494 -3.0809631q1.8204651 -1.6281128 3.00531 -3.2321167q1.2061768 -1.5982819 1.8392639 -3.064209q0.64089966 -1.4523926 0.8180542 -2.5830078l1.8338623 -0.35491943q0.01171875 0.89527893 -0.22164917 2.0222626q-0.22558594 1.1405029 -0.73742676 2.4101562q-0.5040283 1.2832031 -1.325592 2.6414337q-0.8137512 1.3717651 -1.978363 2.7295532q-1.1510925 1.3499908 -2.6842957 2.6318665q-1.5253906 1.2954254 -3.4605408 2.4124146l-0.13531494 0.07810974zm16.614532 1.4330139l1.3047485 2.2597504l-16.644623 20.576477l-1.3047485 -2.2597504l16.644623 -20.576477zm-3.5697632 39.31543l-7.45343 -12.909012l1.7998047 -1.0388794l10.898926 2.314621q1.4608154 0.31143188 2.5410461 0.46366882q1.0802307 0.15223694 1.9058838 0.14474487q0.83914185 -0.015304565 1.4799194 -0.18670654q0.6542969 -0.17922974 1.2497253 -0.5229187q0.7307434 -0.4217987 1.2261353 -1.032486q0.51675415 -0.6049652 0.72476196 -1.3384247q0.21582031 -0.7199249 0.111450195 -1.52565q-0.08303833 -0.8000183 -0.55178833 -1.611908q-0.570343 -0.98779297 -1.2764282 -1.5544586q-0.6982422 -0.5531311 -1.5072937 -0.7356262q-0.7876587 -0.17678833 -1.6725769 0.009262085q-0.8771057 0.1995697 -1.7973328 0.73072815l-1.453186 -2.516861q1.2449951 -0.7186127 2.5911255 -0.91830444q1.3596802 -0.20750427 2.6539307 0.12789917q1.302063 0.34895325 2.468933 1.2449799q1.1747131 0.9095764 2.0497437 2.4250946q0.804718 1.3937378 1.0258789 2.7454681q0.24249268 1.3574371 -0.042938232 2.550537q-0.2854309 1.1930847 -1.0524292 2.177063q-0.7592163 0.99749756 -1.9365234 1.677063q-0.8796387 0.50772095 -1.917572 0.7099304q-1.0244446 0.19441223 -2.1603394 0.164505q-1.1280823 -0.01637268 -2.3442078 -0.21647644q-1.1947632 -0.19436646 -2.436432 -0.4699402l-8.792572 -1.9788971l5.7111816 9.89151l-2.043396 1.1794739z" fill-rule="nonzero"/><path fill="#000000" fill-opacity="0.0" d="m-36.49344 393.96063l321.82678 0l0 62.897644l-321.82678 0z" fill-rule="evenodd"/><path fill="#000000" d="m13.7864685 423.1025l-2.6875 0l5.0 -12.171875l1.984375 0l4.984375 12.171875l-2.671875 0l-3.09375 -7.59375l-0.234375 -1.0625l-0.234375 1.0625l-3.046875 7.59375zm25.75 -13.046875l-3.453125 0l0 26.125l3.453125 0l0 2.375l-6.1875 0l0 -30.875l6.1875 0l0 2.375zm19.9375 17.734375l-7.59375 0l-1.828125 5.890625l-2.890625 0l7.34375 -22.75l2.421875 0l7.21875 22.75l-2.875 0l-1.796875 -5.890625zm-6.8125 -2.515625l6.046875 0l-3.0 -9.875l-3.046875 9.875zm15.125 8.40625l0 -22.75l6.765625 0q1.40625 0.015625 2.75 0.375q1.34375 0.34375 2.390625 1.078125q1.046875 0.734375 1.671875 1.875q0.625 1.140625 0.609375 2.734375q-0.015625 0.890625 -0.296875 1.625q-0.265625 0.734375 -0.75 1.328125q-0.46875 0.578125 -1.109375 1.015625q-0.640625 0.4375 -1.359375 0.75q0.90625 0.265625 1.65625 0.765625q0.765625 0.484375 1.3125 1.1875q0.546875 0.6875 0.84375 1.5625q0.3125 0.875 0.3125 1.890625q0.015625 1.59375 -0.609375 2.8125q-0.625 1.21875 -1.671875 2.046875q-1.046875 0.8125 -2.421875 1.25q-1.359375 0.4375 -2.8125 0.453125l-7.28125 0zm2.90625 -10.640625l0 8.1875l4.453125 0q0.90625 -0.015625 1.71875 -0.296875q0.8125 -0.296875 1.4375 -0.8125q0.625 -0.515625 0.984375 -1.265625q0.375 -0.75 0.375 -1.703125q0.015625 -0.96875 -0.328125 -1.71875q-0.328125 -0.75 -0.921875 -1.265625q-0.59375 -0.53125 -1.390625 -0.8125q-0.796875 -0.28125 -1.71875 -0.3125l-4.609375 0zm0 -2.40625l4.03125 0q0.8125 -0.015625 1.59375 -0.25q0.78125 -0.25 1.390625 -0.703125q0.609375 -0.46875 0.984375 -1.140625q0.375 -0.671875 0.375 -1.5625q0 -0.953125 -0.375 -1.625q-0.359375 -0.671875 -0.984375 -1.09375q-0.609375 -0.4375 -1.421875 -0.640625q-0.796875 -0.203125 -1.640625 -0.21875l-3.953125 0l0 7.234375zm31.0625 6.203125q-0.203125 1.578125 -0.8125 2.90625q-0.609375 1.3125 -1.59375 2.265625q-0.96875 0.9375 -2.3125 1.46875q-1.328125 0.515625 -2.96875 0.515625q-1.40625 0 -2.5625 -0.390625q-1.140625 -0.40625 -2.046875 -1.109375q-0.890625 -0.703125 -1.546875 -1.65625q-0.640625 -0.953125 -1.078125 -2.078125q-0.421875 -1.125 -0.640625 -2.359375q-0.203125 -1.234375 -0.21875 -2.5l0 -3.171875q0.015625 -1.265625 0.21875 -2.5q0.21875 -1.234375 0.640625 -2.359375q0.4375 -1.125 1.078125 -2.078125q0.65625 -0.96875 1.546875 -1.671875q0.90625 -0.703125 2.046875 -1.09375q1.140625 -0.40625 2.5625 -0.40625q1.703125 0 3.046875 0.53125q1.34375 0.515625 2.3125 1.484375q0.96875 0.953125 1.546875 2.296875q0.59375 1.34375 0.78125 2.96875l-2.890625 0q-0.140625 -1.03125 -0.484375 -1.921875q-0.34375 -0.890625 -0.921875 -1.5625q-0.578125 -0.671875 -1.421875 -1.046875q-0.828125 -0.390625 -1.96875 -0.390625q-1.03125 0 -1.828125 0.34375q-0.78125 0.328125 -1.359375 0.90625q-0.5625 0.578125 -0.953125 1.34375q-0.375 0.765625 -0.609375 1.625q-0.234375 0.859375 -0.34375 1.765625q-0.09375 0.890625 -0.09375 1.734375l0 3.203125q0 0.84375 0.09375 1.75q0.109375 0.890625 0.34375 1.765625q0.234375 0.859375 0.609375 1.625q0.375 0.765625 0.953125 1.359375q0.578125 0.578125 1.359375 0.921875q0.78125 0.328125 1.828125 0.328125q1.140625 0 1.96875 -0.359375q0.84375 -0.359375 1.421875 -1.0q0.578125 -0.65625 0.921875 -1.53125q0.34375 -0.890625 0.484375 -1.921875l2.890625 0zm4.171875 6.84375l0 -22.75l5.265625 0q2.375 0.03125 4.234375 0.8125q1.875 0.765625 3.15625 2.15625q1.296875 1.375 1.96875 3.3125q0.6875 1.921875 0.703125 4.265625l0 1.671875q-0.015625 2.34375 -0.703125 4.28125q-0.671875 1.921875 -1.96875 3.3125q-1.28125 1.375 -3.15625 2.15625q-1.859375 0.765625 -4.234375 0.78125l-5.265625 0zm2.9375 -20.375l0 18.015625l2.328125 0q1.84375 -0.015625 3.1875 -0.640625q1.34375 -0.640625 2.21875 -1.734375q0.890625 -1.09375 1.3125 -2.578125q0.4375 -1.484375 0.453125 -3.21875l0 -1.703125q-0.015625 -1.734375 -0.453125 -3.203125q-0.4375 -1.484375 -1.3125 -2.5625q-0.875 -1.09375 -2.21875 -1.71875q-1.34375 -0.625 -3.1875 -0.65625l-2.328125 0zm18.890625 24.296875q0.953125 -0.03125 1.59375 -0.53125q0.640625 -0.5 1.015625 -1.28125q0.390625 -0.765625 0.546875 -1.734375q0.171875 -0.953125 0.171875 -1.921875l0 -2.640625q0 -1.859375 0.859375 -3.265625q0.859375 -1.421875 2.671875 -2.140625q-1.8125 -0.734375 -2.671875 -2.140625q-0.859375 -1.421875 -0.859375 -3.296875l0 -2.65625q0 -0.953125 -0.109375 -1.921875q-0.09375 -0.96875 -0.4375 -1.734375q-0.328125 -0.78125 -0.984375 -1.28125q-0.65625 -0.5 -1.78125 -0.53125l0.3125 -1.796875q1.078125 0.03125 1.921875 0.34375q0.859375 0.3125 1.515625 0.84375q0.65625 0.53125 1.109375 1.234375q0.46875 0.703125 0.765625 1.515625q0.296875 0.796875 0.4375 1.65625q0.140625 0.84375 0.140625 1.671875l0 2.65625q0 2.265625 1.078125 3.28125q1.078125 1.0 3.265625 1.0l0 2.265625q-2.1875 0.015625 -3.265625 1.03125q-1.078125 1.015625 -1.078125 3.265625l0 2.640625q0 1.25 -0.34375 2.515625q-0.34375 1.28125 -1.078125 2.328125q-0.71875 1.046875 -1.828125 1.71875q-1.109375 0.671875 -2.640625 0.703125l-0.328125 -1.796875zm25.25 -16.125l6.359375 0l0 2.875l-6.359375 0l0 7.046875l-2.890625 0l0 -7.046875l-6.34375 0l0 -2.875l6.34375 0l0 -6.640625l2.890625 0l0 6.640625zm20.953125 -11.421875l-3.453125 0l0 26.125l3.453125 0l0 2.375l-6.1875 0l0 -30.875l6.1875 0l0 2.375zm24.421875 3.34375l-7.03125 0l0 20.28125l-2.8125 0l0 -20.28125l-7.03125 0l0 -2.46875l16.875 0l0 2.46875zm18.140625 -2.46875l0.03125 15.40625q-0.03125 1.59375 -0.578125 2.984375q-0.546875 1.390625 -1.53125 2.4375q-0.984375 1.03125 -2.34375 1.640625q-1.359375 0.59375 -2.984375 0.59375q-1.65625 0 -3.015625 -0.59375q-1.359375 -0.59375 -2.328125 -1.625q-0.96875 -1.046875 -1.515625 -2.4375q-0.546875 -1.40625 -0.5625 -3.0l0.03125 -15.40625l2.75 0l0.0625 15.40625q0.015625 1.015625 0.3125 1.953125q0.3125 0.9375 0.875 1.65625q0.578125 0.71875 1.421875 1.15625q0.859375 0.4375 1.96875 0.4375q1.109375 0 1.953125 -0.421875q0.84375 -0.4375 1.40625 -1.15625q0.578125 -0.734375 0.875 -1.671875q0.296875 -0.9375 0.328125 -1.953125l0.046875 -15.40625l2.796875 0zm11.734375 18.09375l5.375 -18.09375l3.078125 0l-7.171875 22.75l-2.515625 0l-7.1875 -22.75l3.09375 0l5.328125 18.09375zm16.0 -21.34375l6.203125 0l0 30.875l-6.203125 0l0 -2.375l3.46875 0l0 -26.125l-3.46875 0l0 -2.375zm23.96875 13.796875l6.359375 0l0 2.875l-6.359375 0l0 7.046875l-2.890625 0l0 -7.046875l-6.34375 0l0 -2.875l6.34375 0l0 -6.640625l2.890625 0l0 6.640625z" fill-rule="nonzero"/></g></svg>