<svg version="1.1" viewBox="0.0 0.0 285.8556430446194 251.01049868766404" fill="none" stroke="none" stroke-linecap="square" stroke-miterlimit="10" xmlns:xlink="http://www.w3.org/1999/xlink" xmlns="http://www.w3.org/2000/svg"><clipPath id="p.0"><path d="m0 0l285.85565 0l0 251.0105l-285.85565 0l0 -251.0105z" clip-rule="nonzero"/></clipPath><g clip-path="url(#p.0)"><path fill="#000000" fill-opacity="0.0" d="m0 0l285.85565 0l0 251.0105l-285.85565 0z" fill-rule="evenodd"/><path stroke="#9e9e9e" stroke-width="1.0" stroke-linecap="butt" d="m150.2336 120.32284l0 122.58793" fill-rule="nonzero"/><path stroke="#9e9e9e" stroke-width="1.0" stroke-linecap="butt" d="m209.11285 120.32284l0 122.58793" fill-rule="nonzero"/><path stroke="#9e9e9e" stroke-width="1.0" stroke-linecap="butt" d="m267.99213 120.32284l0 122.58793" fill-rule="nonzero"/><path stroke="#9e9e9e" stroke-width="1.0" stroke-linecap="butt" d="m149.73491 120.821526l118.755905 0" fill-rule="nonzero"/><path stroke="#9e9e9e" stroke-width="1.0" stroke-linecap="butt" d="m149.73491 181.61679l118.755905 0" fill-rule="nonzero"/><path stroke="#9e9e9e" stroke-width="1.0" stroke-linecap="butt" d="m149.73491 242.41208l118.755905 0" fill-rule="nonzero"/><path fill="#000000" d="m171.34511 160.54152l0 -22.90625l8.59375 0q2.625 0 4.203125 0.703125q1.59375 0.6875 2.484375 2.140625q0.90625 1.4375 0.90625 3.015625q0 1.46875 -0.796875 2.765625q-0.796875 1.296875 -2.40625 2.09375q2.078125 0.609375 3.1875 2.078125q1.125 1.46875 1.125 3.46875q0 1.609375 -0.6875 3.0q-0.671875 1.375 -1.671875 2.125q-1.0 0.75 -2.515625 1.140625q-1.5 0.375 -3.6875 0.375l-8.734375 0zm3.03125 -13.28125l4.953125 0q2.015625 0 2.890625 -0.265625q1.15625 -0.34375 1.734375 -1.140625q0.59375 -0.796875 0.59375 -2.0q0 -1.140625 -0.546875 -2.0q-0.546875 -0.875 -1.5625 -1.1875q-1.015625 -0.328125 -3.484375 -0.328125l-4.578125 0l0 6.921875zm0 10.578125l5.703125 0q1.46875 0 2.0625 -0.109375q1.046875 -0.1875 1.75 -0.625q0.703125 -0.4375 1.15625 -1.265625q0.453125 -0.84375 0.453125 -1.9375q0 -1.28125 -0.65625 -2.21875q-0.65625 -0.953125 -1.828125 -1.328125q-1.15625 -0.390625 -3.34375 -0.390625l-5.296875 0l0 7.875z" fill-rule="nonzero"/><path fill="#000000" d="m230.22437 160.54152l0 -22.90625l8.59375 0q2.625 0 4.203125 0.703125q1.59375 0.6875 2.484375 2.140625q0.90625 1.4375 0.90625 3.015625q0 1.46875 -0.796875 2.765625q-0.796875 1.296875 -2.40625 2.09375q2.078125 0.609375 3.1875 2.078125q1.125 1.46875 1.125 3.46875q0 1.609375 -0.6875 3.0q-0.671875 1.375 -1.671875 2.125q-1.0 0.75 -2.515625 1.140625q-1.5 0.375 -3.6875 0.375l-8.734375 0zm3.03125 -13.28125l4.953125 0q2.015625 0 2.890625 -0.265625q1.15625 -0.34375 1.734375 -1.140625q0.59375 -0.796875 0.59375 -2.0q0 -1.140625 -0.546875 -2.0q-0.546875 -0.875 -1.5625 -1.1875q-1.015625 -0.328125 -3.484375 -0.328125l-4.578125 0l0 6.921875zm0 10.578125l5.703125 0q1.46875 0 2.0625 -0.109375q1.046875 -0.1875 1.75 -0.625q0.703125 -0.4375 1.15625 -1.265625q0.453125 -0.84375 0.453125 -1.9375q0 -1.28125 -0.65625 -2.21875q-0.65625 -0.953125 -1.828125 -1.328125q-1.15625 -0.390625 -3.34375 -0.390625l-5.296875 0l0 7.875z" fill-rule="nonzero"/><path fill="#000000" d="m168.72011 221.33679l0 -22.90625l4.5625 0l5.421875 16.21875q0.75 2.265625 1.09375 3.390625q0.390625 -1.25 1.21875 -3.671875l5.484375 -15.9375l4.078125 0l0 22.90625l-2.921875 0l0 -19.171875l-6.65625 19.171875l-2.734375 0l-6.625 -19.5l0 19.5l-2.921875 0z" fill-rule="nonzero"/><path fill="#000000" d="m245.9353 218.88367q2.109375 1.453125 3.890625 2.125l-0.890625 2.109375q-2.46875 -0.890625 -4.921875 -2.8125q-2.546875 1.421875 -5.625 1.421875q-3.109375 0 -5.640625 -1.5q-2.53125 -1.5 -3.90625 -4.21875q-1.359375 -2.71875 -1.359375 -6.125q0 -3.390625 1.375 -6.171875q1.375 -2.78125 3.90625 -4.234375q2.546875 -1.453125 5.6875 -1.453125q3.171875 0 5.71875 1.515625q2.546875 1.5 3.875 4.21875q1.34375 2.703125 1.34375 6.109375q0 2.828125 -0.859375 5.09375q-0.859375 2.25 -2.59375 3.921875zm-6.671875 -3.875q2.625 0.734375 4.328125 2.1875q2.671875 -2.4375 2.671875 -7.328125q0 -2.78125 -0.953125 -4.859375q-0.9375 -2.078125 -2.765625 -3.21875q-1.8125 -1.15625 -4.078125 -1.15625q-3.390625 0 -5.625 2.328125q-2.234375 2.3125 -2.234375 6.921875q0 4.46875 2.203125 6.859375q2.21875 2.390625 5.65625 2.390625q1.625 0 3.0625 -0.609375q-1.421875 -0.921875 -3.0 -1.3125l0.734375 -2.203125z" fill-rule="nonzero"/><path fill="#000000" fill-opacity="0.0" d="m112.258606 -65.64931l99.55905 172.47244l-54.456696 31.433075l-99.55905 -172.47244z" fill-rule="evenodd"/><path fill="#000000" d="m137.96428 12.826839l-8.00032 8.893625l11.851349 -2.2222233l1.7966309 3.1124191l-19.703247 11.372963l-1.4060593 -2.4358082l7.862358 -4.538248l8.344894 -4.5461655l-12.710716 2.4837246l-0.82801056 -1.4344177l8.395828 -9.302337l-7.8263702 4.7880983l-7.862358 4.53825l-1.4060593 -2.4358063l19.703247 -11.372961l1.7888336 3.0988865zm-3.507965 26.614876q0.9821625 -0.5488663 1.6437073 -0.84051514q0.67507935 -0.29946136 1.2872314 -0.36414337q0.62568665 -0.07249451 1.3065948 0.07570648q0.694458 0.14038849 1.7075195 0.4576912q0.7392273 0.18671036 1.5133209 0.37132645q0.7819214 0.19815063 1.5497437 0.27814102q0.7891693 0.08571625 1.5465546 -0.008670807q0.75737 -0.094387054 1.4340057 -0.4849434q1.4750366 -0.8514099 1.7542572 -2.1491737q0.2927704 -1.3055763 -0.62117004 -2.8888512q-0.36714172 -0.63601685 -0.8810425 -1.1512337q-0.49256897 -0.5094986 -1.1042786 -0.7878494q-0.59036255 -0.27262878 -1.2686462 -0.25998497q-0.6647339 0.0048332214 -1.3684235 0.41100883l-1.4451141 -2.5034657q1.1445312 -0.642601 2.316803 -0.7058468q1.1722565 -0.06324768 2.2400055 0.34877968q1.0890961 0.4177494 2.0231628 1.285799q0.9554138 0.87377167 1.6662598 2.1052055q0.7889557 1.3667603 1.0542145 2.638897q0.28660583 1.2778587 0.053146362 2.4048767q-0.23347473 1.127018 -0.9542084 2.0662308q-0.72073364 0.939209 -1.9386597 1.6422081q-0.9743347 0.5624008 -2.0357056 0.72400284q-1.047821 0.15379333 -2.123825 0.07126999q-1.0624542 -0.090335846 -2.108307 -0.37067413q-1.0380402 -0.26680374 -1.9735413 -0.5747528q-0.6267853 -0.17944717 -1.1114349 -0.20640564q-0.4768219 -0.013427734 -0.9046936 0.089214325q-0.42785645 0.102638245 -0.86299133 0.3177185q-0.42160034 0.20726776 -0.9493561 0.51190186l-1.4451294 -2.5034676zm-4.3996887 2.160698q0.6495514 -0.37493515 1.3013153 -0.24598694q0.65956116 0.14248276 1.1048279 0.9138222q0.44525146 0.7713356 0.23873901 1.4137268q-0.19869995 0.65592194 -0.84825134 1.0308571q-0.62249756 0.35931015 -1.2763519 0.19548798q-0.6460266 -0.15029144 -1.0912781 -0.92163086q-0.44525146 -0.7713394 -0.25228882 -1.4059181q0.2007904 -0.621048 0.82328796 -0.9803581zm5.8035736 13.085564l19.703262 -11.372963l3.3823547 5.8594666q0.68948364 1.2257156 1.0500336 2.5691452q0.3740692 1.3356171 0.26139832 2.6094017q-0.11265564 1.2737808 -0.7880554 2.3852844q-0.67541504 1.1114998 -2.0635376 1.8946991q-0.77915955 0.43170166 -1.5558014 0.55524063q-0.7688141 0.13707352 -1.5252075 0.0143966675q-0.7350464 -0.11695862 -1.4342194 -0.4530716q-0.699173 -0.33610916 -1.3291473 -0.802372q0.2230072 0.91765976 0.16491699 1.8171616q-0.036743164 0.90522766 -0.3722992 1.7303543q-0.32203674 0.81731796 -0.931427 1.5118523q-0.601593 0.70806503 -1.4812012 1.215786q-1.3724976 0.8102646 -2.7404938 0.8782425q-1.367981 0.067977905 -2.6085663 -0.42469788q-1.227066 -0.50048065 -2.2933807 -1.4726105q-1.0585022 -0.9585991 -1.7984924 -2.2092857l-3.6401367 -6.3060303zm10.668533 -2.8023605l-7.0910034 4.0930176l2.2262573 3.8566933q0.4665985 0.77705765 1.1163788 1.3401375q0.66329956 0.5552635 1.4223328 0.8387871q0.7590332 0.28352737 1.5882568 0.21983337q0.8370209 -0.05015564 1.6625061 -0.5266342q0.8468323 -0.47075653 1.3245239 -1.1433983q0.4855194 -0.659111 0.6352539 -1.4311028q0.16326904 -0.7798042 0.008468628 -1.6105461q-0.15478516 -0.8307457 -0.5886078 -1.6447716l-2.304367 -3.9920158zm2.0839996 -1.2029076l2.0153503 3.4913216q0.4197235 0.69586563 1.0132904 1.25531q0.6070862 0.55163574 1.3041687 0.85287476q0.71061707 0.2934227 1.4799957 0.28232193q0.7693634 -0.011104584 1.5407257 -0.45633698q0.82547 -0.47647858 1.2198944 -1.1371307q0.40223694 -0.6471176 0.45515442 -1.3993073q0.07426453 -0.7464676 -0.15602112 -1.5516891q-0.22245789 -0.7916908 -0.6307373 -1.5302429l-1.9763031 -3.4236603l-6.265518 3.616539zm11.619141 21.8163l3.179245 5.507622l-2.4899597 1.4372482l-3.1792603 -5.5076294l-6.103134 3.5228043l-1.4451294 -2.5034714l6.1031494 -3.5228043l-3.1714478 -5.494095l2.489975 -1.4372406l3.1714325 5.494095l5.751297 -3.3197174l1.4451141 2.5034714l-5.7512817 3.3197174zm16.133453 6.8524094l-8.00032 8.893623l11.851364 -2.2222214l1.7966309 3.1124191l-19.703247 11.372955l-1.4060669 -2.4358063l7.8623505 -4.538246l8.34491 -4.5461655l-12.710724 2.4837265l-0.8280182 -1.4344177l8.3958435 -9.302338l-7.8263855 4.788101l-7.8623505 4.538246l-1.4060669 -2.4358063l19.703262 -11.372963l1.7888184 3.0988922zm-3.5079498 26.614876q0.9821472 -0.5488663 1.643692 -0.84051514q0.6750946 -0.29946136 1.2872467 -0.364151q0.6256714 -0.07249451 1.3065948 0.07570648q0.69444275 0.14039612 1.7075043 0.457695q0.7392273 0.18670654 1.5133362 0.37133026q0.7819061 0.19815063 1.5497437 0.2781372q0.7891693 0.08571625 1.5465393 -0.008674622q0.75738525 -0.09438324 1.4340057 -0.48493958q1.4750366 -0.8514099 1.7542725 -2.14917q0.29275513 -1.3055801 -0.6211853 -2.888855q-0.36712646 -0.63601685 -0.8810425 -1.1512299q-0.4925537 -0.5094986 -1.1042633 -0.7878494q-0.5903778 -0.2726364 -1.2686462 -0.25998688q-0.6647339 0.0048294067 -1.3684235 0.41101074l-1.4451294 -2.5034714q1.1445465 -0.642601 2.316803 -0.7058487q1.1722717 -0.06324005 2.2400208 0.3487854q1.0890808 0.4177475 2.0231476 1.2857971q0.9554291 0.87377167 1.6662598 2.1052094q0.7889557 1.3667526 1.0542145 2.6388931q0.28660583 1.2778549 0.053146362 2.4048767q-0.23345947 1.1270142 -0.9541931 2.0662308q-0.7207489 0.939209 -1.9386597 1.6422119q-0.97435 0.5624008 -2.0357056 0.723999q-1.0478363 0.15379333 -2.123825 0.071266174q-1.0624695 -0.09033203 -2.1083221 -0.3706665q-1.0380402 -0.26680756 -1.9735413 -0.57476044q-0.6267853 -0.17944336 -1.1114197 -0.20640564q-0.4768219 -0.013427734 -0.9046936 0.08921814q-0.4278717 0.102638245 -0.86299133 0.3177185q-0.42160034 0.20726776 -0.94937134 0.51190186l-1.4451141 -2.5034637zm-4.399704 2.1606903q0.64956665 -0.37493134 1.3013153 -0.24597931q0.6595764 0.14247894 1.1048279 0.91381836q0.44525146 0.7713394 0.23875427 1.4137268q-0.19869995 0.65592194 -0.8482666 1.0308533q-0.6224823 0.35931396 -1.2763367 0.19548798q-0.64604187 -0.15029144 -1.0912933 -0.92163086q-0.44525146 -0.7713318 -0.25227356 -1.4059143q0.2007904 -0.621048 0.8232727 -0.98036194z" fill-rule="nonzero"/><path fill="#000000" fill-opacity="0.0" d="m-48.91601 181.61679l199.14961 0l0 62.897644l-199.14961 0z" fill-rule="evenodd"/><path fill="#000000" d="m12.702352 198.58679l3.703126 11.375l4.0 -11.375l3.59375 0l0 22.75l-2.8125 0l0 -9.078125l0.234375 -9.5l-4.203125 12.25l-1.656251 0l-3.859375 -11.921875l0.234375 9.171875l0 9.078125l-2.8125 0l0 -22.75l3.578125 0zm21.703125 12.078125l-5.890623 -1.5l0.84375 -2.734375l5.703123 2.359375l-0.390625 -6.578125l2.78125 0l-0.453125 6.671875l5.671875 -2.34375l0.84375 2.78125l-5.96875 1.46875l4.0 5.0625l-2.28125 1.71875l-3.34375 -5.671875l-3.3125 5.53125l-2.281248 -1.65625l4.078123 -5.109375zm28.53125 0.3125q-0.015625 1.265625 -0.21875 2.546875q-0.203125 1.28125 -0.625 2.46875q-0.40625 1.1875 -1.0625 2.234375q-0.640625 1.03125 -1.546875 1.796875l3.921875 3.265625l-1.984375 1.890625l-4.5 -3.8125q-0.96875 0.28125 -2.09375 0.28125q-1.453125 0 -2.609375 -0.4375q-1.15625 -0.453125 -2.0625 -1.21875q-0.890625 -0.765625 -1.546875 -1.796875q-0.65625 -1.046875 -1.078125 -2.234375q-0.421875 -1.1875 -0.625 -2.453125q-0.203125 -1.28125 -0.21875 -2.53125l0 -2.0q0.015625 -1.25 0.21875 -2.53125q0.203125 -1.28125 0.625 -2.46875q0.421875 -1.1875 1.0625 -2.21875q0.640625 -1.046875 1.53125 -1.8125q0.90625 -0.78125 2.0625 -1.21875q1.171875 -0.453125 2.625 -0.453125q1.453125 0 2.609375 0.453125q1.171875 0.4375 2.0625 1.203125q0.90625 0.765625 1.546875 1.8125q0.65625 1.03125 1.0625 2.21875q0.421875 1.1875 0.625 2.484375q0.203125 1.28125 0.21875 2.53125l0 2.0zm-2.875 -2.03125q-0.015625 -0.859375 -0.109375 -1.78125q-0.078125 -0.9375 -0.3125 -1.828125q-0.21875 -0.90625 -0.609375 -1.71875q-0.375 -0.8125 -0.953125 -1.421875q-0.578125 -0.625 -1.390625 -0.984375q-0.796875 -0.359375 -1.875 -0.359375q-1.0625 0 -1.859375 0.375q-0.796875 0.359375 -1.375 0.984375q-0.578125 0.609375 -0.96875 1.421875q-0.375 0.8125 -0.609375 1.71875q-0.234375 0.890625 -0.34375 1.828125q-0.09375 0.921875 -0.09375 1.765625l0 2.03125q0 0.84375 0.09375 1.78125q0.109375 0.921875 0.34375 1.828125q0.234375 0.90625 0.609375 1.71875q0.390625 0.8125 0.96875 1.4375q0.578125 0.625 1.375 1.0q0.8125 0.359375 1.875 0.359375q1.078125 0 1.875 -0.359375q0.8125 -0.375 1.390625 -0.984375q0.578125 -0.625 0.953125 -1.4375q0.375 -0.8125 0.59375 -1.71875q0.234375 -0.90625 0.3125 -1.828125q0.09375 -0.9375 0.109375 -1.796875l0 -2.03125zm19.640629 18.109375q-1.015625 -0.03125 -1.84375 -0.34375q-0.828125 -0.3125 -1.484375 -0.84375q-0.65625 -0.53125 -1.140625 -1.234375q-0.46875 -0.703125 -0.796875 -1.515625q-0.3125 -0.796875 -0.46875 -1.65625q-0.15625 -0.84375 -0.15625 -1.671875l0 -2.640625q0 -2.25 -1.078125 -3.265625q-1.0625 -1.015625 -3.265625 -1.03125l0 -2.265625q2.203125 0 3.265625 -1.0q1.078125 -1.015625 1.078125 -3.28125l0 -2.65625q0 -0.828125 0.140625 -1.671875q0.140625 -0.859375 0.4375 -1.65625q0.296875 -0.8125 0.75 -1.515625q0.46875 -0.703125 1.125 -1.234375q0.65625 -0.53125 1.5 -0.84375q0.859375 -0.3125 1.9375 -0.34375l0.328125 1.796875q-1.125 0.03125 -1.796875 0.53125q-0.65625 0.5 -1.0 1.28125q-0.328125 0.765625 -0.421875 1.734375q-0.09375 0.96875 -0.09375 1.921875l0 2.65625q-0.015625 1.875 -0.875 3.296875q-0.859375 1.40625 -2.671875 2.140625q1.8125 0.71875 2.671875 2.140625q0.859375 1.40625 0.875 3.265625l0 2.640625q0 0.96875 0.15625 1.921875q0.15625 0.96875 0.53125 1.734375q0.390625 0.78125 1.015625 1.28125q0.640625 0.5 1.609375 0.53125l-0.328125 1.796875zm16.015625 -5.71875l-2.890625 0l0 -19.0625l-5.953125 2.265625l0 -2.640625l8.609375 -3.3125l0.234375 0l0 22.75zm17.15625 -0.671875q0 0.734375 -0.1875 1.53125q-0.171875 0.8125 -0.53125 1.59375q-0.34375 0.796875 -0.84375 1.515625q-0.5 0.71875 -1.15625 1.28125l-1.796875 -0.984375q0.75 -1.09375 1.0625 -2.328125q0.3125 -1.234375 0.3125 -2.5625l0 -2.796875l3.140625 0l0 2.75zm14.203125 4.59375q0.9531174 -0.03125 1.5937424 -0.53125q0.640625 -0.5 1.015625 -1.28125q0.390625 -0.765625 0.546875 -1.734375q0.171875 -0.953125 0.171875 -1.921875l0 -2.640625q0 -1.859375 0.859375 -3.265625q0.859375 -1.421875 2.671875 -2.140625q-1.8125 -0.734375 -2.671875 -2.140625q-0.859375 -1.421875 -0.859375 -3.296875l0 -2.65625q0 -0.953125 -0.109375 -1.921875q-0.09375 -0.96875 -0.4375 -1.734375q-0.328125 -0.78125 -0.984375 -1.28125q-0.65625 -0.5 -1.7812424 -0.53125l0.3125 -1.796875q1.0781174 0.03125 1.9218674 0.34375q0.859375 0.3125 1.515625 0.84375q0.65625 0.53125 1.109375 1.234375q0.46875 0.703125 0.765625 1.515625q0.296875 0.796875 0.4375 1.65625q0.140625 0.84375 0.140625 1.671875l0 2.65625q0 2.265625 1.078125 3.28125q1.078125 1.0 3.265625 1.0l0 2.265625q-2.1875 0.015625 -3.265625 1.03125q-1.078125 1.015625 -1.078125 3.265625l0 2.640625q0 1.25 -0.34375 2.515625q-0.34375 1.28125 -1.078125 2.328125q-0.71875 1.046875 -1.828125 1.71875q-1.109375 0.671875 -2.6406174 0.703125l-0.328125 -1.796875z" fill-rule="nonzero"/><path fill="#000000" fill-opacity="0.0" d="m-48.91601 120.821526l199.14961 0l0 62.897636l-199.14961 0z" fill-rule="evenodd"/><path fill="#000000" d="m77.99923 154.6509l-7.59375 0l-1.828125 5.890625l-2.890625 0l7.34375 -22.75l2.421875 0l7.21875 22.75l-2.875 0l-1.796875 -5.890625zm-6.8125 -2.515625l6.046875 0l-3.0 -9.875l-3.046875 9.875zm20.828125 -2.265625l-5.890625 -1.5l0.84375 -2.734375l5.703125 2.359375l-0.390625 -6.578125l2.78125 0l-0.453125 6.671875l5.671875 -2.34375l0.84375 2.78125l-5.96875 1.46875l4.0 5.0625l-2.28125 1.71875l-3.34375 -5.671875l-3.3125 5.53125l-2.28125 -1.65625l4.078125 -5.109375zm13.5 10.671875l0 -22.75l6.765625 0q1.40625 0.015625 2.75 0.375q1.34375 0.34375 2.390625 1.078125q1.046875 0.734375 1.671875 1.875q0.625 1.140625 0.609375 2.734375q-0.015625 0.890625 -0.296875 1.625q-0.265625 0.734375 -0.75 1.328125q-0.46875 0.578125 -1.109375 1.015625q-0.640625 0.4375 -1.359375 0.75q0.90625 0.265625 1.65625 0.765625q0.765625 0.484375 1.3125 1.1875q0.546875 0.6875 0.84375 1.5625q0.3125 0.875 0.3125 1.890625q0.015625 1.59375 -0.609375 2.8125q-0.625 1.21875 -1.671875 2.046875q-1.046875 0.8125 -2.421875 1.25q-1.359375 0.4375 -2.8125 0.453125l-7.28125 0zm2.90625 -10.640625l0 8.1875l4.453125 0q0.90625 -0.015625 1.71875 -0.296875q0.8125 -0.296875 1.4375 -0.8125q0.625 -0.515625 0.984375 -1.265625q0.375 -0.75 0.375 -1.703125q0.015625 -0.96875 -0.328125 -1.71875q-0.328125 -0.75 -0.921875 -1.265625q-0.59375 -0.53125 -1.390625 -0.8125q-0.796875 -0.28125 -1.71875 -0.3125l-4.609375 0zm0 -2.40625l4.03125 0q0.8125 -0.015625 1.59375 -0.25q0.78125 -0.25 1.390625 -0.703125q0.609375 -0.46875 0.984375 -1.140625q0.375 -0.671875 0.375 -1.5625q0 -0.953125 -0.375 -1.625q-0.359375 -0.671875 -0.984375 -1.09375q-0.609375 -0.4375 -1.421875 -0.640625q-0.796875 -0.203125 -1.640625 -0.21875l-3.953125 0l0 7.234375zm21.999992 2.375l-5.8906174 -1.5l0.84375 -2.734375l5.7031174 2.359375l-0.390625 -6.578125l2.78125 0l-0.453125 6.671875l5.671875 -2.34375l0.84375 2.78125l-5.96875 1.46875l4.0 5.0625l-2.28125 1.71875l-3.34375 -5.671875l-3.3125 5.53125l-2.2812424 -1.65625l4.0781174 -5.109375z" fill-rule="nonzero"/><path fill="#000000" fill-opacity="0.0" d="m178.04863 -68.39996l99.55907 172.47244l-54.45671 31.433075l-99.559044 -172.47244z" fill-rule="evenodd"/><path fill="#000000" d="m205.80502 55.384438q0.40597534 -0.23433304 0.828125 -0.31563187q0.42996216 -0.06776428 0.8276825 0.027404785q0.41125488 0.08736038 0.77101135 0.36680603q0.35977173 0.27944946 0.6409912 0.766613q0.28120422 0.48715973 0.34326172 0.9384537q0.06985474 0.46482468 -0.060180664 0.86462784q-0.10870361 0.4055214 -0.39024353 0.7304039q-0.27372742 0.33840942 -0.67970276 0.57274246q-0.3924408 0.22652054 -0.82240295 0.29428864q-0.4086151 0.07348633 -0.81414795 -0.035217285q-0.39772034 -0.09516907 -0.75177 -0.39596176q-0.35975647 -0.27944565 -0.64097595 -0.7666092q-0.28120422 -0.48715973 -0.34326172 -0.9384537q-0.07557678 -0.44348145 0.040924072 -0.8354721q0.11651611 -0.39199448 0.37670898 -0.7225914q0.28153992 -0.3248787 0.6739807 -0.55140305zm6.7886047 26.94989q-0.4806671 -0.8952255 -0.62402344 -1.7686539q-0.14337158 -0.87342834 -0.01133728 -1.707367q0.13201904 -0.83393097 0.49882507 -1.6049271q0.37461853 -0.7574692 0.91426086 -1.4478226q0.53393555 -0.669014 1.2001038 -1.2339478q0.65263367 -0.5571213 1.3698578 -0.9711075l2.2869873 -1.320076q1.9486694 -1.1248016 2.2892914 -2.566246q0.34843445 -1.4279175 -0.7394562 -3.343773l1.962204 -1.1326065q1.1014252 1.9080429 2.4986725 2.328331q1.4185944 0.4260025 3.3808136 -0.70661163l2.3005066 -1.3278809q0.7172241 -0.41399384 1.51828 -0.7139969q0.81459045 -0.30782318 1.6531677 -0.4490738q0.85209656 -0.14906311 1.6875916 -0.10813141q0.8433075 0.054466248 1.631485 0.3572464q0.78819275 0.30278015 1.4806519 0.87729645q0.7002716 0.58805084 1.2663269 1.5061569l-1.3921814 1.1824493q-0.5894928 -0.95869446 -1.358429 -1.2906265q-0.7611084 -0.31840515 -1.6095886 -0.22555542q-0.8271332 0.09856415 -1.7130127 0.5016632q-0.8858795 0.40309143 -1.7113647 0.87957l-2.3005066 1.3278885q-1.6317139 0.9237976 -3.292801 0.8903351q-1.6475372 -0.041275024 -3.1896973 -1.2438965q0.28363037 1.9290543 -0.5181885 3.3841324q-0.78829956 1.4472733 -2.3908386 2.3903275l-2.2869873 1.320076q-0.8390198 0.48429108 -1.58638 1.0960922q-0.7608948 0.619606 -1.2365112 1.3271255q-0.4813385 0.72885895 -0.60191345 1.5201035q-0.11277771 0.80477905 0.34446716 1.6594009l-1.7202759 0.6141052zm15.248367 14.976646l-7.452118 -12.909767l1.79982 -1.0388794l10.898254 2.3150024q1.4607391 0.31147766 2.5409088 0.46375275q1.0801849 0.15227509 1.905777 0.14480591q0.8391266 -0.015281677 1.4798737 -0.18668365q0.6542969 -0.17921448 1.2497253 -0.5228958q0.7307434 -0.42180634 1.2261658 -1.0325089q0.5167694 -0.60498047 0.72480774 -1.3384628q0.21586609 -0.71995544 0.11155701 -1.5257263q-0.08294678 -0.8000488 -0.55163574 -1.6119843q-0.5702362 -0.987854 -1.2762299 -1.5545578q-0.6981964 -0.5531769 -1.5071716 -0.73571014q-0.7876282 -0.17680359 -1.6725311 0.009223938q-0.8770752 0.19956207 -1.797287 0.7307205l-1.4529266 -2.517006q1.2449951 -0.7186203 2.5910797 -0.91828156q1.3596344 -0.20748138 2.6537933 0.12797546q1.3019867 0.3489914 2.46875 1.2451019q1.1745758 0.90963745 2.0494537 2.4252472q0.8045807 1.3938217 1.0256195 2.745613q0.2423706 1.3575134 -0.043136597 2.5506516q-0.28549194 1.1931381 -1.0525513 2.177124q-0.7592468 0.99752045 -1.9365692 1.6770859q-0.87960815 0.50772095 -1.9175415 0.7099228q-1.0243988 0.19438934 -2.1602478 0.1644516q-1.1280365 -0.016403198 -2.3440857 -0.21653748q-1.1947021 -0.19441986 -2.4362793 -0.4700241l-8.792038 -1.9792099l5.7101593 9.892082l-2.043396 1.1794739zm0.39190674 8.523735q0.5035553 0.809845 1.2568665 1.114708q0.75331116 0.3048706 1.6174011 0.23908997q0.8583832 -0.044441223 1.7755127 -0.3934021q0.9114075 -0.32762146 1.750412 -0.81191254l2.2869873 -1.320076q1.6103668 -0.92951965 3.257904 -0.8882446q1.661087 0.033462524 3.1897125 1.2438965q-0.27011108 -1.9368668 0.5181885 -3.38414q0.80181885 -1.4550858 2.4257202 -2.392418l2.3005219 -1.3278809q0.82547 -0.47647858 1.6098022 -1.0554962q0.7921448 -0.56547546 1.2833862 -1.2459335q0.5125885 -0.6747284 0.61753845 -1.493042q0.10496521 -0.81830597 -0.43040466 -1.8082504l1.7124634 -0.62763214q0.5119324 0.94934845 0.6631012 1.8363113q0.15898132 0.90049744 0.026947021 1.7344284q-0.13201904 0.83393097 -0.5144501 1.5778656q-0.37461853 0.7574692 -0.92988586 1.4207535q-0.5417328 0.65547943 -1.2157135 1.2068863q-0.6604614 0.54358673 -1.3776703 0.95757294l-2.3005219 1.3278885q-1.962204 1.1326065 -2.302826 2.5740585q-0.3270874 1.4336319 0.76651 3.328148l-1.962204 1.1326141q-1.107132 -1.8867111 -2.5257263 -2.3127136q-1.4186096 -0.4260025 -3.367279 0.69879913l-2.2869873 1.320076q-1.0825958 0.62488556 -2.3505707 0.959877q-1.2815094 0.34279633 -2.5553284 0.23012543q-1.2660065 -0.09914398 -2.4025116 -0.7240524q-1.1365051 -0.6249161 -1.9290924 -1.9354553l1.3921967 -1.1824493z" fill-rule="nonzero"/></g></svg>