<svg version="1.1" viewBox="0.0 0.0 401.58792650918633 357.4514435695538" fill="none" stroke="none" stroke-linecap="square" stroke-miterlimit="10" xmlns:xlink="http://www.w3.org/1999/xlink" xmlns="http://www.w3.org/2000/svg"><clipPath id="p.0"><path d="m0 0l401.58792 0l0 357.45145l-401.58792 0l0 -357.45145z" clip-rule="nonzero"/></clipPath><g clip-path="url(#p.0)"><path fill="#000000" fill-opacity="0.0" d="m0 0l401.58792 0l0 357.45145l-401.58792 0z" fill-rule="evenodd"/><path fill="#000000" fill-opacity="0.0" d="m166.20146 -9.649304l99.55907 172.47244l-54.45671 31.433075l-99.55905 -172.47244z" fill-rule="evenodd"/><path fill="#000000" d="m181.1664 50.219986l1.3045044 2.2598877l-16.645447 20.576958l-1.3045197 -2.2598877l16.645462 -20.576958zm-3.3787994 22.463036q1.6374359 -0.94514465 3.238556 -1.3281021q1.622467 -0.37722778 3.0477753 -0.18963623q1.4331207 0.20113373 2.6128693 0.9634552q1.1797333 0.7623291 1.9530792 2.1020203q0.7577057 1.3126297 0.8735504 2.544716q0.13720703 1.2378082 -0.28779602 2.4393082l7.5917053 -4.3820267l1.4451141 2.5034714l-20.785858 11.9978485l-1.3279419 -2.3004837l1.4802094 -0.9987259q-1.3149567 -0.21520996 -2.3609161 -0.96455383q-1.0459595 -0.74933624 -1.8271179 -2.102562q-0.7655182 -1.3261642 -0.82206726 -2.7368088q-0.048736572 -1.3971176 0.515213 -2.7329407q0.56396484 -1.3358307 1.6750641 -2.536438q1.1246185 -1.2084274 2.6943817 -2.1145096l0.2841797 -0.16403198zm1.1609344 2.6674957q-1.0690613 0.6170807 -1.8970642 1.4017181q-0.8280182 0.7846298 -1.2853699 1.6800613q-0.44953918 0.90895844 -0.4529419 1.9031906q0.010116577 0.9864197 0.6116028 2.0284042q0.36714172 0.63601685 0.81282043 1.0643158q0.44569397 0.42830658 0.9584961 0.6915817q0.52633667 0.25547028 1.0927277 0.36153412q0.5799103 0.09825134 1.1941528 0.0684433l6.793289 -3.921173q0.6119385 -1.0026932 0.7037964 -2.156227q0.105407715 -1.1613464 -0.60543823 -2.392784q-0.6092987 -1.0555115 -1.4797668 -1.5633621q-0.8626709 -0.49432373 -1.8881683 -0.55187225q-1.0041504 -0.051826477 -2.1112823 0.2805252q-1.0935974 0.32453918 -2.162674 0.94161224l-0.2841797 0.16403198zm10.697052 16.593422q1.9351501 -1.1169891 3.812088 -1.8034744q1.8847504 -0.6729584 3.6295624 -0.9945221q1.7583313 -0.3293686 3.3454895 -0.3614807q1.5949554 -0.018569946 2.9505157 0.17320251q1.3633728 0.205307 2.4560852 0.5668411q1.0927277 0.3615265 1.8621979 0.8194275l-1.3463135 1.4807129q-1.1203308 -0.47187805 -2.70076 -0.6781769q-1.5726318 -0.19277191 -3.5251617 0.050239563q-1.9311829 0.24872589 -4.216736 1.0087051q-2.264206 0.76569366 -4.7947845 2.2263718l-0.18945312 0.10935211q-2.5305634 1.4606781 -4.33963 3.0461197q-1.801239 1.5989761 -2.996048 3.1546173q-1.1870117 1.5691681 -1.8201752 3.035141q-0.6388855 1.48732 -0.831192 2.7168808l-1.8338165 0.35488892q-0.011657715 -0.8953171 0.21398926 -2.0358734q0.21992493 -1.1192017 0.7375641 -2.4102554q0.5119171 -1.2697067 1.3257446 -2.64151q0.8080902 -1.3504562 1.9592285 -2.70047q1.1724854 -1.3442917 2.6979065 -2.6397324q1.5332336 -1.2819061 3.4683838 -2.3988953l0.13531494 -0.07810974zm4.312271 22.191154q0.40597534 -0.23432922 0.828125 -0.31562805q0.42996216 -0.06777191 0.8276825 0.027404785q0.41125488 0.08735657 0.77101135 0.36680603q0.35977173 0.27944946 0.6409912 0.7666092q0.28120422 0.48715973 0.34326172 0.9384537q0.06985474 0.46482086 -0.060180664 0.864624q-0.10870361 0.4055252 -0.39024353 0.7304077q-0.27372742 0.33840942 -0.67970276 0.57273865q-0.3924408 0.22652435 -0.82240295 0.29428864q-0.4086151 0.07348633 -0.81414795 -0.035209656q-0.39772034 -0.09516907 -0.75177 -0.39596558q-0.35975647 -0.27944946 -0.64097595 -0.7666092q-0.28120422 -0.48715973 -0.34326172 -0.9384537q-0.07557678 -0.44348145 0.040924072 -0.8354721q0.11651611 -0.39199066 0.37670898 -0.7225952q0.28153992 -0.32487488 0.6739807 -0.55139923zm18.596176 17.807121q-1.9351501 1.1169739 -3.8199005 1.7899323q-1.8769379 0.6864929 -3.6352844 1.0158691q-1.744812 0.32156372 -3.326233 0.33232117q-1.587143 0.032104492 -2.9505157 -0.17320251q-1.3690948 -0.18395996 -2.4560852 -0.5668335q-1.0927277 -0.3615265 -1.8622131 -0.8194275l1.2245331 -1.4104156q1.1067963 0.47969055 2.706482 0.65682983q1.5939789 0.19848633 3.5522308 -0.06585693q1.9660492 -0.25082397 4.257324 -1.032135q2.2990875 -0.76779175 4.829666 -2.2284698l0.18945312 -0.10934448q2.5305634 -1.4606857 4.3375397 -3.0810013q1.8204956 -1.628128 3.0054016 -3.2321777q1.2062683 -1.59832 1.8394318 -3.0643005q0.6409607 -1.452446 0.8182068 -2.5830917l1.8338165 -0.35489655q0.011657715 0.8953247 -0.22180176 2.0223389q-0.22564697 1.1405563 -0.7375641 2.410263q-0.5041199 1.2832413 -1.3257446 2.64151q-0.81381226 1.3717957 -1.9784851 2.729622q-1.1511383 1.3500061 -2.684372 2.6319275q-1.5254211 1.2954407 -3.4605713 2.4124146l-0.13531494 0.078125zm16.613678 1.4334869l1.3045197 2.2598877l-16.645462 20.576965l-1.3045044 -2.2598877l16.645447 -20.576965zm-5.861374 35.352127l-1.4451141 -2.503479l16.509598 -9.529541l-4.9383698 -4.023178l2.2869873 -1.3200684l7.172989 5.8003235l0.11717224 0.20297241l-19.703262 11.372971z" fill-rule="nonzero"/><path fill="#000000" fill-opacity="0.0" d="m-14.629321 237.61679l218.80315 0l0 62.897644l-218.80315 0z" fill-rule="evenodd"/><path fill="#000000" d="m8.7207 268.10242q0 -2.234375 0.34375 -4.203125q0.359375 -1.96875 0.953125 -3.640625q0.59375 -1.6875 1.359375 -3.078125q0.78125 -1.390625 1.625 -2.46875q0.859375 -1.078125 1.71875 -1.84375q0.859375 -0.765625 1.640626 -1.203125l0.609375 1.90625q-0.96875 0.734375 -1.937501 2.0q-0.953125 1.265625 -1.71875 3.078125q-0.75 1.796875 -1.234375 4.15625q-0.46875 2.34375 -0.46875 5.265625l0 0.21875q0 2.921875 0.46875 5.28125q0.484375 2.359375 1.234375 4.171875q0.765625 1.8125 1.71875 3.09375q0.96875095 1.296875 1.937501 2.078125l-0.609375 1.765625q-0.78125095 -0.4375 -1.656251 -1.203125q-0.859375 -0.75 -1.71875 -1.84375q-0.84375 -1.078125 -1.625 -2.46875q-0.765625 -1.375 -1.359375 -3.046875q-0.578125 -1.6875 -0.9375 -3.65625q-0.34375 -1.96875 -0.34375 -4.203125l0 -0.15625zm29.0 -0.8125l-9.468748 0l0 10.046875l-2.921875 0l0 -22.75l13.968748 0l0 2.46875l-11.046873 0l0 7.78125l9.468748 0l0 2.453125zm17.40625 4.15625l-7.59375 0l-1.828125 5.890625l-2.890625 0l7.34375 -22.75l2.421875 0l7.21875 22.75l-2.875 0l-1.796875 -5.890625zm-6.8125 -2.515625l6.046875 0l-3.0 -9.875l-3.046875 9.875zm23.203129 14.625l-2.328125 0l0 -28.96875l2.328125 0l0 28.96875zm13.515625 -8.671875l11.78125 0l0 2.453125l-15.046875 0l-0.03125 -2.25l11.328125 -18.03125l-11.125 0l0 -2.46875l14.421875 0l0.03125 2.203125l-11.359375 18.09375zm16.8125 2.453125l0 -22.75l6.765625 0q1.40625 0.015625 2.75 0.375q1.34375 0.34375 2.390625 1.078125q1.046875 0.734375 1.671875 1.875q0.625 1.140625 0.609375 2.734375q-0.015625 0.890625 -0.296875 1.625q-0.265625 0.734375 -0.75 1.328125q-0.46875 0.578125 -1.109375 1.015625q-0.640625 0.4375 -1.359375 0.75q0.90625 0.265625 1.65625 0.765625q0.765625 0.484375 1.3125 1.1875q0.546875 0.6875 0.84375 1.5625q0.3125 0.875 0.3125 1.890625q0.015625 1.59375 -0.609375 2.8125q-0.625 1.21875 -1.671875 2.046875q-1.046875 0.8125 -2.421875 1.25q-1.359375 0.4375 -2.8125 0.453125l-7.28125 0zm2.90625 -10.640625l0 8.1875l4.453125 0q0.90625 -0.015625 1.71875 -0.296875q0.8125 -0.296875 1.4375 -0.8125q0.625 -0.515625 0.984375 -1.265625q0.375 -0.75 0.375 -1.703125q0.015625 -0.96875 -0.328125 -1.71875q-0.328125 -0.75 -0.921875 -1.265625q-0.59375 -0.53125 -1.390625 -0.8125q-0.796875 -0.28125 -1.71875 -0.3125l-4.609375 0zm0 -2.40625l4.03125 0q0.8125 -0.015625 1.59375 -0.25q0.78125 -0.25 1.390625 -0.703125q0.609375 -0.46875 0.984375 -1.140625q0.375 -0.671875 0.375 -1.5625q0 -0.953125 -0.375 -1.625q-0.359375 -0.671875 -0.984375 -1.09375q-0.609375 -0.4375 -1.421875 -0.640625q-0.796875 -0.203125 -1.640625 -0.21875l-3.953125 0l0 7.234375zm19.5 -9.703125l3.703125 11.375l4.0 -11.375l3.59375 0l0 22.75l-2.8125 0l0 -9.078125l0.234375 -9.5l-4.203125 12.25l-1.65625 0l-3.859375 -11.921875l0.234375 9.171875l0 9.078125l-2.8125 0l0 -22.75l3.578125 0zm26.578125 13.671875q0 2.234375 -0.359375 4.203125q-0.34375 1.96875 -0.9375 3.65625q-0.59375 1.671875 -1.375 3.046875q-0.765625 1.390625 -1.625 2.46875q-0.84375 1.09375 -1.71875 1.84375q-0.859375 0.765625 -1.640625 1.203125l-0.609375 -1.765625q0.96875 -0.71875 1.921875 -2.015625q0.96875 -1.28125 1.71875 -3.109375q0.765625 -1.828125 1.234375 -4.203125q0.484375 -2.375 0.484375 -5.296875l0 -0.21875q0 -2.921875 -0.5 -5.296875q-0.5 -2.390625 -1.296875 -4.21875q-0.78125 -1.84375 -1.734375 -3.125q-0.9375 -1.28125 -1.828125 -2.0l0.609375 -1.765625q0.78125 0.4375 1.640625 1.203125q0.875 0.765625 1.71875 1.84375q0.859375 1.078125 1.625 2.46875q0.78125 1.390625 1.375 3.078125q0.59375 1.671875 0.9375 3.640625q0.359375 1.96875 0.359375 4.203125l0 0.15625zm9.546875 -13.671875l2.609375 0l9.5 24.703125l-2.609375 0l-9.5 -24.703125zm17.765625 14.15625q0 -1.890625 0.46875 -3.46875q0.484375 -1.59375 1.359375 -2.734375q0.890625 -1.140625 2.140625 -1.78125q1.25 -0.640625 2.796875 -0.640625q1.515625 0 2.640625 0.515625q1.140625 0.5 1.96875 1.46875l0 -8.765625l2.890625 0l0 24.0l-2.65625 0l-0.125 -1.78125q-0.84375 1.03125 -2.015625 1.5625q-1.171875 0.53125 -2.734375 0.53125q-1.53125 0 -2.78125 -0.65625q-1.234375 -0.65625 -2.109375 -1.8125q-0.875 -1.15625 -1.359375 -2.71875q-0.484375 -1.578125 -0.484375 -3.390625l0 -0.328125zm2.890625 0.328125q0 1.234375 0.265625 2.34375q0.265625 1.109375 0.8125 1.953125q0.5625 0.84375 1.421875 1.34375q0.859375 0.484375 2.0625 0.484375q0.734375 0 1.328125 -0.171875q0.59375 -0.171875 1.078125 -0.484375q0.484375 -0.328125 0.859375 -0.765625q0.375 -0.453125 0.65625 -1.0l0 -7.84375q-0.5625 -1.03125 -1.515625 -1.6875q-0.953125 -0.671875 -2.375 -0.671875q-1.21875 0 -2.09375 0.5q-0.859375 0.5 -1.421875 1.359375q-0.546875 0.84375 -0.8125 1.96875q-0.265625 1.109375 -0.265625 2.34375l0 0.328125z" fill-rule="nonzero"/><path fill="#000000" fill-opacity="0.0" d="m-28.162128 176.82152l232.34645 0l0 62.897644l-232.34645 0z" fill-rule="evenodd"/><path fill="#000000" d="m94.40307 208.9009l3.171875 0l0 2.359375l-3.171875 0l0 5.28125l-2.890625 0l0 -5.28125l-10.375 0l0 -1.703125l10.1875 -15.765625l3.078125 0l0 15.109375zm-10.0625 0l7.171875 0l0 -11.265625l-0.46875 0.875l-6.703125 10.390625zm22.8125 1.234375q0.015625 -1.125 0.09375 -1.84375q0.078125 -0.734375 0.328125 -1.296875q0.25 -0.578125 0.71875 -1.09375q0.46875 -0.53125 1.25 -1.25q0.53125 -0.546875 1.078125 -1.125q0.5625 -0.578125 1.015625 -1.203125q0.46875 -0.640625 0.765625 -1.34375q0.296875 -0.703125 0.296875 -1.484375q0 -1.703125 -0.984375 -2.59375q-0.984375 -0.90625 -2.8125 -0.90625q-0.734375 0 -1.4375 0.1875q-0.6875 0.171875 -1.234375 0.5625q-0.53125 0.375 -0.859375 0.96875q-0.328125 0.578125 -0.328125 1.390625l-2.890625 0q0.015625 -1.3125 0.546875 -2.359375q0.53125 -1.046875 1.421875 -1.765625q0.90625 -0.734375 2.125 -1.109375q1.234375 -0.390625 2.65625 -0.390625q1.578125 0 2.8125 0.40625q1.25 0.390625 2.109375 1.15625q0.859375 0.765625 1.3125 1.859375q0.453125 1.09375 0.453125 2.5q0 1.125 -0.390625 2.125q-0.390625 0.984375 -1.0 1.875q-0.609375 0.875 -1.375 1.640625q-0.75 0.765625 -1.484375 1.421875q-0.46875 0.453125 -0.734375 0.859375q-0.25 0.40625 -0.375 0.828125q-0.125 0.421875 -0.15625 0.90625q-0.03125 0.46875 -0.03125 1.078125l-2.890625 0zm-0.328125 4.890625q0 -0.75 0.4375 -1.25q0.453125 -0.5 1.34375 -0.5q0.890625 0 1.34375 0.5q0.46875 0.5 0.46875 1.25q0 0.71875 -0.46875 1.203125q-0.453125 0.484375 -1.34375 0.484375q-0.890625 0 -1.34375 -0.484375q-0.4375 -0.484375 -0.4375 -1.203125zm29.000008 -5.328125q-0.203125 1.578125 -0.8125 2.90625q-0.609375 1.3125 -1.59375 2.265625q-0.96875 0.9375 -2.3125 1.46875q-1.328125 0.515625 -2.96875 0.515625q-1.4062576 0 -2.5625076 -0.390625q-1.140625 -0.40625 -2.046875 -1.109375q-0.890625 -0.703125 -1.546875 -1.65625q-0.640625 -0.953125 -1.078125 -2.078125q-0.421875 -1.125 -0.640625 -2.359375q-0.203125 -1.234375 -0.21875 -2.5l0 -3.171875q0.015625 -1.265625 0.21875 -2.5q0.21875 -1.234375 0.640625 -2.359375q0.4375 -1.125 1.078125 -2.078125q0.65625 -0.96875 1.546875 -1.671875q0.90625 -0.703125 2.046875 -1.09375q1.140625 -0.40625 2.5625076 -0.40625q1.703125 0 3.046875 0.53125q1.34375 0.515625 2.3125 1.484375q0.96875 0.953125 1.546875 2.296875q0.59375 1.34375 0.78125 2.96875l-2.890625 0q-0.140625 -1.03125 -0.484375 -1.921875q-0.34375 -0.890625 -0.921875 -1.5625q-0.578125 -0.671875 -1.421875 -1.046875q-0.828125 -0.390625 -1.96875 -0.390625q-1.0312576 0 -1.8281326 0.34375q-0.78125 0.328125 -1.359375 0.90625q-0.5625 0.578125 -0.953125 1.34375q-0.375 0.765625 -0.609375 1.625q-0.234375 0.859375 -0.34375 1.765625q-0.09375 0.890625 -0.09375 1.734375l0 3.203125q0 0.84375 0.09375 1.75q0.109375 0.890625 0.34375 1.765625q0.234375 0.859375 0.609375 1.625q0.375 0.765625 0.953125 1.359375q0.578125 0.578125 1.359375 0.921875q0.78125 0.328125 1.8281326 0.328125q1.140625 0 1.96875 -0.359375q0.84375 -0.359375 1.421875 -1.0q0.578125 -0.65625 0.921875 -1.53125q0.34375 -0.890625 0.484375 -1.921875l2.890625 0zm12.84375 -5.359375l6.359375 0l0 2.875l-6.359375 0l0 7.046875l-2.890625 0l0 -7.046875l-6.34375 0l0 -2.875l6.34375 0l0 -6.640625l2.890625 0l0 6.640625zm16.28125 1.640625l-2.53125 2.875l0 7.6875l-2.953125 0l0 -22.75l2.953125 0l0 11.109375l2.203125 -2.75l6.671875 -8.359375l3.515625 0l-7.953125 9.953125l8.484375 12.796875l-3.515625 0l-6.875 -10.5625zm19.015625 4.15625q0.015625 -1.125 0.09375 -1.84375q0.078125 -0.734375 0.328125 -1.296875q0.25 -0.578125 0.71875 -1.09375q0.46875 -0.53125 1.25 -1.25q0.53125 -0.546875 1.078125 -1.125q0.5625 -0.578125 1.015625 -1.203125q0.46875 -0.640625 0.765625 -1.34375q0.296875 -0.703125 0.296875 -1.484375q0 -1.703125 -0.984375 -2.59375q-0.984375 -0.90625 -2.8125 -0.90625q-0.734375 0 -1.4375 0.1875q-0.6875 0.171875 -1.234375 0.5625q-0.53125 0.375 -0.859375 0.96875q-0.328125 0.578125 -0.328125 1.390625l-2.890625 0q0.015625 -1.3125 0.546875 -2.359375q0.53125 -1.046875 1.421875 -1.765625q0.90625 -0.734375 2.125 -1.109375q1.234375 -0.390625 2.65625 -0.390625q1.578125 0 2.8125 0.40625q1.25 0.390625 2.109375 1.15625q0.859375 0.765625 1.3125 1.859375q0.453125 1.09375 0.453125 2.5q0 1.125 -0.390625 2.125q-0.390625 0.984375 -1.0 1.875q-0.609375 0.875 -1.375 1.640625q-0.75 0.765625 -1.484375 1.421875q-0.46875 0.453125 -0.734375 0.859375q-0.25 0.40625 -0.375 0.828125q-0.125 0.421875 -0.15625 0.90625q-0.03125 0.46875 -0.03125 1.078125l-2.890625 0zm-0.328125 4.890625q0 -0.75 0.4375 -1.25q0.453125 -0.5 1.34375 -0.5q0.890625 0 1.34375 0.5q0.46875 0.5 0.46875 1.25q0 0.71875 -0.46875 1.203125q-0.453125 0.484375 -1.34375 0.484375q-0.890625 0 -1.34375 -0.484375q-0.4375 -0.484375 -0.4375 -1.203125z" fill-rule="nonzero"/><path fill="#000000" fill-opacity="0.0" d="m270.7252 54.70309l60.81891 105.38582l-54.456696 31.433075l-60.818893 -105.385826z" fill-rule="evenodd"/><path fill="#000000" d="m278.94556 144.66109q0.40597534 -0.23432922 0.8280945 -0.31562805q0.42996216 -0.06774902 0.8276367 0.027435303q0.41125488 0.087371826 0.7709656 0.36683655q0.3597412 0.27947998 0.64089966 0.7666626q0.28115845 0.48719788 0.34317017 0.9385071q0.06982422 0.46484375 -0.0602417 0.8646698q-0.10873413 0.40553284 -0.3902893 0.730423q-0.27374268 0.33842468 -0.679718 0.5727539q-0.39242554 0.22651672 -0.8223877 0.294281q-0.40859985 0.07347107 -0.8140869 -0.035247803q-0.39770508 -0.095184326 -0.751709 -0.3959961q-0.3597412 -0.27946472 -0.64089966 -0.7666626q-0.28115845 -0.48718262 -0.34317017 -0.9385071q-0.07556152 -0.4434967 0.040985107 -0.83551025q0.11654663 -0.3919983 0.3767395 -0.7226105q0.28155518 -0.32489014 0.67401123 -0.55140686zm17.537506 12.789352l-1.6452637 -5.851837l2.789917 -0.6361542l0.807251 6.119049l5.5019226 -3.6268005l1.3901978 2.4088898l-6.0048523 2.9428864l4.8648987 3.7408295l-1.98703 2.12117l-4.255493 -4.4353943l-2.3851318 5.99527l-2.6288452 -1.1166077l3.2409363 -5.7315063l-6.446228 -0.103897095l0.29418945 -2.8038025l6.4635315 0.9779053z" fill-rule="nonzero"/><path stroke="#9e9e9e" stroke-width="1.0" stroke-linecap="butt" d="m214.93498 176.32283l0 174.37532" fill-rule="nonzero"/><path stroke="#9e9e9e" stroke-width="1.0" stroke-linecap="butt" d="m274.75125 176.32283l0 174.37532" fill-rule="nonzero"/><path stroke="#9e9e9e" stroke-width="1.0" stroke-linecap="butt" d="m334.56754 176.32283l0 174.37532" fill-rule="nonzero"/><path stroke="#9e9e9e" stroke-width="1.0" stroke-linecap="butt" d="m394.3838 176.32283l0 174.37532" fill-rule="nonzero"/><path stroke="#9e9e9e" stroke-width="1.0" stroke-linecap="butt" d="m214.4363 176.82152l180.44618 0" fill-rule="nonzero"/><path stroke="#9e9e9e" stroke-width="1.0" stroke-linecap="butt" d="m214.4363 234.61417l180.44618 0" fill-rule="nonzero"/><path stroke="#9e9e9e" stroke-width="1.0" stroke-linecap="butt" d="m214.4363 292.40683l180.44618 0" fill-rule="nonzero"/><path stroke="#9e9e9e" stroke-width="1.0" stroke-linecap="butt" d="m214.4363 350.19946l180.44618 0" fill-rule="nonzero"/><path fill="#000000" fill-opacity="0.0" d="m287.47076 -41.0208l116.09448 201.10236l-54.456696 31.433075l-116.09448 -201.10237z" fill-rule="evenodd"/><path fill="#000000" d="m279.44336 6.0498915q1.9351501 -1.1169872 3.8121033 -1.8034816q1.8847656 -0.67296267 3.6295776 -0.9945345q1.7583618 -0.32938266 3.34552 -0.36150265q1.5950012 -0.018588066 2.950592 0.1731739q1.3633728 0.20529413 2.4561157 0.5668099q1.0927429 0.361516 1.8622437 0.8194053l-1.346283 1.4807019q-1.1203613 -0.47186232 -2.7008362 -0.67814684q-1.5726624 -0.19275284 -3.5252075 0.050266743q-1.9311829 0.24874067 -4.2167664 1.0087247q-2.2642212 0.7657051 -4.7948 2.2263808l-0.18945312 0.10935497q-2.530548 1.4606752 -4.3395996 3.046111q-1.801239 1.5989685 -2.9960327 3.1545916q-1.1869812 1.5691557 -1.8201294 3.0351171q-0.638855 1.4873047 -0.8311157 2.7168446l-1.8338318 0.35490608q-0.011688232 -0.89531136 0.21392822 -2.0358467q0.21990967 -1.1191921 0.7375183 -2.4102287q0.51190186 -1.2696943 1.3256836 -2.6414814q0.80807495 -1.3504448 1.959198 -2.700448q1.1724854 -1.3442831 2.697876 -2.639717q1.5332336 -1.2819028 3.4683838 -2.39889l0.13531494 -0.07811117zm20.322083 8.169192l1.304596 2.2598438l-16.645172 20.576801l-1.304596 -2.259842l16.645172 -20.576803zm-10.696136 26.975351l19.703278 -11.372959l2.6325989 4.5602837q1.1603394 2.0724869 1.4133301 4.073349q0.27435303 2.0065804 -0.28945923 3.8113937q-0.54248047 1.8105316 -1.8845825 3.3609848q-1.3207703 1.5561714 -3.3428345 2.7413712l-1.4479675 0.8357849q-2.0376892 1.1581345 -4.0594482 1.5313034q-2.0003967 0.37888718 -3.85318 -0.049079895q-1.8314209 -0.42224503 -3.445465 -1.6555328q-1.5927124 -1.227562 -2.7936401 -3.2766151l-2.6326294 -4.5602837zm19.11496 -7.641655l-15.602905 9.006195l1.163971 2.0162697q0.93533325 1.5889626 2.1484375 2.4402695q1.226654 0.84349823 2.6113892 1.054512q1.3925781 0.22454834 2.8890686 -0.15214157q1.504303 -0.36315918 3.0142212 -1.2166595l1.4750366 -0.8514099q1.4942932 -0.88056564 2.5476074 -1.9937019q1.066864 -1.1209526 1.5631409 -2.4177094q0.50979614 -1.3045692 0.37927246 -2.7807655q-0.13052368 -1.4761963 -1.0252686 -3.0885925l-1.163971 -2.0162659zm3.7696838 29.125439q-1.9351501 1.1169853 -3.8199158 1.7899513q-1.8769531 0.6864929 -3.635315 1.0158768q-1.744812 0.32157135 -3.3262634 0.33234406q-1.5871582 0.03211975 -2.9505615 -0.173172q-1.3691101 -0.18395233 -2.4561462 -0.5668106q-1.0927429 -0.36151123 -1.8622437 -0.8194046l1.2245178 -1.4104004q1.1068115 0.47967148 2.706543 0.65680313q1.5939941 0.19847488 3.552246 -0.06588745q1.966095 -0.2508316 4.2573853 -1.0321579q2.2991028 -0.76779556 4.8296814 -2.2284737l0.18945312 -0.10935593q2.530548 -1.4606743 4.3375244 -3.080986q1.8204651 -1.6281204 3.005371 -3.232151q1.2062378 -1.5983086 1.8393555 -3.06427q0.6409607 -1.4524307 0.81817627 -2.583065l1.8338318 -0.354908q0.011688232 0.89530945 -0.22177124 2.022316q-0.22561646 1.1405334 -0.7375183 2.4102287q-0.50405884 1.283226 -1.3256836 2.6414795q-0.81378174 1.371788 -1.9784546 2.7296028q-1.151123 1.3500061 -2.6843262 2.6319084q-1.5254211 1.295433 -3.4605713 2.4124184l-0.13531494 0.078113556zm21.988617 8.993328l-1.7264404 -2.99057l-22.626251 13.060158l1.7264099 2.99057l-2.0569153 1.1872864l-3.0935364 -5.358673l26.740143 -15.434731l3.0935059 5.358673l-2.0569153 1.1872864zm-16.0708 19.41536l19.703247 -11.372955l2.6326294 4.56028q1.1603394 2.0724869 1.4133301 4.073349q0.2743225 2.0065842 -0.28948975 3.8113937q-0.54244995 1.8105316 -1.8845825 3.3609848q-1.3207703 1.5561752 -3.342804 2.7413712l-1.447998 0.8357849q-2.0376587 1.1581345 -4.0594177 1.5313034q-2.0003967 0.378891 -3.85318 -0.049079895q-1.8314209 -0.4222412 -3.445465 -1.6555328q-1.5927124 -1.227562 -2.7936707 -3.2766113l-2.6325989 -4.5602875zm19.11496 -7.641655l-15.602936 9.006195l1.1640015 2.0162735q0.93533325 1.5889587 2.1484375 2.4402695q1.226654 0.84349823 2.6113892 1.054512q1.3925476 0.22454834 2.8890686 -0.15214539q1.504303 -0.36315918 3.0142212 -1.2166595l1.4750366 -0.8514099q1.4942932 -0.8805618 2.5476074 -1.9936981q1.066864 -1.1209564 1.5631409 -2.4177094q0.50979614 -1.304573 0.37927246 -2.7807693q-0.13052368 -1.4761963 -1.0252686 -3.0885925l-1.163971 -2.0162659zm15.678772 22.37764l-2.2463684 1.2966461l-0.125 -0.21651459q-0.71868896 -1.2449417 -1.5460815 -2.0843658q-0.8195801 -0.8258972 -1.6958008 -1.3123932q-0.8762207 -0.48648834 -1.8111877 -0.66845703q-0.91363525 -0.17625427 -1.8474731 -0.106285095q-0.9338684 0.06996918 -1.8416443 0.34137726q-0.9078064 0.27140808 -1.7645264 0.6937561q0.6226196 0.109687805 1.2400818 0.36668396q0.63098145 0.24919128 1.192749 0.6285248q0.5831299 0.38506317 1.0835266 0.90808105q0.5217285 0.5287323 0.912323 1.2053375q0.85150146 1.4749832 0.90026855 2.872078q0.062316895 1.3892822 -0.45947266 2.6105728q-0.52182007 1.221283 -1.4981079 2.217804q-0.97631836 0.9965286 -2.1806946 1.6917114q-1.38031 0.7967377 -2.8247986 1.1073074q-1.4366455 0.3241043 -2.802124 0.08393097q-1.3519592 -0.24797821 -2.5437317 -1.0935669q-1.18396 -0.83205414 -2.0510864 -2.3341064q-0.61712646 -1.0690231 -0.82147217 -2.1417923q-0.1965332 -1.0592346 -0.07498169 -2.0675354q0.1350708 -1.0161057 0.5611572 -1.9656525q0.42608643 -0.9495468 1.0620117 -1.7856674q0.6437073 -0.82258606 1.448822 -1.5218506q0.80511475 -0.6992569 1.711792 -1.2226028l1.1773376 -0.6795654q1.353241 -0.78110504 2.800232 -1.3998337q1.4683228 -0.6130066 2.9476624 -0.9256668q1.4793396 -0.31266022 2.9603577 -0.24741364q1.4945374 0.057426453 2.8944702 0.63853455q1.4077148 0.59464264 2.7037048 1.7769928q1.29599 1.1823425 2.413086 3.1174164l0.12496948 0.21651459zm-10.767761 1.8493423q-0.36715698 -0.6360092 -0.9138794 -1.1142502q-0.5466919 -0.47824097 -1.2089233 -0.7815552q-0.66223145 -0.3033142 -1.4030151 -0.39892578q-0.7407837 -0.09560394 -1.4960632 0.03366089l-0.8390198 0.48429108q-1.2991028 0.7498627 -2.134369 1.6469345q-0.8217163 0.88925934 -1.2072144 1.8153687q-0.38549805 0.92611694 -0.35247803 1.8271484q0.046569824 0.893219 0.4840393 1.6510086q0.507782 0.87957764 1.2366638 1.3609009q0.72891235 0.48132324 1.5899658 0.5977249q0.86883545 0.12992859 1.8271179 -0.116500854q0.97961426 -0.24071503 1.953949 -0.80311584q0.86608887 -0.49990845 1.5530396 -1.1850815q0.7005005 -0.69299316 1.0787354 -1.5066681q0.37823486 -0.81368256 0.36654663 -1.708992q-0.011688232 -0.89530945 -0.5350952 -1.8019485zm19.646637 7.061653l3.1013184 5.3722076l-26.740112 15.434723l-3.1013184 -5.3721924l2.0569153 -1.1872864l1.7342529 3.0041046l22.626251 -13.060165l-1.7342224 -3.0041046l2.0569153 -1.1872864zm5.426819 15.90097l1.3045654 2.259842l-16.645172 20.576797l-1.304596 -2.259842l16.645203 -20.576797zm-5.8605957 35.351654l-1.4451904 -2.503418l16.509583 -9.529541l-4.9385376 -4.0230865l2.2869873 -1.3200684l7.1732483 5.800171l0.11715698 0.20298767l-19.703247 11.372955z" fill-rule="nonzero"/><path fill="#000000" fill-opacity="0.0" d="m-28.170004 293.6168l232.34645 0l0 62.897644l-232.34645 0z" fill-rule="evenodd"/><path fill="#000000" d="m6.7545724 310.5868l2.6093755 0l9.499999 24.703125l-2.609375 0l-9.5 -24.703125zm20.875 16.625l0.34375 2.421875l0.421875 -2.421875l2.703125 -10.78125l1.8593769 0l2.6875 10.78125l0.453125 2.65625l0.421875 -2.65625l1.875 -10.78125l2.5625 0l-3.59375 16.90625l-2.28125 0l-2.640625 -10.359375l-0.4375 -2.625l-0.4218769 2.625l-2.609375 10.359375l-2.28125 0l-3.59375 -16.90625l2.5625 0l1.96875 10.78125zm17.531252 -16.625l2.609375 0l9.5 24.703125l-2.609375 0l-9.5 -24.703125zm29.765621 16.890625q0.015625 -1.421875 -1.046875 -2.4375q-1.046875 -1.015625 -3.34375 -1.765625q-1.453125 -0.453125 -2.625 -1.046875q-1.171875 -0.59375 -2.015625 -1.40625q-0.828125 -0.828125 -1.28125 -1.890625q-0.453125 -1.0625 -0.453125 -2.453125q0 -1.3125 0.390625 -2.375q0.40625 -1.0625 1.125 -1.84375q0.734375 -0.796875 1.765625 -1.28125q1.046875 -0.484375 2.3125 -0.640625l0 -3.4375l2.328125 0l0 3.4375q2.625 0.359375 4.078125 2.21875q1.453125 1.84375 1.46875 5.03125l-2.875 0q0 -1.046875 -0.265625 -1.921875q-0.25 -0.890625 -0.75 -1.515625q-0.484375 -0.640625 -1.203125 -1.0q-0.71875 -0.359375 -1.640625 -0.359375q-1.890625 0 -2.859375 0.984375q-0.96875 0.984375 -0.984375 2.65625q0 0.78125 0.25 1.390625q0.25 0.609375 0.78125 1.109375q0.546875 0.5 1.390625 0.9375q0.859375 0.421875 2.0625 0.828125q1.46875 0.484375 2.640625 1.078125q1.171875 0.59375 1.984375 1.390625q0.8125 0.796875 1.234375 1.84375q0.4375 1.046875 0.4375 2.4375q0 1.359375 -0.4375 2.4375q-0.421875 1.078125 -1.203125 1.859375q-0.78125 0.765625 -1.90625 1.234375q-1.109375 0.46875 -2.46875 0.609375l0 3.0l-2.328125 0l0 -2.984375q-1.21875 -0.125 -2.34375 -0.5625q-1.109375 -0.4375 -1.96875 -1.265625q-0.859375 -0.84375 -1.3749962 -2.109375q-0.515625 -1.265625 -0.515625 -3.03125l2.8906212 0q0 1.3125 0.390625 2.1875q0.390625 0.859375 1.0 1.375q0.625 0.515625 1.40625 0.734375q0.78125 0.21875 1.578125 0.21875q1.015625 0 1.828125 -0.25q0.8125 -0.25 1.375 -0.71875q0.5625 -0.484375 0.859375 -1.15625q0.3125 -0.6875 0.3125 -1.546875zm17.875 -17.765625l-3.453125 0l0 26.125l3.453125 0l0 2.375l-6.1875 0l0 -30.875l6.1875 0l0 2.375zm19.9375 17.734375l-7.59375 0l-1.828125 5.890625l-2.890625 0l7.34375 -22.75l2.421875 0l7.21875 22.75l-2.875 0l-1.796875 -5.890625zm-6.8125 -2.515625l6.046875 0l-3.0 -9.875l-3.046875 9.875zm15.125 8.40625l0 -22.75l6.765625 0q1.4062576 0.015625 2.7500076 0.375q1.34375 0.34375 2.390625 1.078125q1.046875 0.734375 1.671875 1.875q0.625 1.140625 0.609375 2.734375q-0.015625 0.890625 -0.296875 1.625q-0.265625 0.734375 -0.75 1.328125q-0.46875 0.578125 -1.109375 1.015625q-0.640625 0.4375 -1.359375 0.75q0.90625 0.265625 1.65625 0.765625q0.765625 0.484375 1.3125 1.1875q0.546875 0.6875 0.84375 1.5625q0.3125 0.875 0.3125 1.890625q0.015625 1.59375 -0.609375 2.8125q-0.625 1.21875 -1.671875 2.046875q-1.046875 0.8125 -2.421875 1.25q-1.359375 0.4375 -2.8125 0.453125l-7.2812576 0zm2.90625 -10.640625l0 8.1875l4.4531326 0q0.90625 -0.015625 1.71875 -0.296875q0.8125 -0.296875 1.4375 -0.8125q0.625 -0.515625 0.984375 -1.265625q0.375 -0.75 0.375 -1.703125q0.015625 -0.96875 -0.328125 -1.71875q-0.328125 -0.75 -0.921875 -1.265625q-0.59375 -0.53125 -1.390625 -0.8125q-0.796875 -0.28125 -1.71875 -0.3125l-4.6093826 0zm0 -2.40625l4.03125 0q0.8125076 -0.015625 1.5937576 -0.25q0.78125 -0.25 1.390625 -0.703125q0.609375 -0.46875 0.984375 -1.140625q0.375 -0.671875 0.375 -1.5625q0 -0.953125 -0.375 -1.625q-0.359375 -0.671875 -0.984375 -1.09375q-0.609375 -0.4375 -1.421875 -0.640625q-0.796875 -0.203125 -1.6406326 -0.21875l-3.953125 0l0 7.234375zm31.062508 6.203125q-0.203125 1.578125 -0.8125 2.90625q-0.609375 1.3125 -1.59375 2.265625q-0.96875 0.9375 -2.3125 1.46875q-1.328125 0.515625 -2.96875 0.515625q-1.40625 0 -2.5625 -0.390625q-1.140625 -0.40625 -2.046875 -1.109375q-0.890625 -0.703125 -1.546875 -1.65625q-0.640625 -0.953125 -1.078125 -2.078125q-0.421875 -1.125 -0.640625 -2.359375q-0.203125 -1.234375 -0.21875 -2.5l0 -3.171875q0.015625 -1.265625 0.21875 -2.5q0.21875 -1.234375 0.640625 -2.359375q0.4375 -1.125 1.078125 -2.078125q0.65625 -0.96875 1.546875 -1.671875q0.90625 -0.703125 2.046875 -1.09375q1.140625 -0.40625 2.5625 -0.40625q1.703125 0 3.046875 0.53125q1.34375 0.515625 2.3125 1.484375q0.96875 0.953125 1.546875 2.296875q0.59375 1.34375 0.78125 2.96875l-2.890625 0q-0.140625 -1.03125 -0.484375 -1.921875q-0.34375 -0.890625 -0.921875 -1.5625q-0.578125 -0.671875 -1.421875 -1.046875q-0.828125 -0.390625 -1.96875 -0.390625q-1.03125 0 -1.828125 0.34375q-0.78125 0.328125 -1.359375 0.90625q-0.5625 0.578125 -0.953125 1.34375q-0.375 0.765625 -0.609375 1.625q-0.234375 0.859375 -0.34375 1.765625q-0.09375 0.890625 -0.09375 1.734375l0 3.203125q0 0.84375 0.09375 1.75q0.109375 0.890625 0.34375 1.765625q0.234375 0.859375 0.609375 1.625q0.375 0.765625 0.953125 1.359375q0.578125 0.578125 1.359375 0.921875q0.78125 0.328125 1.828125 0.328125q1.140625 0 1.96875 -0.359375q0.84375 -0.359375 1.421875 -1.0q0.578125 -0.65625 0.921875 -1.53125q0.34375 -0.890625 0.484375 -1.921875l2.890625 0zm8.078125 -19.15625l6.203125 0l0 30.875l-6.203125 0l0 -2.375l3.46875 0l0 -26.125l-3.46875 0l0 -2.375zm23.96875 13.796875l6.359375 0l0 2.875l-6.359375 0l0 7.046875l-2.890625 0l0 -7.046875l-6.34375 0l0 -2.875l6.34375 0l0 -6.640625l2.890625 0l0 6.640625z" fill-rule="nonzero"/></g></svg>