<svg version="1.1" viewBox="0.0 0.0 353.1417322834646 343.9396325459318" fill="none" stroke="none" stroke-linecap="square" stroke-miterlimit="10" xmlns:xlink="http://www.w3.org/1999/xlink" xmlns="http://www.w3.org/2000/svg"><clipPath id="p.0"><path d="m0 0l353.14172 0l0 343.93964l-353.14172 0l0 -343.93964z" clip-rule="nonzero"/></clipPath><g clip-path="url(#p.0)"><path fill="#000000" fill-opacity="0.0" d="m0 0l353.14172 0l0 343.93964l-353.14172 0z" fill-rule="evenodd"/><path stroke="#9e9e9e" stroke-width="1.0" stroke-linecap="butt" d="m222.2336 208.32283l0 122.58794" fill-rule="nonzero"/><path stroke="#9e9e9e" stroke-width="1.0" stroke-linecap="butt" d="m281.11285 208.32283l0 122.58794" fill-rule="nonzero"/><path stroke="#9e9e9e" stroke-width="1.0" stroke-linecap="butt" d="m339.99213 208.32283l0 122.58794" fill-rule="nonzero"/><path stroke="#9e9e9e" stroke-width="1.0" stroke-linecap="butt" d="m221.73491 208.82152l118.755905 0" fill-rule="nonzero"/><path stroke="#9e9e9e" stroke-width="1.0" stroke-linecap="butt" d="m221.73491 269.6168l118.755905 0" fill-rule="nonzero"/><path stroke="#9e9e9e" stroke-width="1.0" stroke-linecap="butt" d="m221.73491 330.41208l118.755905 0" fill-rule="nonzero"/><path fill="#000000" fill-opacity="0.0" d="m184.2586 22.350695l99.55905 172.47244l-54.456696 31.433075l-99.55905 -172.47244z" fill-rule="evenodd"/><path fill="#000000" d="m208.8238 98.85113l1.3045044 2.2598877l-16.645447 20.576965l-1.3045197 -2.2598877l16.645462 -20.576965zm-3.3787994 22.463036q1.6374207 -0.94514465 3.238556 -1.3280945q1.6224518 -0.3772354 3.0477753 -0.18963623q1.4331207 0.2011261 2.612854 0.9634476q1.1797485 0.7623291 1.9530792 2.1020203q0.75772095 1.3126297 0.8735657 2.5447235q0.13720703 1.2378082 -0.28781128 2.4393005l7.5917206 -4.3820267l1.4451141 2.5034714l-20.785858 11.997841l-1.3279419 -2.300476l1.4802094 -0.99871826q-1.3149567 -0.21520996 -2.3609314 -0.96455383q-1.0459595 -0.7493439 -1.8271027 -2.1025696q-0.7655182 -1.3261566 -0.82206726 -2.7368011q-0.048736572 -1.3971252 0.515213 -2.7329483q0.56396484 -1.3358307 1.6750488 -2.536438q1.1246338 -1.2084198 2.694397 -2.1145096l0.2841797 -0.16403198zm1.1609344 2.6675034q-1.0690613 0.61707306 -1.8970795 1.4017105q-0.8280029 0.78463745 -1.2853546 1.6800613q-0.44953918 0.90896606 -0.45295715 1.9031906q0.010131836 0.9864197 0.61161804 2.0283966q0.36712646 0.63601685 0.81282043 1.064331q0.44569397 0.42829895 0.9584961 0.6915741q0.52633667 0.25546265 1.0927277 0.3615265q0.5799103 0.0982666 1.1941528 0.06845093l6.793289 -3.921173q0.6119385 -1.0026855 0.7037964 -2.156227q0.105392456 -1.1613464 -0.60543823 -2.3927765q-0.6092987 -1.0555191 -1.4797821 -1.5633698q-0.86265564 -0.4943161 -1.8881531 -0.55187225q-1.0041656 -0.051826477 -2.1112976 0.2805252q-1.0935974 0.32453918 -2.1626587 0.94161224l-0.2841797 0.16403961zm16.025665 19.886192l3.1792603 5.5076294l-2.489975 1.4372406l-3.1792603 -5.5076294l-6.103134 3.522812l-1.4451141 -2.5034637l6.103134 -3.522812l-3.1714478 -5.494095l2.489975 -1.4372406l3.1714478 5.494095l5.7512817 -3.3197174l1.4451294 2.5034637l-5.751297 3.3197174zm14.992981 4.876709l1.3045197 2.2598877l-16.645462 20.57695l-1.3045044 -2.2598877l16.645447 -20.57695zm9.6002655 16.631134l1.3045197 2.2598877l-16.645462 20.576965l-1.3045044 -2.2598877l16.645447 -20.576965zm-2.3674774 28.590591q0.9821472 -0.5488739 1.643692 -0.84051514q0.6750946 -0.299469 1.2872467 -0.364151q0.6256714 -0.07249451 1.3065948 0.07571411q0.69444275 0.14038086 1.7075043 0.45768738q0.7392273 0.18670654 1.5133362 0.37132263q0.7819061 0.19815063 1.5497437 0.27815247q0.7891693 0.08570862 1.5465393 -0.008682251q0.75737 -0.09439087 1.4340057 -0.48493958q1.4750366 -0.8514099 1.7542725 -2.14917q0.29275513 -1.3055725 -0.6211853 -2.888855q-0.36712646 -0.63601685 -0.8810425 -1.1512299q-0.4925537 -0.5095062 -1.1042633 -0.78785706q-0.5903778 -0.27262878 -1.2686462 -0.25997925q-0.6647339 0.004837036 -1.3684235 0.41101074l-1.4451294 -2.5034637q1.1445465 -0.64260864 2.316803 -0.7058563q1.1722717 -0.06324768 2.2400208 0.3487854q1.0890808 0.41775513 2.0231628 1.2857971q0.9554138 0.8737793 1.6662598 2.1052094q0.7889404 1.3667603 1.0541992 2.6388855q0.2866211 1.2778625 0.05316162 2.4048767q-0.23345947 1.1270294 -0.95422363 2.0662384q-0.72073364 0.939209 -1.9386597 1.6422119q-0.9743347 0.5623932 -2.0357056 0.723999q-1.047821 0.15379333 -2.1238098 0.0712738q-1.0624695 -0.09034729 -2.1083221 -0.37068176q-1.0380402 -0.26679993 -1.9735413 -0.5747528q-0.6267853 -0.17944336 -1.1114197 -0.20640564q-0.4768219 -0.013427734 -0.9046936 0.08921814q-0.4278717 0.102645874 -0.86299133 0.3177185q-0.42160034 0.20727539 -0.94937134 0.51190186l-1.4451141 -2.5034637zm-4.399704 2.1606903q0.64956665 -0.3749237 1.3013153 -0.24598694q0.6595764 0.14248657 1.1048279 0.91381836q0.44525146 0.77134705 0.23875427 1.4137421q-0.19869995 0.6559143 -0.8482666 1.0308533q-0.6224823 0.35931396 -1.2763367 0.19548035q-0.64604187 -0.15028381 -1.0912933 -0.92163086q-0.44525146 -0.7713318 -0.25227356 -1.4059143q0.2007904 -0.621048 0.8232727 -0.98036194z" fill-rule="nonzero"/><path fill="#000000" fill-opacity="0.0" d="m23.08399 269.6168l199.14961 0l0 62.897644l-199.14961 0z" fill-rule="evenodd"/><path fill="#000000" d="m101.62423 286.5868l2.609375 0l9.5 24.703125l-2.609375 0l-9.5 -24.703125zm29.593742 16.59375l1.734375 -16.59375l2.734375 0l-2.765625 22.75l-2.953125 0l-2.9218674 -17.140625l-2.953125 17.140625l-2.96875 0l-2.765625 -22.75l2.75 0l1.734375 16.59375l2.921875 -16.59375l2.5156174 0l2.9375 16.59375zm13.1875 -0.25q0.015625 -1.125 0.09375 -1.84375q0.078125 -0.734375 0.328125 -1.296875q0.25 -0.578125 0.71875 -1.09375q0.46875 -0.53125 1.25 -1.25q0.53125 -0.546875 1.078125 -1.125q0.5625 -0.578125 1.015625 -1.203125q0.46875 -0.640625 0.765625 -1.34375q0.296875 -0.703125 0.296875 -1.484375q0 -1.703125 -0.984375 -2.59375q-0.984375 -0.90625 -2.8125 -0.90625q-0.734375 0 -1.4375 0.1875q-0.6875 0.171875 -1.234375 0.5625q-0.53125 0.375 -0.859375 0.96875q-0.328125 0.578125 -0.328125 1.390625l-2.890625 0q0.015625 -1.3125 0.546875 -2.359375q0.53125 -1.046875 1.421875 -1.765625q0.90625 -0.734375 2.125 -1.109375q1.234375 -0.390625 2.65625 -0.390625q1.578125 0 2.8125 0.40625q1.25 0.390625 2.109375 1.15625q0.859375 0.765625 1.3125 1.859375q0.453125 1.09375 0.453125 2.5q0 1.125 -0.390625 2.125q-0.390625 0.984375 -1.0 1.875q-0.609375 0.875 -1.375 1.640625q-0.75 0.765625 -1.484375 1.421875q-0.46875 0.453125 -0.734375 0.859375q-0.25 0.40625 -0.375 0.828125q-0.125 0.421875 -0.15625 0.90625q-0.03125 0.46875 -0.03125 1.078125l-2.890625 0zm-0.328125 4.890625q0 -0.75 0.4375 -1.25q0.453125 -0.5 1.34375 -0.5q0.890625 0 1.34375 0.5q0.46875 0.5 0.46875 1.25q0 0.71875 -0.46875 1.203125q-0.453125 0.484375 -1.34375 0.484375q-0.890625 0 -1.34375 -0.484375q-0.4375 -0.484375 -0.4375 -1.203125zm15.15625 -21.234375l2.609375 0l9.5 24.703125l-2.609375 0l-9.5 -24.703125zm18.015625 22.75l0 -22.75l5.265625 0q2.375 0.03125 4.234375 0.8125q1.875 0.765625 3.15625 2.15625q1.296875 1.375 1.96875 3.3125q0.6875 1.921875 0.703125 4.265625l0 1.671875q-0.015625 2.34375 -0.703125 4.28125q-0.671875 1.921875 -1.96875 3.3125q-1.28125 1.375 -3.15625 2.15625q-1.859375 0.765625 -4.234375 0.78125l-5.265625 0zm2.9375 -20.375l0 18.015625l2.328125 0q1.84375 -0.015625 3.1875 -0.640625q1.34375 -0.640625 2.21875 -1.734375q0.890625 -1.09375 1.3125 -2.578125q0.4375 -1.484375 0.453125 -3.21875l0 -1.703125q-0.015625 -1.734375 -0.453125 -3.203125q-0.4375 -1.484375 -1.3125 -2.5625q-0.875 -1.09375 -2.21875 -1.71875q-1.34375 -0.625 -3.1875 -0.65625l-2.328125 0zm24.9375 8.171875l6.359375 0l0 2.875l-6.359375 0l0 7.046875l-2.890625 0l0 -7.046875l-6.34375 0l0 -2.875l6.34375 0l0 -6.640625l2.890625 0l0 6.640625z" fill-rule="nonzero"/><path fill="#000000" fill-opacity="0.0" d="m-10.104987 208.82152l232.34645 0l0 62.89763l-232.34645 0z" fill-rule="evenodd"/><path fill="#000000" d="m14.819589 224.91652l-3.453125 0l0 26.125l3.453125 0l0 2.375l-6.1875 0l0 -30.875l6.1875 0l0 2.375zm12.656251 13.046875l-2.6875 0l5.0 -12.171875l1.984375 0l4.984373 12.171875l-2.671875 0l-3.093748 -7.59375l-0.234375 -1.0625l-0.234375 1.0625l-3.046875 7.59375zm29.906248 1.875q0 2.171875 -0.5 3.859375q-0.5 1.671875 -1.4375 2.828125q-0.9375 1.140625 -2.296875 1.734375q-1.359375 0.59375 -3.109375 0.59375q-1.734375 0 -3.109375 -0.59375q-1.359375 -0.59375 -2.3125 -1.734375q-0.953125 -1.15625 -1.46875 -2.828125q-0.5 -1.6875 -0.5 -3.859375l0 -5.328125q0 -2.171875 0.5 -3.84375q0.5 -1.6875 1.4375 -2.84375q0.953125 -1.15625 2.3125 -1.75q1.375 -0.609375 3.109375 -0.609375q1.75 0 3.109375 0.609375q1.375 0.59375 2.3125 1.75q0.953125 1.15625 1.453125 2.84375q0.5 1.671875 0.5 3.84375l0 5.328125zm-11.828125 -0.578125l8.859375 -6.796875q-0.25 -2.265625 -1.328125 -3.4375q-1.0625 -1.1875 -3.078125 -1.1875q-2.28125 0 -3.375 1.546875q-1.078125 1.53125 -1.078125 4.484375l0 5.390625zm8.921875 -4.03125l-8.84375 6.765625q0.265625 2.203125 1.359375 3.359375q1.09375 1.15625 3.046875 1.15625q2.296875 0 3.359375 -1.5625q1.078125 -1.5625 1.078125 -4.5l0 -5.21875zm20.46875 4.546875l-11.953125 0l0 -2.375l11.953125 0l0 2.375zm20.578125 -8.046875q-0.015625 1.703125 -0.921875 3.03125q-0.90625 1.328125 -2.421875 2.078125q0.875 0.375 1.578125 0.9375q0.71875 0.546875 1.21875 1.265625q0.515625 0.71875 0.78125 1.5625q0.28125 0.84375 0.28125 1.796875q0 1.546875 -0.578125 2.75q-0.5625 1.203125 -1.546875 2.03125q-0.96875 0.8125 -2.28125 1.25q-1.3125 0.421875 -2.8125 0.421875q-1.53125 0 -2.859375 -0.421875q-1.3125 -0.421875 -2.296875 -1.234375q-0.96875 -0.828125 -1.53125 -2.03125q-0.5625 -1.203125 -0.5625 -2.765625q0 -0.953125 0.265625 -1.796875q0.265625 -0.859375 0.765625 -1.5625q0.5 -0.71875 1.203125 -1.28125q0.703125 -0.5625 1.578125 -0.9375q-0.75 -0.375 -1.359375 -0.890625q-0.609375 -0.53125 -1.03125 -1.171875q-0.421875 -0.65625 -0.65625 -1.421875q-0.234375 -0.765625 -0.234375 -1.609375q0 -1.484375 0.5 -2.640625q0.5 -1.171875 1.375 -1.96875q0.890625 -0.796875 2.109375 -1.21875q1.234375 -0.421875 2.6875 -0.421875q1.4375 0 2.671875 0.421875q1.234375 0.421875 2.140625 1.21875q0.90625 0.796875 1.421875 1.96875q0.515625 1.15625 0.515625 2.640625zm-2.375 10.609375q0 -0.953125 -0.328125 -1.75q-0.3125 -0.796875 -0.890625 -1.359375q-0.578125 -0.578125 -1.390625 -0.890625q-0.796875 -0.3125 -1.75 -0.3125q-0.984375 0 -1.78125 0.3125q-0.796875 0.3125 -1.359375 0.890625q-0.5625 0.5625 -0.875 1.359375q-0.296875 0.796875 -0.296875 1.75q0 0.984375 0.296875 1.765625q0.3125 0.765625 0.875 1.296875q0.5625 0.53125 1.359375 0.8125q0.8125 0.28125 1.8125 0.28125q0.953125 0 1.75 -0.28125q0.796875 -0.28125 1.359375 -0.8125q0.578125 -0.53125 0.890625 -1.296875q0.328125 -0.78125 0.328125 -1.765625zm-0.53125 -10.5625q0 -0.859375 -0.296875 -1.578125q-0.28125 -0.71875 -0.796875 -1.234375q-0.5 -0.53125 -1.203125 -0.8125q-0.703125 -0.296875 -1.546875 -0.296875q-0.84375 0 -1.53125 0.28125q-0.6875 0.265625 -1.1875 0.78125q-0.5 0.515625 -0.78125 1.25q-0.265625 0.71875 -0.265625 1.609375q0 0.890625 0.265625 1.609375q0.28125 0.703125 0.78125 1.21875q0.515625 0.5 1.203125 0.78125q0.703125 0.265625 1.546875 0.265625q0.828125 0 1.53125 -0.265625q0.703125 -0.28125 1.203125 -0.78125q0.515625 -0.515625 0.796875 -1.234375q0.28125 -0.71875 0.28125 -1.59375zm11.71875 -9.234375l6.203125 0l0 30.875l-6.203125 0l0 -2.375l3.46875 0l0 -26.125l-3.46875 0l0 -2.375zm25.718758 2.375l-3.4531326 0l0 26.125l3.4531326 0l0 2.375l-6.1875076 0l0 -30.875l6.1875076 0l0 2.375zm12.25 0.875l3.703125 11.375l4.0 -11.375l3.59375 0l0 22.75l-2.8125 0l0 -9.078125l0.234375 -9.5l-4.203125 12.25l-1.65625 0l-3.859375 -11.921875l0.234375 9.171875l0 9.078125l-2.8125 0l0 -22.75l3.578125 0zm28.671875 13.984375l-11.953125 0l0 -2.375l11.953125 0l0 2.375zm9.734375 -0.359375l0 9.125l-2.890625 0l0 -22.75l7.375 0q1.53125 0.03125 2.890625 0.484375q1.375 0.453125 2.40625 1.3125q1.03125 0.859375 1.625 2.125q0.609375 1.265625 0.609375 2.90625q0 1.640625 -0.609375 2.90625q-0.59375 1.25 -1.625 2.109375q-1.03125 0.859375 -2.40625 1.3125q-1.359375 0.453125 -2.890625 0.46875l-4.484375 0zm0 -2.375l4.484375 0q1.0 -0.015625 1.84375 -0.3125q0.84375 -0.3125 1.46875 -0.875q0.625 -0.5625 0.96875 -1.359375q0.359375 -0.8125 0.359375 -1.84375q0 -1.03125 -0.359375 -1.859375q-0.34375 -0.828125 -0.96875 -1.40625q-0.609375 -0.578125 -1.46875 -0.890625q-0.84375 -0.3125 -1.84375 -0.328125l-4.484375 0l0 8.875zm19.65625 -14.5l6.203125 0l0 30.875l-6.203125 0l0 -2.375l3.46875 0l0 -26.125l-3.46875 0l0 -2.375z" fill-rule="nonzero"/><path fill="#000000" fill-opacity="0.0" d="m233.5279 -9.0208025l116.09448 201.10236l-54.456696 31.433075l-116.09447 -201.10236z" fill-rule="evenodd"/><path fill="#000000" d="m231.9956 20.517424l-1.7264252 -2.990572l-22.626266 13.060158l1.7264252 2.990574l-2.0569305 1.1872864l-3.0935059 -5.358671l26.740128 -15.434733l3.093521 5.358672l-2.0569458 1.1872864zm-4.9719543 17.483187l-1.3436584 -2.3275032l13.041595 -1.7546082l0.9921112 1.7185631l-8.049789 10.401554l-1.3358307 -2.3139725l5.030014 -6.4755287l0.8030243 -0.7341347l-1.037384 0.3281746l-8.100082 1.1574554zm8.131378 16.99189l-7.902954 4.5616837l-1.4452057 -2.503418l19.703247 -11.372963l3.6872253 6.387104q0.7384949 1.3417587 1.0256958 2.7455635q0.29499817 1.4173355 0.06629944 2.740059q-0.22869873 1.3227234 -1.0279694 2.4696388q-0.7914734 1.1604462 -2.212387 1.9806099q-1.4208984 0.82016754 -2.821701 0.9251175q-1.3794403 0.110672 -2.6393127 -0.35282898q-1.2598724 -0.46350098 -2.3397522 -1.4277954q-1.0720825 -0.9507637 -1.851181 -2.269085l-2.2420044 -3.883686zm2.0569305 -1.1872864l2.2420044 3.8836823q0.513504 0.8582382 1.1924591 1.4405556q0.6924896 0.57450485 1.4921417 0.8345871q0.79963684 0.26007843 1.6616516 0.1594162q0.8833618 -0.094940186 1.7765045 -0.61047363q0.8931427 -0.51553345 1.4306946 -1.240757q0.5453491 -0.7116928 0.73358154 -1.5419807q0.19602966 -0.816761 0.03703308 -1.7172432q-0.15119934 -0.88694763 -0.637619 -1.760807l-2.2420197 -3.8836823l-7.686432 4.4367027zm14.17569 27.430786q-1.0633392 0.59573364 -2.2474976 1.0447006q-1.1628113 0.45469666 -2.3673096 0.6808853q-1.2045135 0.22618866 -2.3908844 0.17128754q-1.1785431 -0.041366577 -2.2655792 -0.42422485q-1.0870209 -0.3828659 -2.0361938 -1.1519852q-0.9278412 -0.76340485 -1.6309052 -1.9812851q-0.70306396 -1.2178802 -0.907959 -2.4166183q-0.18354797 -1.193016 0.028533936 -2.325737q0.21209717 -1.1327286 0.7578888 -2.1874466q0.5593262 -1.0625305 1.3498077 -2.0059204q0.79829407 -0.92985535 1.7657928 -1.722847q0.96751404 -0.79299164 2.0152283 -1.4157867l2.246399 -1.2966461q1.0633392 -0.59573364 2.2261353 -1.0504227q1.1841583 -0.4489746 2.3886719 -0.67516327q1.212326 -0.21265411 2.3908691 -0.17128754q1.1999054 0.047088623 2.2869263 0.4299469q1.1005707 0.3750534 2.0283966 1.1384506q0.9491577 0.7691269 1.6522522 1.9870071q0.70306396 1.2178802 0.8944092 2.4244308q0.20489502 1.1987305 -0.0072021484 2.331459q-0.21209717 1.132721 -0.7792053 2.1817245q-0.5458069 1.054718 -1.3440857 1.9845734q-0.7904968 0.9433899 -1.7793427 1.7306595q-0.9810333 0.80080414 -2.0287628 1.4235992l-2.2463837 1.2966461zm0.8438721 -3.78862q0.6958771 -0.41970825 1.4068298 -0.938324q0.72447205 -0.5264282 1.3515778 -1.1590195q0.64845276 -0.6268692 1.1376038 -1.342186q0.502655 -0.7231369 0.73565674 -1.5071106q0.24655151 -0.7917862 0.1614685 -1.6266937q-0.0715332 -0.84272766 -0.5793152 -1.7223053q-0.49995422 -0.8660507 -1.193985 -1.3494644q-0.69403076 -0.48340607 -1.5030212 -0.6659317q-0.79545593 -0.1903305 -1.6730957 -0.11672974q-0.8641052 0.06578827 -1.7391052 0.30023193q-0.85365295 0.24015808 -1.6796875 0.5906677q-0.8046875 0.3562317 -1.502655 0.741066l-2.2734528 1.3122635q-0.6823425 0.41189575 -1.4068146 0.938324q-0.7166748 0.53995514 -1.3573151 1.1803589q-0.6271057 0.63259125 -1.129776 1.3557205q-0.5026703 0.7231369 -0.74920654 1.5149231q-0.23300171 0.7839737 -0.1614685 1.6266937q0.0715332 0.84272003 0.5793152 1.7223053q0.5077667 0.87957764 1.2017975 1.3629913q0.70184326 0.4969406 1.4894867 0.6737442q0.8089905 0.182518 1.6652985 0.10319519q0.8776398 -0.07359314 1.7312927 -0.31375885q0.87498474 -0.23444366 1.6853943 -0.6120148q0.81822205 -0.36403656 1.5297241 -0.75668335l2.2734528 -1.3122635zm2.587677 23.890213q-2.180191 -0.40135193 -3.8134918 -1.6054764q-1.633316 -1.2041321 -2.729065 -3.133484q-0.6895447 -1.2256927 -0.9313965 -2.4572144q-0.22052002 -1.2257996 -0.06674194 -2.3970337q0.16731262 -1.179039 0.6683197 -2.280075q0.50102234 -1.1010437 1.2467194 -2.090744q0.76704407 -0.9839783 1.7246399 -1.8253784q0.97895813 -0.8356781 2.0808105 -1.4897232l2.2869873 -1.320076q1.1039429 -0.6191635 2.288086 -1.0681381q1.2055054 -0.44325256 2.4256287 -0.64237976q1.2201233 -0.19911957 2.4007874 -0.12287903q1.1941833 0.06843567 2.2697449 0.4939804q1.0969238 0.43126678 2.0404053 1.2217331q0.9434509 0.7904663 1.6621399 2.0354156q0.79681396 1.3802567 1.0355835 2.7939682q0.25231934 1.4058914 -0.04611206 2.7327957q-0.28494263 1.3190918 -1.1034546 2.495163q-0.8049927 1.1682587 -2.1150208 2.0867767l-1.4295654 -2.4763565q0.76660156 -0.64095306 1.3041687 -1.3661728q0.5510559 -0.7330322 0.76846313 -1.544075q0.22518921 -0.7975006 0.103149414 -1.6651993q-0.10852051 -0.87551117 -0.647522 -1.8092194q-0.5155945 -0.8931122 -1.2252502 -1.4035873q-0.69610596 -0.51828766 -1.5072021 -0.7356796q-0.8110962 -0.21739197 -1.6965332 -0.15733337q-0.8719177 0.052261353 -1.7547302 0.27317047q-0.8828125 0.22090912 -1.7223816 0.57922363q-0.8395691 0.35832214 -1.5703125 0.78012085l-2.3140564 1.335701q-0.73646545 0.44313812 -1.4723816 1.0122528q-0.71458435 0.5748291 -1.3317871 1.2558289q-0.61720276 0.68099976 -1.0750885 1.4504471q-0.45788574 0.76945496 -0.6674652 1.5940247q-0.20175171 0.8380966 -0.106781006 1.7214203q0.10850525 0.87550354 0.6105499 1.7764282q0.2833252 0.52202606 0.65774536 1.0455933q0.38223267 0.53710175 0.8492737 0.9711151q0.46705627 0.43401337 1.0033112 0.7378845q0.5497894 0.29605103 1.1760406 0.34951782l4.4407196 -2.5271606l-2.312317 -4.0054703l2.111084 -1.2185364l3.6871948 6.387108l-7.202896 4.2117233zm20.946396 -3.2503662l-8.000214 8.893562l11.851471 -2.22229l1.7967224 3.1123657l-19.703247 11.372955l-1.4061279 -2.4357605l7.862335 -4.538246l8.34491 -4.5461655l-12.710815 2.4837952l-0.82806396 -1.4343948l8.395721 -9.302269l-7.8263855 4.7880936l-7.8623505 4.538246l-1.4061432 -2.4357605l19.703247 -11.372955l1.7889404 3.0988235zm12.634308 15.38501l3.1013184 5.3722076l-26.740143 15.434731l-3.1013184 -5.3722076l2.0569153 -1.1872864l1.7342529 3.0041046l22.626282 -13.060158l-1.7342529 -3.0041046l2.0569458 -1.1872864zm10.801422 23.46096l-1.7264099 -2.99057l-22.626282 13.06015l1.7264404 2.99057l-2.0569458 1.1872864l-3.0935059 -5.358673l26.740143 -15.434723l3.0935059 5.358673l-2.0569458 1.1872864zm-4.048065 19.114838l-3.7554932 -0.75494385l-6.657959 3.8430634l-1.476471 -2.5575562l19.703278 -11.372955l1.4764404 2.557541l-9.621582 5.5536957l3.4831848 0.53326416l10.575562 1.5992126l1.7576599 3.0447083l-12.596436 -1.9121246l-6.841217 13.745178l-1.7576599 -3.0447083l5.7106934 -11.234375zm22.771027 15.036499l-2.246399 1.2966461l-0.12496948 -0.21650696q-0.71868896 -1.2449493 -1.5460815 -2.0843658q-0.8195801 -0.8258972 -1.6958008 -1.3123932q-0.8762207 -0.48649597 -1.8111877 -0.66845703q-0.91363525 -0.17625427 -1.8475037 -0.106277466q-0.9338684 0.06996155 -1.8416443 0.34136963q-0.9077759 0.27140808 -1.7644958 0.6937561q0.6226196 0.109680176 1.2400513 0.36668396q0.63098145 0.24919128 1.1927795 0.6285248q0.58309937 0.38505554 1.0834961 0.90808105q0.52175903 0.5287323 0.9123535 1.2053375q0.85147095 1.4749908 0.90026855 2.8720856q0.062316895 1.3892822 -0.45950317 2.6105652q-0.52178955 1.221283 -1.4981079 2.217804q-0.97628784 0.996521 -2.1806946 1.6917114q-1.38031 0.7967377 -2.824768 1.1072998q-1.4366455 0.32411194 -2.8021545 0.0839386q-1.3519287 -0.24798584 -2.5437012 -1.0935669q-1.1839905 -0.83206177 -2.0510864 -2.3341064q-0.617157 -1.0690308 -0.8215027 -2.1418q-0.19650269 -1.0592346 -0.07498169 -2.0675201q0.13510132 -1.0161133 0.56118774 -1.9656677q0.42608643 -0.9495392 1.0619812 -1.7856598q0.6437073 -0.82258606 1.4488525 -1.5218506q0.80511475 -0.6992645 1.711792 -1.2225952l1.1773071 -0.6795654q1.353241 -0.7811127 2.800232 -1.3998413q1.4683533 -0.6130066 2.9476929 -0.92567444q1.4793396 -0.3126526 2.9603271 -0.247406q1.4945374 0.057434082 2.8944702 0.63853455q1.4077454 0.59465027 2.7037354 1.7769928q1.2959595 1.1823425 2.4130554 3.1174164l0.125 0.21650696zm-10.767761 1.84935q-0.36715698 -0.6360016 -0.9138794 -1.1142578q-0.5466919 -0.47824097 -1.2089233 -0.7815552q-0.66223145 -0.3033142 -1.4030151 -0.39891052q-0.7407837 -0.09561157 -1.4960632 0.03366089l-0.8390198 0.48428345q-1.2991333 0.7498627 -2.134369 1.6469269q-0.8217468 0.88926697 -1.2072449 1.8153687q-0.38546753 0.92611694 -0.3524475 1.8271484q0.046569824 0.893219 0.4840393 1.6510162q0.50775146 0.87957764 1.2366638 1.3609009q0.72891235 0.48132324 1.5899353 0.5977173q0.86883545 0.12994385 1.8271179 -0.116500854q0.9796448 -0.2407074 1.9539795 -0.8031006q0.86608887 -0.49990845 1.5530396 -1.1850891q0.70047 -0.69299316 1.0787048 -1.5066681q0.37823486 -0.8136749 0.36654663 -1.7089844q-0.011688232 -0.8953247 -0.5350647 -1.8019562zm19.646637 7.0616455l3.1013184 5.3722076l-26.740143 15.434738l-3.1013184 -5.3722076l2.0569458 -1.1872864l1.7342224 3.0041046l22.626282 -13.060165l-1.7342529 -3.0040894l2.0569458 -1.1873016z" fill-rule="nonzero"/></g></svg>