<svg version="1.1" viewBox="0.0 0.0 285.8556430446194 251.01049868766404" fill="none" stroke="none" stroke-linecap="square" stroke-miterlimit="10" xmlns:xlink="http://www.w3.org/1999/xlink" xmlns="http://www.w3.org/2000/svg"><clipPath id="p.0"><path d="m0 0l285.85565 0l0 251.0105l-285.85565 0l0 -251.0105z" clip-rule="nonzero"/></clipPath><g clip-path="url(#p.0)"><path fill="#000000" fill-opacity="0.0" d="m0 0l285.85565 0l0 251.0105l-285.85565 0z" fill-rule="evenodd"/><path stroke="#9e9e9e" stroke-width="1.0" stroke-linecap="butt" d="m157.84514 116.845146l0 122.58793" fill-rule="nonzero"/><path stroke="#9e9e9e" stroke-width="1.0" stroke-linecap="butt" d="m216.72441 116.845146l0 122.58793" fill-rule="nonzero"/><path stroke="#9e9e9e" stroke-width="1.0" stroke-linecap="butt" d="m275.60367 116.845146l0 122.58793" fill-rule="nonzero"/><path stroke="#9e9e9e" stroke-width="1.0" stroke-linecap="butt" d="m157.34645 117.343834l118.755905 0" fill-rule="nonzero"/><path stroke="#9e9e9e" stroke-width="1.0" stroke-linecap="butt" d="m157.34645 178.13911l118.755905 0" fill-rule="nonzero"/><path stroke="#9e9e9e" stroke-width="1.0" stroke-linecap="butt" d="m157.34645 238.93439l118.755905 0" fill-rule="nonzero"/><path fill="#000000" fill-opacity="0.0" d="m119.870155 -69.12699l99.55906 172.47244l-54.456696 31.433075l-99.55906 -172.47244z" fill-rule="evenodd"/><path fill="#000000" d="m145.57582 9.34915l-8.00032 8.893625l11.851364 -2.2222233l1.7966309 3.1124191l-19.703262 11.372961l-1.4060516 -2.4358063l7.8623505 -4.538248l8.34491 -4.5461655l-12.710724 2.4837246l-0.8280182 -1.4344196l8.3958435 -9.302336l-7.8263855 4.7880993l-7.8623505 4.538248l-1.4060593 -2.4358063l19.703255 -11.372959l1.7888184 3.098887zm-3.5079498 26.614874q0.9821472 -0.5488663 1.643692 -0.84051514q0.6750946 -0.29946136 1.2872314 -0.36414337q0.62568665 -0.07249451 1.3066101 0.07570648q0.69444275 0.1403923 1.7075043 0.457695q0.7392273 0.18670654 1.5133362 0.37132645q0.7819061 0.19815063 1.5497437 0.27814102q0.7891693 0.08571243 1.5465393 -0.008674622q0.75738525 -0.094387054 1.4340057 -0.48493958q1.4750366 -0.8514099 1.7542725 -2.1491776q0.29275513 -1.3055744 -0.6211853 -2.8888493q-0.36714172 -0.63601494 -0.8810425 -1.1512337q-0.4925537 -0.5094986 -1.1042633 -0.7878494q-0.5903778 -0.2726307 -1.2686462 -0.25998497q-0.66474915 0.0048332214 -1.3684235 0.41100883l-1.4451294 -2.5034676q1.1445465 -0.6425991 2.316803 -0.7058468q1.1722717 -0.06324577 2.2400055 0.3487816q1.0890961 0.4177494 2.0231628 1.285799q0.9554138 0.87377167 1.6662598 2.1052055q0.7889557 1.3667583 1.0542145 2.638895q0.28660583 1.2778587 0.053146362 2.4048767q-0.23345947 1.127018 -0.9542084 2.0662308q-0.72073364 0.9392128 -1.9386597 1.6422119q-0.9743347 0.562397 -2.0356903 0.72400284q-1.0478363 0.15379333 -2.123825 0.071266174q-1.0624695 -0.090335846 -2.1083221 -0.37067413q-1.0380402 -0.26680374 -1.9735413 -0.5747528q-0.6267853 -0.17944717 -1.1114197 -0.20640564q-0.4768219 -0.013427734 -0.9046936 0.089214325q-0.4278717 0.10264206 -0.8630066 0.31772232q-0.42158508 0.20726776 -0.9493561 0.51189804l-1.4451141 -2.5034676zm-4.399704 2.160698q0.64956665 -0.37493134 1.3013153 -0.24598312q0.6595764 0.14247894 1.1048279 0.91381836q0.44525146 0.7713394 0.23873901 1.4137306q-0.19868469 0.65592194 -0.84825134 1.0308533q-0.6224823 0.35931015 -1.2763367 0.19548798q-0.64604187 -0.15029144 -1.0912933 -0.92163086q-0.44525146 -0.7713394 -0.25227356 -1.4059181q0.2007904 -0.621048 0.8232727 -0.9803581zm5.8035736 13.085564l19.703262 -11.372959l3.3823547 5.8594666q0.6894989 1.2257118 1.0500336 2.5691414q0.3740692 1.3356209 0.26141357 2.6094017q-0.11265564 1.2737846 -0.7880707 2.3852844q-0.67541504 1.1114998 -2.0635376 1.8946991q-0.77915955 0.43170166 -1.5557861 0.55524063q-0.76882935 0.13707352 -1.5252075 0.0143966675q-0.7350464 -0.11695862 -1.4342194 -0.45306778q-0.69918823 -0.33611298 -1.3291626 -0.8023758q0.22302246 0.91765976 0.16493225 1.8171654q-0.036758423 0.90522385 -0.37231445 1.7303505q-0.32202148 0.81731796 -0.931427 1.5118523q-0.601593 0.70806885 -1.4812012 1.2157898q-1.3724976 0.8102646 -2.7404785 0.8782387q-1.3679962 0.067977905 -2.6085815 -0.42469788q-1.2270508 -0.50048447 -2.2933655 -1.4726105q-1.0585022 -0.9585953 -1.7985077 -2.2092857l-3.6401367 -6.3060303zm10.668533 -2.8023605l-7.0910034 4.0930176l2.2262573 3.8566933q0.4665985 0.77705765 1.1163788 1.3401375q0.6633148 0.55526733 1.422348 0.8387909q0.75901794 0.28352356 1.5882416 0.21983337q0.83703613 -0.050159454 1.6625214 -0.52663803q0.846817 -0.47075653 1.3245239 -1.1433983q0.4855194 -0.6591072 0.6352539 -1.4311028q0.16326904 -0.7798004 0.008468628 -1.6105461q-0.15480042 -0.8307457 -0.5886078 -1.6447716l-2.3043823 -3.9920158zm2.0839996 -1.2029076l2.0153503 3.4913216q0.41973877 0.69586563 1.0132904 1.2553139q0.6070862 0.55163574 1.304184 0.85287094q0.71061707 0.2934227 1.4799805 0.28232193q0.76937866 -0.011104584 1.5407257 -0.45633698q0.8254852 -0.47647476 1.2198944 -1.1371269q0.40223694 -0.6471214 0.45515442 -1.3993111q0.07426453 -0.7464676 -0.15600586 -1.5516891q-0.22245789 -0.7916908 -0.63075256 -1.5302429l-1.9762878 -3.4236603l-6.2655334 3.616539zm11.619141 21.8163l3.1792603 5.5076294l-2.489975 1.4372406l-3.1792603 -5.5076294l-6.103134 3.5228043l-1.4451141 -2.5034637l6.103134 -3.522812l-3.1714478 -5.494095l2.489975 -1.4372406l3.1714478 5.494095l5.751297 -3.3197174l1.4451141 2.5034714l-5.751297 3.3197174zm16.133469 6.8524094l-8.00032 8.893623l11.851349 -2.2222214l1.7966309 3.1124191l-19.703247 11.372963l-1.4060669 -2.4358063l7.8623657 -4.538254l8.344894 -4.5461655l-12.710709 2.4837265l-0.8280182 -1.4344177l8.395828 -9.302338l-7.8263702 4.788101l-7.8623657 4.538246l-1.4060516 -2.4358063l19.703247 -11.372955l1.7888336 3.0988846zm-3.507965 26.614876q0.9821625 -0.5488663 1.6437073 -0.84051514q0.67507935 -0.29946136 1.2872314 -0.36414337q0.62568665 -0.07249451 1.3065948 0.07570648q0.694458 0.14038849 1.7075195 0.45768738q0.7392273 0.18671417 1.5133209 0.37133026q0.7819214 0.19815063 1.5497437 0.27814484q0.7891693 0.08570862 1.5465546 -0.008674622q0.75737 -0.09439087 1.4340057 -0.4849472q1.4750366 -0.8514099 1.7542572 -2.14917q0.2927704 -1.3055801 -0.62117004 -2.888855q-0.36714172 -0.63601685 -0.8810425 -1.1512299q-0.49256897 -0.5094986 -1.1042786 -0.7878494q-0.59036255 -0.27262878 -1.2686462 -0.25998688q-0.6647339 0.0048294067 -1.3684235 0.41101074l-1.4451141 -2.5034714q1.1445312 -0.6425934 2.316803 -0.70584106q1.1722565 -0.06324768 2.2400055 0.34877777q1.0890961 0.4177475 2.0231628 1.2857971q0.9554138 0.87377167 1.6662598 2.1052094q0.7889557 1.3667603 1.0542145 2.6388931q0.28660583 1.2778625 0.053146362 2.4048767q-0.23347473 1.1270218 -0.9542084 2.0662308q-0.72073364 0.939209 -1.9386597 1.6422119q-0.9743347 0.5624008 -2.0357056 0.723999q-1.047821 0.15379333 -2.123825 0.0712738q-1.0624542 -0.09033966 -2.108307 -0.37067413q-1.0380402 -0.26680756 -1.9735413 -0.5747528q-0.6267853 -0.17945099 -1.1114197 -0.20640564q-0.47683716 -0.013427734 -0.90470886 0.08921051q-0.42785645 0.102638245 -0.86299133 0.3177185q-0.42160034 0.20726776 -0.9493561 0.51190186l-1.4451294 -2.5034637zm-4.3996887 2.160698q0.6495514 -0.37493896 1.3013153 -0.24598694q0.6595764 0.14247894 1.1048279 0.91381836q0.44525146 0.7713394 0.23873901 1.4137268q-0.19869995 0.65592194 -0.84825134 1.0308609q-0.62249756 0.35930634 -1.2763367 0.19548798q-0.64604187 -0.15029144 -1.0912933 -0.92163086q-0.44525146 -0.7713394 -0.25228882 -1.4059219q0.2007904 -0.621048 0.82328796 -0.9803543z" fill-rule="nonzero"/><path fill="#000000" fill-opacity="0.0" d="m-41.304462 178.13911l199.1496 0l0 62.89763l-199.1496 0z" fill-rule="evenodd"/><path fill="#000000" d="m20.3139 195.10912l3.703125 11.375l4.0 -11.375l3.59375 0l0 22.75l-2.8125 0l0 -9.078125l0.234375 -9.5l-4.203125 12.25l-1.65625 0l-3.859375 -11.921875l0.234375 9.171875l0 9.078125l-2.8125 0l0 -22.75l3.578125 0zm21.703125 12.078125l-5.890625 -1.5l0.84375 -2.734375l5.703125 2.359375l-0.390625 -6.578125l2.78125 0l-0.453125 6.671875l5.671875 -2.34375l0.84375 2.78125l-5.96875 1.46875l4.0 5.0625l-2.28125 1.71875l-3.34375 -5.671875l-3.3125 5.53125l-2.28125 -1.65625l4.078125 -5.109375zm28.531254 0.3125q-0.015625 1.265625 -0.21875 2.546875q-0.203125 1.28125 -0.625 2.46875q-0.40625 1.1875 -1.0625 2.234375q-0.640625 1.03125 -1.546875 1.796875l3.921875 3.265625l-1.984375 1.890625l-4.5 -3.8125q-0.9687538 0.28125 -2.0937538 0.28125q-1.453125 0 -2.609375 -0.4375q-1.15625 -0.453125 -2.0625 -1.21875q-0.890625 -0.765625 -1.546875 -1.796875q-0.65625 -1.046875 -1.078125 -2.234375q-0.421875 -1.1875 -0.625 -2.453125q-0.203125 -1.28125 -0.21875 -2.53125l0 -2.0q0.015625 -1.25 0.21875 -2.53125q0.203125 -1.28125 0.625 -2.46875q0.421875 -1.1875 1.0625 -2.21875q0.640625 -1.046875 1.53125 -1.8125q0.90625 -0.78125 2.0625 -1.21875q1.171875 -0.453125 2.625 -0.453125q1.453125 0 2.6093788 0.453125q1.171875 0.4375 2.0625 1.203125q0.90625 0.765625 1.546875 1.8125q0.65625 1.03125 1.0625 2.21875q0.421875 1.1875 0.625 2.484375q0.203125 1.28125 0.21875 2.53125l0 2.0zm-2.875 -2.03125q-0.015625 -0.859375 -0.109375 -1.78125q-0.078125 -0.9375 -0.3125 -1.828125q-0.21875 -0.90625 -0.609375 -1.71875q-0.375 -0.8125 -0.953125 -1.421875q-0.578125 -0.625 -1.390625 -0.984375q-0.7968788 -0.359375 -1.8750038 -0.359375q-1.0625 0 -1.859375 0.375q-0.796875 0.359375 -1.375 0.984375q-0.578125 0.609375 -0.96875 1.421875q-0.375 0.8125 -0.609375 1.71875q-0.234375 0.890625 -0.34375 1.828125q-0.09375 0.921875 -0.09375 1.765625l0 2.03125q0 0.84375 0.09375 1.78125q0.109375 0.921875 0.34375 1.828125q0.234375 0.90625 0.609375 1.71875q0.390625 0.8125 0.96875 1.4375q0.578125 0.625 1.375 1.0q0.8125 0.359375 1.875 0.359375q1.078125 0 1.8750038 -0.359375q0.8125 -0.375 1.390625 -0.984375q0.578125 -0.625 0.953125 -1.4375q0.375 -0.8125 0.59375 -1.71875q0.234375 -0.90625 0.3125 -1.828125q0.09375 -0.9375 0.109375 -1.796875l0 -2.03125zm19.640625 18.109375q-1.015625 -0.03125 -1.84375 -0.34375q-0.828125 -0.3125 -1.484375 -0.84375q-0.65625 -0.53125 -1.140625 -1.234375q-0.46875 -0.703125 -0.796875 -1.515625q-0.3125 -0.796875 -0.46875 -1.65625q-0.15625 -0.84375 -0.15625 -1.671875l0 -2.640625q0 -2.25 -1.078125 -3.265625q-1.0625 -1.015625 -3.265625 -1.03125l0 -2.265625q2.203125 0 3.265625 -1.0q1.078125 -1.015625 1.078125 -3.28125l0 -2.65625q0 -0.828125 0.140625 -1.671875q0.140625 -0.859375 0.4375 -1.65625q0.296875 -0.8125 0.75 -1.515625q0.46875 -0.703125 1.125 -1.234375q0.65625 -0.53125 1.5 -0.84375q0.859375 -0.3125 1.9375 -0.34375l0.328125 1.796875q-1.125 0.03125 -1.796875 0.53125q-0.65625 0.5 -1.0 1.28125q-0.328125 0.765625 -0.421875 1.734375q-0.09375 0.96875 -0.09375 1.921875l0 2.65625q-0.015625 1.875 -0.875 3.296875q-0.859375 1.40625 -2.671875 2.140625q1.8125 0.71875 2.671875 2.140625q0.859375 1.40625 0.875 3.265625l0 2.640625q0 0.96875 0.15625 1.921875q0.15625 0.96875 0.53125 1.734375q0.390625 0.78125 1.015625 1.28125q0.640625 0.5 1.609375 0.53125l-0.328125 1.796875zm16.015625 -5.71875l-2.890625 0l0 -19.0625l-5.953125 2.265625l0 -2.640625l8.609375 -3.3125l0.234375 0l0 22.75zm17.15625 -0.671875q0 0.734375 -0.1875 1.53125q-0.171875 0.8125 -0.53125 1.59375q-0.34375 0.796875 -0.84375 1.515625q-0.5 0.71875 -1.15625 1.28125l-1.796875 -0.984375q0.75 -1.09375 1.0625 -2.328125q0.3125 -1.234375 0.3125 -2.5625l0 -2.796875l3.140625 0l0 2.75zm14.203125 4.59375q0.953125 -0.03125 1.59375 -0.53125q0.640625 -0.5 1.015625 -1.28125q0.390625 -0.765625 0.546875 -1.734375q0.171875 -0.953125 0.171875 -1.921875l0 -2.640625q0 -1.859375 0.859375 -3.265625q0.859375 -1.421875 2.671875 -2.140625q-1.8125 -0.734375 -2.671875 -2.140625q-0.859375 -1.421875 -0.859375 -3.296875l0 -2.65625q0 -0.953125 -0.109375 -1.921875q-0.09375 -0.96875 -0.4375 -1.734375q-0.328125 -0.78125 -0.984375 -1.28125q-0.65625 -0.5 -1.78125 -0.53125l0.3125 -1.796875q1.078125 0.03125 1.921875 0.34375q0.859375 0.3125 1.515625 0.84375q0.65625 0.53125 1.109375 1.234375q0.46875 0.703125 0.765625 1.515625q0.296875 0.796875 0.4375 1.65625q0.140625 0.84375 0.140625 1.671875l0 2.65625q0 2.265625 1.078125 3.28125q1.078125 1.0 3.265625 1.0l0 2.265625q-2.1875 0.015625 -3.265625 1.03125q-1.078125 1.015625 -1.078125 3.265625l0 2.640625q0 1.25 -0.34375 2.515625q-0.34375 1.28125 -1.078125 2.328125q-0.71875 1.046875 -1.828125 1.71875q-1.109375 0.671875 -2.640625 0.703125l-0.328125 -1.796875z" fill-rule="nonzero"/><path fill="#000000" fill-opacity="0.0" d="m-41.304462 117.343834l199.1496 0l0 62.897636l-199.1496 0z" fill-rule="evenodd"/><path fill="#000000" d="m85.61078 151.1732l-7.59375 0l-1.828125 5.890625l-2.890625 0l7.34375 -22.75l2.421875 0l7.21875 22.75l-2.875 0l-1.796875 -5.890625zm-6.8125 -2.515625l6.046875 0l-3.0 -9.875l-3.046875 9.875zm20.828125 -2.265625l-5.890625 -1.5l0.84375 -2.734375l5.703125 2.359375l-0.390625 -6.578125l2.78125 0l-0.453125 6.671875l5.671875 -2.34375l0.84375 2.78125l-5.96875 1.46875l4.0 5.0625l-2.28125 1.71875l-3.34375 -5.671875l-3.3125 5.53125l-2.28125 -1.65625l4.078125 -5.109375zm13.5 10.671875l0 -22.75l6.765625 0q1.40625 0.015625 2.75 0.375q1.34375 0.34375 2.390625 1.078125q1.046875 0.734375 1.671875 1.875q0.625 1.140625 0.609375 2.734375q-0.015625 0.890625 -0.296875 1.625q-0.265625 0.734375 -0.75 1.328125q-0.46875 0.578125 -1.109375 1.015625q-0.640625 0.4375 -1.359375 0.75q0.90625 0.265625 1.65625 0.765625q0.765625 0.484375 1.3125 1.1875q0.546875 0.6875 0.84375 1.5625q0.3125 0.875 0.3125 1.890625q0.015625 1.59375 -0.609375 2.8125q-0.625 1.21875 -1.671875 2.046875q-1.046875 0.8125 -2.421875 1.25q-1.359375 0.4375 -2.8125 0.453125l-7.28125 0zm2.90625 -10.640625l0 8.1875l4.453125 0q0.90625 -0.015625 1.71875 -0.296875q0.8125 -0.296875 1.4375 -0.8125q0.625 -0.515625 0.984375 -1.265625q0.375 -0.75 0.375 -1.703125q0.015625 -0.96875 -0.328125 -1.71875q-0.328125 -0.75 -0.921875 -1.265625q-0.59375 -0.53125 -1.390625 -0.8125q-0.796875 -0.28125 -1.71875 -0.3125l-4.609375 0zm0 -2.40625l4.03125 0q0.8125 -0.015625 1.59375 -0.25q0.78125 -0.25 1.390625 -0.703125q0.609375 -0.46875 0.984375 -1.140625q0.375 -0.671875 0.375 -1.5625q0 -0.953125 -0.375 -1.625q-0.359375 -0.671875 -0.984375 -1.09375q-0.609375 -0.4375 -1.421875 -0.640625q-0.796875 -0.203125 -1.640625 -0.21875l-3.953125 0l0 7.234375zm22.0 2.375l-5.890625 -1.5l0.84375 -2.734375l5.703125 2.359375l-0.390625 -6.578125l2.78125 0l-0.453125 6.671875l5.671875 -2.34375l0.84375 2.78125l-5.96875 1.46875l4.0 5.0625l-2.28125 1.71875l-3.34375 -5.671875l-3.3125 5.53125l-2.28125 -1.65625l4.078125 -5.109375z" fill-rule="nonzero"/><path fill="#000000" fill-opacity="0.0" d="m185.66019 -71.87765l99.55905 172.47244l-54.456696 31.433075l-99.55905 -172.47244z" fill-rule="evenodd"/><path fill="#000000" d="m213.41658 51.90675q0.40597534 -0.23433304 0.82810974 -0.31563187q0.42996216 -0.0677681 0.8276825 0.02740097q0.41125488 0.08736038 0.7710266 0.36680984q0.35977173 0.27944946 0.64097595 0.7666092q0.28121948 0.48715973 0.34326172 0.9384537q0.069869995 0.46482468 -0.060180664 0.86462784q-0.108688354 0.4055252 -0.39022827 0.7304039q-0.27374268 0.33840942 -0.679718 0.57274246q-0.3924408 0.22652435 -0.8223877 0.29428864q-0.4086151 0.07348633 -0.81414795 -0.03521347q-0.39772034 -0.09516907 -0.75177 -0.39596176q-0.35977173 -0.27944946 -0.64097595 -0.766613q-0.28121948 -0.48715973 -0.34326172 -0.9384537q-0.07559204 -0.44348145 0.040924072 -0.8354721q0.116500854 -0.39199066 0.37670898 -0.7225914q0.28153992 -0.3248787 0.6739807 -0.55139923zm6.7886047 26.949886q-0.48068237 -0.8952179 -0.6240387 -1.7686539q-0.14335632 -0.87342834 -0.01133728 -1.7073593q0.13201904 -0.8339386 0.49882507 -1.6049347q0.37461853 -0.7574692 0.9142761 -1.4478226q0.5339203 -0.669014 1.2000885 -1.2339401q0.65263367 -0.5571289 1.3698578 -0.9711151l2.2869873 -1.320076q1.9486694 -1.124794 2.2892914 -2.566246q0.34843445 -1.4279099 -0.7394409 -3.343773l1.962204 -1.1326103q1.1014099 1.9080505 2.4986725 2.3283348q1.4185944 0.4260025 3.3807983 -0.7066078l2.3005219 -1.3278847q0.71720886 -0.41399002 1.5182648 -0.7139969q0.81459045 -0.30782318 1.6531677 -0.4490738q0.8521118 -0.14906693 1.6875916 -0.10813141q0.8433075 0.054470062 1.6315002 0.3572464q0.7881775 0.30278015 1.4806366 0.87730026q0.70028687 0.58805084 1.2663422 1.5061531l-1.3921967 1.182457q-0.5894928 -0.9587021 -1.3584137 -1.2906342q-0.76112366 -0.31840134 -1.6096039 -0.22555542q-0.8271179 0.09856796 -1.7129974 0.5016632q-0.8858948 0.40309143 -1.7113647 0.87957l-2.3005219 1.3278885q-1.6316986 0.9237976 -3.2927856 0.8903351q-1.6475525 -0.041275024 -3.1897125 -1.2438965q0.28364563 1.9290543 -0.5181885 3.38414q-0.7882843 1.4472733 -2.3908386 2.3903198l-2.2869873 1.320076q-0.8390045 0.48429108 -1.58638 1.0960922q-0.7608948 0.619606 -1.2365112 1.3271255q-0.4813385 0.7288666 -0.60191345 1.5201111q-0.11276245 0.8047714 0.34448242 1.6594009l-1.7202759 0.6140976zm15.248352 14.976646l-7.452118 -12.909767l1.79982 -1.0388794l10.89827 2.3150024q1.4607239 0.31147766 2.5409088 0.46375275q1.0801697 0.15228271 1.9057617 0.14480591q0.8391266 -0.015281677 1.4798889 -0.18668365q0.6542816 -0.17920685 1.2497101 -0.5228958q0.73075867 -0.4217987 1.226181 -1.0325012q0.51675415 -0.60498047 0.72480774 -1.3384705q0.21585083 -0.7199478 0.11155701 -1.5257187q-0.082962036 -0.8000488 -0.551651 -1.6119843q-0.5702362 -0.98786163 -1.2762299 -1.5545654q-0.69818115 -0.5531769 -1.5071716 -0.73571014q-0.7876282 -0.17680359 -1.6725159 0.009223938q-0.8770752 0.19956207 -1.797287 0.7307205l-1.4529266 -2.5169983q1.2449799 -0.7186203 2.5910797 -0.9182892q1.3596191 -0.20748138 2.6537933 0.12797546q1.3019714 0.3489914 2.4687347 1.2451019q1.1745758 0.90963745 2.049469 2.4252472q0.8045654 1.3938293 1.0256042 2.745613q0.2423706 1.3575134 -0.043121338 2.5506516q-0.2855072 1.1931381 -1.0525665 2.177124q-0.7592468 0.99752045 -1.9365692 1.6770859q-0.87960815 0.50772095 -1.9175415 0.7099228q-1.0243835 0.19438934 -2.1602325 0.1644516q-1.1280365 -0.016403198 -2.3440857 -0.21653748q-1.1947174 -0.19441223 -2.4362946 -0.4700241l-8.792038 -1.9792099l5.7101746 9.892082l-2.0434113 1.1794739zm0.39190674 8.523735q0.50357056 0.809845 1.2568665 1.1147156q0.75331116 0.30486298 1.6174164 0.23908234q0.8583679 -0.044433594 1.7754974 -0.3934021q0.9114075 -0.32762146 1.7504272 -0.81191254l2.286972 -1.320076q1.6103668 -0.92951965 3.2579193 -0.8882446q1.661087 0.033462524 3.1896973 1.2438965q-0.27009583 -1.9368668 0.5181885 -3.38414q0.8018341 -1.4550781 2.4257202 -2.3924103l2.3005219 -1.3278885q0.82547 -0.47647858 1.6098022 -1.0554886q0.7921448 -0.5654831 1.2833862 -1.2459412q0.51257324 -0.6747284 0.6175537 -1.493042q0.10494995 -0.81830597 -0.43041992 -1.8082504l1.7124634 -0.62763214q0.5119324 0.94934845 0.66311646 1.8363113q0.15896606 0.90049744 0.026947021 1.7344284q-0.13201904 0.83393097 -0.51446533 1.5778656q-0.37460327 0.7574692 -0.9298706 1.4207611q-0.54174805 0.65547943 -1.2157288 1.2068787q-0.6604614 0.54358673 -1.377655 0.95757294l-2.300537 1.3278885q-1.962204 1.1326141 -2.302826 2.5740585q-0.3270874 1.4336319 0.76652527 3.328148l-1.962204 1.1326141q-1.1071472 -1.8867035 -2.5257416 -2.3127136q-1.4185944 -0.4260025 -3.3672638 0.69879913l-2.2869873 1.320076q-1.0825958 0.62488556 -2.350586 0.959877q-1.2815094 0.34279633 -2.5553284 0.23012543q-1.2659912 -0.09913635 -2.4024963 -0.7240524q-1.1365204 -0.6249161 -1.9290924 -1.9354553l1.3921814 -1.1824493z" fill-rule="nonzero"/></g></svg>